<svg width="606" height="589" viewBox="0 0 606 589" fill="none" xmlns="http://www.w3.org/2000/svg">
<path d="M301.329 419.361H240.573V469.14H301.329V419.361Z" fill="#F8D7BC"/>
<path d="M234.577 415.55V419.361H301.387V469.14H234.577V472.919H491.498V415.55H234.577Z" fill="#4E53BA"/>
<path d="M606.001 282.754L560.695 311.18L559.86 253.133L606.001 282.754Z" fill="#2B31BA"/>
<path d="M125.743 123.626C144.011 123.626 158.82 107.587 158.82 87.8026C158.82 68.0178 144.011 51.9791 125.743 51.9791C107.475 51.9791 92.666 68.0178 92.666 87.8026C92.666 107.587 107.475 123.626 125.743 123.626Z" fill="#4E53BA"/>
<path d="M384.811 558.359H181.547V477.926H384.721C394.833 477.926 403.064 486.777 403.064 497.792V538.558C403.154 549.444 394.892 558.359 384.811 558.359Z" fill="#F8ECE2"/>
<path d="M505.219 472.919H172.719C171.436 472.919 170.392 474.05 170.392 475.439C170.392 476.828 171.436 477.958 172.719 477.958H213.521H365.931C386.452 477.958 403.065 495.951 403.065 518.175C403.065 540.399 386.452 558.391 365.931 558.391H177.699H172.689C171.406 558.391 170.362 559.522 170.362 560.911C170.362 562.3 171.406 563.431 172.689 563.431H505.248C525.769 563.431 542.382 545.438 542.382 523.214V513.232C542.352 490.879 525.739 472.919 505.219 472.919Z" fill="#FF5856"/>
<path d="M373.089 495.337H181.547V492.559H373.089C373.805 492.559 374.372 493.173 374.372 493.948C374.372 494.723 373.805 495.337 373.089 495.337Z" fill="#EBD0BE"/>
<path d="M284.716 457.284H240.573V454.506H284.716C285.432 454.506 285.998 455.12 285.998 455.895C285.998 456.671 285.432 457.284 284.716 457.284Z" fill="#E0C1A6"/>
<path d="M274.306 441.618H240.573V438.84H274.247C274.963 438.84 275.529 439.454 275.529 440.229C275.589 440.972 274.992 441.618 274.306 441.618Z" fill="#E0C1A6"/>
<path d="M386.988 526.638H181.547V523.86H386.988C387.704 523.86 388.271 524.474 388.271 525.249C388.271 526.025 387.704 526.638 386.988 526.638Z" fill="#EBD0BE"/>
<path d="M361.696 544.017H181.547V541.239H361.696C362.412 541.239 362.978 541.853 362.978 542.628C362.978 543.371 362.412 544.017 361.696 544.017Z" fill="#EBD0BE"/>
<path d="M380.814 511.327H181.547V508.549H380.814C381.53 508.549 382.097 509.162 382.097 509.938C382.097 510.681 381.59 511.327 380.814 511.327Z" fill="#EBD0BE"/>
<path d="M358.982 410.931H280.868V381.083H359.012C361.13 381.083 362.86 382.957 362.86 385.25V406.731C362.86 409.122 361.1 410.931 358.982 410.931Z" fill="#F8D0B3"/>
<path d="M499.821 376.56H344.577H276.484H274.426C273.263 376.56 272.309 377.594 272.309 378.854C272.309 380.114 273.263 381.147 274.426 381.147H280.869H355.135C359.371 381.147 362.86 384.927 362.86 389.514V402.564C362.86 407.151 359.371 410.93 355.135 410.93H338.135H274.874C273.71 410.93 272.756 411.964 272.756 413.224C272.756 414.483 273.71 415.517 274.874 415.517H276.484H345.084H499.821C504.056 415.517 507.546 411.738 507.546 407.151V384.83C507.546 380.275 504.056 376.56 499.821 376.56Z" fill="#FF7A82"/>
<path d="M430.41 37.3675C433.332 27.8726 428.594 17.6099 419.827 14.4453C411.06 11.2807 401.584 16.4124 398.662 25.9073C395.74 35.4022 400.478 45.6648 409.245 48.8294C418.012 51.9941 427.488 46.8624 430.41 37.3675Z" fill="#110580"/>
<path d="M397.159 374.493H270.697V345.841H397.159C400.768 345.841 403.661 348.974 403.661 352.883V367.387C403.661 371.263 400.768 374.493 397.159 374.493Z" fill="#F8E7D8"/>
<path d="M475.93 343.612H265.269C264.762 343.612 264.314 344.097 264.314 344.646C264.314 345.195 264.762 345.679 265.269 345.679H390.18C397.517 345.679 403.453 352.108 403.453 360.054C403.453 368 397.517 374.429 390.18 374.429H265.269C264.762 374.429 264.314 374.913 264.314 375.462C264.314 376.012 264.762 376.496 265.269 376.496H475.93C483.267 376.496 489.202 370.068 489.202 362.121V357.954C489.202 350.008 483.267 343.612 475.93 343.612Z" fill="#2B31BA"/>
<path d="M366.856 368.129H270.697V366.805H366.856C367.184 366.805 367.512 367.096 367.512 367.516C367.483 367.774 367.214 368.129 366.856 368.129Z" fill="#DEBCA7"/>
<path d="M377.325 354.046H270.697V352.721H377.265C377.594 352.721 377.922 353.012 377.922 353.432C377.922 353.723 377.653 354.046 377.325 354.046Z" fill="#DEBCA7"/>
<path d="M389.047 360.829H270.697V359.505H389.047C389.375 359.505 389.703 359.796 389.703 360.216C389.703 360.474 389.375 360.829 389.047 360.829Z" fill="#DEBCA7"/>
<path d="M495.764 7.98143C504.503 17.8014 509.484 28.6227 514.942 40.7362C516.493 44.0956 525.888 37.3767 525.173 34.1142C522.279 21.1609 514.435 9.85498 505.666 0.648764C502.833 -2.25846 493.438 5.39723 495.764 7.98143Z" fill="#F3E9E1"/>
<path d="M549.123 6.78616C548.855 18.7704 546.558 30.0117 544.411 41.7052C543.456 46.8736 552.583 40.8007 553.537 38.1519C557.594 26.7168 558.757 13.602 558.608 1.42395C558.578 -2.19394 549.183 3.16828 549.123 6.78616Z" fill="#F3E9E1"/>
<path d="M570.986 56.3384C577.816 52.7205 584.766 49.1673 591.715 45.8078C594.221 44.6126 597.502 41.4147 596.786 38.0552C596.07 34.6957 592.163 34.9865 589.896 36.0201C582.947 39.4442 576.057 42.9329 569.167 46.5508C566.721 47.8752 563.381 50.8793 564.096 54.3034C564.812 57.6628 568.809 57.5336 570.986 56.3384Z" fill="#F3E9E1"/>
<path d="M339.803 523.86H309.948C309.948 523.86 305.116 525.605 301 533.906C295.929 544.211 297.719 554.192 294.438 561.848C290.65 570.699 284.715 574.123 284.715 574.123C284.715 574.123 291.336 575.092 295.333 574.478C298.942 573.929 303.386 570.634 303.386 570.634C303.386 570.634 304.221 572.508 304.43 575.803C304.698 579.356 304.37 581.294 304.37 581.294C304.37 581.294 315.316 578.516 319.76 571.668C325.934 562.203 320.804 550.542 328.768 536.2C332.287 529.836 339.803 523.86 339.803 523.86Z" fill="#BFA990"/>
<path d="M524.946 126.404C526.143 123.662 521.718 118.675 515.061 115.265C508.405 111.855 502.038 111.313 500.841 114.055C499.644 116.797 504.069 121.784 510.725 125.194C517.381 128.604 523.748 129.145 524.946 126.404Z" fill="#D4BFA9"/>
<path d="M503.103 109.468C505.369 104.655 507.278 99.6479 508.054 94.3503C509.784 82.8506 506.562 69.6712 513.005 60.4003C517.628 53.7137 526.188 51.4202 533.853 52.3247C543.189 53.4553 552.315 59.0759 556.909 68.0237C561.502 76.9715 560.697 89.085 554.194 96.4499C548.736 102.652 540.355 104.816 534.569 110.663C531.348 113.926 529.17 118.19 526.784 122.292L526.009 123.552C507.845 122.098 503.103 109.468 503.103 109.468Z" fill="#EBDBCD"/>
<path d="M534.448 90.6673C533.613 87.6632 531.227 87.9539 529.05 88.9876C528.483 87.3725 527.559 85.2082 525.948 84.5945C524.158 83.8838 522.16 85.3051 520.788 86.468C517.835 89.1168 515.569 92.9608 514.286 96.8694C513.004 100.778 512.407 104.945 511.274 108.854C510.826 110.469 513.153 111.083 513.6 109.467C515.091 104.461 515.539 98.9368 517.925 94.3498C519.267 91.7656 521.206 88.7615 523.711 87.4371C524.546 87.0171 525.113 86.8879 525.709 87.7924C526.157 88.5031 526.485 89.246 526.753 90.0213C526.753 90.0859 526.813 90.1505 526.813 90.2151C526.485 90.4089 526.246 90.635 525.978 90.8288C523.532 92.9285 520.371 96.611 520.52 100.229C520.579 101.844 521.623 103.233 523.144 103.298C524.874 103.362 526.545 101.844 527.588 100.455C529.527 97.8708 530.094 94.4467 529.587 91.2488C530.094 90.8935 530.69 90.6996 531.197 90.635C532.689 90.5058 532.092 93.1546 531.913 94.0591C531.197 97.0632 529.736 99.712 528.304 102.296C527.201 104.234 526.246 106.334 524.904 108.078C523.413 110.017 521.414 111.438 519.565 112.891C518.283 113.796 519.565 116.025 520.848 115.12C523.115 113.505 525.352 111.761 527.022 109.467C528.752 106.948 530.243 104.17 531.645 101.456C533.226 98.6137 535.463 94.2206 534.448 90.6673ZM527.35 95.3835C527.081 96.7725 526.574 98.0969 525.68 99.1629C525.173 99.7766 522.906 101.941 523.055 100.003C523.115 98.8076 523.95 97.5478 524.546 96.5787C525.322 95.3189 526.336 94.1237 527.439 93.1546C527.499 93.9299 527.499 94.6405 527.35 95.3835Z" fill="#BFA990"/>
<path d="M510.678 125.231C504.683 122.163 500.567 117.834 500.626 114.991L498.002 126.491C497.047 128.72 500.567 132.758 505.995 135.471C511.334 138.185 516.494 138.669 517.448 136.44C517.508 136.311 517.508 136.247 517.568 136.085L524.398 127.105C522.399 128.978 516.673 128.3 510.678 125.231Z" fill="#BFA990"/>
<path d="M577.487 276.811L572.924 275.486C572.655 275.422 572.476 275.066 572.536 274.776C572.596 274.485 572.924 274.291 573.192 274.356L576.741 275.389L577.696 271.545C577.755 271.255 578.084 271.061 578.352 271.125C578.62 271.19 578.799 271.545 578.74 271.836L577.487 276.811Z" fill="#EBDBCD"/>
<path d="M564.811 273.064C564.751 273.064 564.751 273.064 564.691 273.064L556.459 270.609C556.191 270.544 556.012 270.189 556.072 269.898C556.131 269.607 556.459 269.413 556.728 269.478L564.96 271.933C565.228 271.998 565.407 272.353 565.348 272.644C565.258 272.934 565.079 273.064 564.811 273.064ZM548.347 268.25C548.287 268.25 548.287 268.25 548.227 268.25L539.995 265.795C539.727 265.731 539.548 265.376 539.608 265.085C539.667 264.794 539.995 264.6 540.264 264.665L548.496 267.12C548.764 267.184 548.943 267.54 548.884 267.831C548.794 268.121 548.585 268.25 548.347 268.25ZM531.913 263.437C531.853 263.437 531.853 263.437 531.793 263.437L523.561 260.982C523.293 260.918 523.114 260.562 523.174 260.272C523.233 259.981 523.561 259.787 523.83 259.852L532.062 262.307C532.33 262.371 532.509 262.727 532.449 263.017C532.3 263.308 532.121 263.437 531.913 263.437Z" fill="#EBDBCD"/>
<path d="M515.449 258.625C515.39 258.625 515.39 258.625 515.33 258.625L510.767 257.3L511.989 252.358C512.049 252.067 512.377 251.873 512.646 251.938C512.914 252.003 513.093 252.358 513.033 252.649L512.079 256.493L515.628 257.526C515.897 257.591 516.076 257.946 516.016 258.237C515.837 258.495 515.658 258.625 515.449 258.625Z" fill="#EBDBCD"/>
<path d="M514.675 244.121C514.615 244.121 514.615 244.121 514.555 244.121C514.287 244.056 514.108 243.701 514.168 243.41L516.345 234.495C516.405 234.204 516.733 234.01 517.001 234.075C517.27 234.139 517.449 234.495 517.389 234.785L515.212 243.701C515.122 243.992 514.943 244.121 514.675 244.121ZM519.119 226.354C519.059 226.354 519.059 226.354 519 226.354C518.731 226.29 518.552 225.935 518.612 225.644L520.789 216.728C520.849 216.438 521.177 216.244 521.445 216.308C521.714 216.373 521.893 216.728 521.833 217.019L519.656 225.935C519.566 226.161 519.387 226.354 519.119 226.354Z" fill="#EBDBCD"/>
<path d="M523.562 208.523C523.503 208.523 523.503 208.523 523.443 208.523C523.175 208.458 522.996 208.103 523.055 207.812L524.278 202.87L528.842 204.195C529.11 204.259 529.289 204.614 529.229 204.905C529.17 205.196 528.842 205.39 528.573 205.325L525.024 204.291L524.07 208.135C524.01 208.362 523.831 208.523 523.562 208.523Z" fill="#EBDBCD"/>
<path d="M578.143 219.732C578.083 219.732 578.083 219.732 578.023 219.732L569.791 217.277C569.523 217.213 569.344 216.858 569.404 216.567C569.463 216.276 569.792 216.082 570.06 216.147L578.292 218.602C578.56 218.667 578.739 219.022 578.68 219.313C578.59 219.603 578.322 219.732 578.143 219.732ZM561.649 214.919C561.589 214.919 561.589 214.919 561.53 214.919L553.298 212.464C553.029 212.4 552.85 212.044 552.91 211.754C552.97 211.463 553.298 211.269 553.566 211.334L561.798 213.789C562.067 213.853 562.246 214.209 562.186 214.499C562.096 214.79 561.858 214.919 561.649 214.919ZM545.185 210.106C545.125 210.106 545.125 210.106 545.066 210.106L536.834 207.651C536.565 207.587 536.386 207.231 536.446 206.941C536.506 206.65 536.834 206.456 537.102 206.521L545.334 208.976C545.603 209.04 545.782 209.396 545.722 209.686C545.632 209.977 545.453 210.106 545.185 210.106Z" fill="#EBDBCD"/>
<path d="M589.328 227.743C589.269 227.743 589.269 227.743 589.209 227.743C588.941 227.679 588.762 227.323 588.821 227.033L589.776 223.189L586.226 222.155C585.958 222.09 585.779 221.735 585.839 221.444C585.898 221.154 586.226 220.96 586.495 221.024L591.058 222.349L589.835 227.291C589.776 227.614 589.537 227.743 589.328 227.743Z" fill="#EBDBCD"/>
<path d="M580.44 263.373C580.381 263.373 580.381 263.373 580.321 263.373C580.053 263.309 579.874 262.953 579.933 262.663L582.111 253.747C582.17 253.456 582.498 253.263 582.767 253.327C583.035 253.392 583.214 253.747 583.155 254.038L580.977 262.953C580.918 263.244 580.649 263.373 580.44 263.373ZM584.885 245.607C584.825 245.607 584.825 245.607 584.765 245.607C584.497 245.542 584.318 245.187 584.377 244.896L586.555 235.981C586.614 235.69 586.942 235.496 587.211 235.561C587.479 235.625 587.658 235.981 587.599 236.271L585.421 245.187C585.332 245.381 585.093 245.607 584.885 245.607Z" fill="#EBDBCD"/>
<path d="M102.448 172.92C102.269 172.92 102.12 172.855 102.001 172.726C101.166 171.466 100.509 170.077 99.9427 168.623C99.8234 168.333 99.9427 168.01 100.211 167.848C100.48 167.687 100.778 167.848 100.927 168.139C101.434 169.528 102.09 170.852 102.866 172.048C103.045 172.338 102.985 172.661 102.746 172.823C102.627 172.823 102.508 172.92 102.448 172.92Z" fill="#EBDBCD"/>
<path d="M98.7805 159.741C98.512 159.741 98.2734 159.45 98.2734 159.191V158.901C98.2734 155.832 98.7208 152.763 99.556 149.694C99.6156 149.404 99.9437 149.21 100.212 149.339C100.481 149.404 100.66 149.759 100.54 150.05C99.7051 152.989 99.2577 155.961 99.2577 158.901V159.094C99.2875 159.45 99.0489 159.741 98.7805 159.741ZM103.791 141.974C103.672 141.974 103.612 141.974 103.523 141.91C103.254 141.78 103.195 141.425 103.404 141.134C104.895 138.615 106.744 136.127 108.951 133.737C109.13 133.543 109.458 133.543 109.667 133.737C109.846 133.931 109.846 134.286 109.667 134.512C107.549 136.806 105.73 139.261 104.268 141.683C104.119 141.877 104 141.974 103.791 141.974ZM115.841 128.504C115.722 128.504 115.513 128.439 115.453 128.31C115.274 128.019 115.334 127.696 115.573 127.535C116.974 126.34 118.525 125.177 120.196 123.982C121.031 123.368 121.925 122.722 122.761 122.173C123.029 122.044 123.327 122.108 123.476 122.302C123.596 122.593 123.536 122.916 123.357 123.077C122.522 123.691 121.627 124.272 120.792 124.886C119.122 126.081 117.631 127.244 116.229 128.439C116.02 128.439 115.96 128.504 115.841 128.504ZM130.307 118.038C130.128 118.038 129.978 117.973 129.859 117.747C129.74 117.457 129.8 117.134 129.978 116.972C132.872 114.937 135.049 113.29 136.988 111.545C137.167 111.351 137.554 111.416 137.703 111.61C137.882 111.804 137.823 112.224 137.644 112.385C135.645 114.129 133.468 115.809 130.486 117.876C130.515 118.038 130.396 118.038 130.307 118.038ZM160.371 112.417C160.103 112.417 159.864 112.127 159.864 111.868C159.864 111.577 160.043 111.319 160.371 111.319C163.205 111.254 166.038 110.899 168.872 110.124C169.14 110.059 169.438 110.253 169.528 110.544C169.587 110.835 169.408 111.158 169.14 111.254C166.217 111.901 163.264 112.32 160.371 112.417ZM151.751 111.577C151.692 111.577 151.692 111.577 151.632 111.577C148.739 110.964 145.906 109.962 143.251 108.735C142.983 108.606 142.863 108.25 142.983 107.96C143.102 107.669 143.43 107.54 143.698 107.669C146.263 108.929 149.037 109.833 151.871 110.447C152.139 110.512 152.318 110.802 152.258 111.158C152.199 111.351 152.02 111.577 151.751 111.577ZM177.223 108.283C177.044 108.283 176.835 108.153 176.775 107.927C176.656 107.637 176.775 107.314 177.044 107.152C179.549 105.957 182.055 104.568 184.709 102.824C184.978 102.694 185.276 102.759 185.425 103.017C185.544 103.308 185.485 103.631 185.246 103.793C182.532 105.537 180.026 106.926 177.461 108.121C177.372 108.218 177.312 108.283 177.223 108.283ZM143.639 106.118C143.519 106.118 143.37 106.054 143.311 105.989C143.132 105.795 143.042 105.44 143.251 105.214C145.19 102.759 146.651 100.11 147.814 97.3967C147.934 97.106 148.262 96.9768 148.53 97.106C148.799 97.2352 148.918 97.5905 148.799 97.8812C147.635 100.659 146.025 103.373 144.086 105.957C143.907 106.054 143.758 106.118 143.639 106.118ZM136.033 103.889C135.914 103.889 135.765 103.825 135.705 103.76C133.259 101.661 131.261 99.3025 129.77 96.6537C129.65 96.363 129.71 96.04 129.949 95.8785C130.217 95.7493 130.515 95.8139 130.664 96.0723C132.066 98.5919 134.005 100.885 136.331 102.888C136.51 103.082 136.6 103.437 136.391 103.663C136.302 103.825 136.182 103.889 136.033 103.889ZM192.166 98.7534C191.987 98.7534 191.838 98.6888 191.718 98.5596C191.539 98.2689 191.599 97.9458 191.838 97.7843C194.015 96.1046 196.013 94.4249 197.952 92.7774L198.787 92.0668C199.055 91.873 199.354 91.9376 199.503 92.1314C199.622 92.3252 199.622 92.7451 199.443 92.9066L198.608 93.6173C196.669 95.2324 194.611 96.8798 192.494 98.6242C192.374 98.6565 192.285 98.7534 192.166 98.7534ZM150.409 89.1272C150.081 89.1272 149.902 88.8365 149.902 88.5135C149.902 88.1905 149.902 87.8028 149.902 87.3829C149.902 86.1231 149.783 84.8633 149.574 83.6035C149.306 82.2145 148.918 80.8901 148.292 79.5657C148.172 79.275 148.292 78.952 148.56 78.7904C148.828 78.6612 149.127 78.7904 149.276 79.0812C149.932 80.4702 150.379 81.9238 150.618 83.4097C150.886 84.6695 150.946 86.0585 150.946 87.3829C150.946 87.8028 150.946 88.1582 150.946 88.5781C150.916 88.8365 150.648 89.1272 150.409 89.1272ZM127.294 88.1582C127.026 88.1582 126.787 87.9644 126.787 87.6736C126.727 87.0599 126.727 86.3492 126.727 85.7355C126.727 83.0867 127.234 80.5025 128.129 78.209C128.249 77.9183 128.577 77.7891 128.845 77.9183C129.114 78.0475 129.233 78.4028 129.114 78.6935C128.219 80.8578 127.771 83.2805 127.771 85.8001C127.771 86.4138 127.771 87.0599 127.831 87.609C127.861 87.8675 127.682 88.1582 127.294 88.1582C127.354 88.1582 127.354 88.1582 127.294 88.1582ZM142.863 73.1698C142.804 73.1698 142.684 73.1698 142.595 73.1052C140.477 71.7808 138.151 71.3609 136.033 71.91C135.586 72.0392 135.138 72.2007 134.691 72.3299C134.423 72.4592 134.124 72.3299 134.035 71.9746C133.915 71.6839 134.035 71.3609 134.363 71.264C134.81 71.0701 135.317 70.9086 135.854 70.7794C138.3 70.2303 140.805 70.6502 143.191 72.1038C143.46 72.233 143.519 72.5884 143.37 72.8791C143.251 73.1052 143.072 73.1698 142.863 73.1698Z" fill="#EBDBCD"/>
<path d="M206.184 87.5119C206.005 87.5119 205.856 87.4473 205.736 87.2212C205.617 86.9305 205.677 86.6075 205.915 86.446C207.407 85.4769 208.689 84.7662 209.852 84.4109C210.121 84.3463 210.419 84.4755 210.509 84.8308C210.568 85.1216 210.449 85.4446 210.121 85.5415C209.077 85.8968 207.854 86.446 206.452 87.415C206.393 87.5119 206.333 87.5119 206.184 87.5119Z" fill="#EBDBCD"/>
<g clip-path="url(#clip0_309_182)">
<path d="M323.165 290.013L307.401 289.969C302.041 289.925 297.65 286.692 297.582 282.818V281.468C297.537 277.593 301.839 274.45 307.131 274.516L322.895 274.56C328.255 274.604 332.646 277.837 332.714 281.711V283.062C332.759 286.936 328.48 290.057 323.165 290.013Z" fill="#FCB58A"/>
<path d="M49.5668 289.128L33.8026 289.083C28.4428 289.039 24.0513 285.807 23.9837 281.933V280.582C23.9387 276.708 28.2401 273.564 33.5323 273.63L49.2965 273.675C54.6564 273.719 59.0478 276.951 59.1154 280.826V282.176C59.1829 286.05 54.8816 289.172 49.5668 289.128Z" fill="#FCB58A"/>
<path d="M135.076 519.417C134.468 527.321 133.86 535.224 133.207 543.128C132.802 548.397 139.062 552.626 144.287 552.382C150.548 552.094 153.948 547.357 154.354 542.043C154.962 534.14 155.57 526.236 156.223 518.332C156.628 513.063 150.368 508.835 145.143 509.078C138.86 509.366 135.527 514.082 135.076 519.417Z" fill="#FCB58A"/>
<path d="M212.073 521.897C213.334 529.69 214.595 537.549 215.856 545.364C216.712 550.589 223.784 553.268 228.806 551.829C234.819 550.08 237.003 544.766 236.147 539.497C234.886 531.704 233.625 523.845 232.364 516.03C231.508 510.805 224.437 508.126 219.415 509.565C213.402 511.314 211.217 516.628 212.073 521.897Z" fill="#FCB58A"/>
<path d="M49.972 510.119C30.4018 510.119 14.48 508.326 13.917 506.134L16.7996 539.674C16.7996 555.57 31.708 568.61 49.972 568.61C68.2359 568.61 83.1443 555.592 83.1443 539.674L86.0269 506.067C85.6216 508.326 69.6547 510.119 49.972 510.119Z" fill="#DEC7B2"/>
<path d="M49.972 510.119C30.1091 510.119 13.962 508.281 13.917 506.045V506.001C14.0746 503.765 30.1541 501.927 49.972 501.927C69.7898 501.927 85.8693 503.765 86.0269 506.001V506.045C85.9143 508.281 69.8348 510.119 49.972 510.119Z" fill="#E8D4C1"/>
<path d="M49.9716 509.41C33.2391 509.41 19.6368 507.861 19.5918 505.935V505.89C19.7494 504.008 33.2841 502.459 49.9716 502.459C66.7042 502.459 80.2614 504.008 80.3515 505.89V505.935C80.3064 507.883 66.7042 509.41 49.9716 509.41Z" fill="#BA9C7E"/>
<path d="M15.1328 520.502C17.4524 520.546 19.7269 521.454 21.7087 523.336C25.4021 526.856 27.7216 532.28 30.7168 536.398C31.8203 534.162 32.8337 531.882 33.6895 529.535C34.748 526.745 38.5539 524.177 41.5266 526.413C44.7019 528.849 47.0891 531.572 49.1609 534.959C50.94 537.881 52.4039 541.379 55.1739 543.549C57.8538 545.696 60.894 546.272 61.9975 542.508C62.9659 539.187 62.6055 535.645 63.709 532.324C64.6099 529.535 66.0286 526.701 68.9112 525.461C72.2893 524.022 75.5772 525.816 78.6175 527.299C80.4416 528.184 82.1982 529.136 83.9322 530.177L83.3242 537.239C80.2389 535.357 76.4555 533.011 73.2576 532.568C71.2308 532.28 71.3885 533.608 71.2308 535.446C71.1407 537.084 71.1407 538.767 71.0281 540.427C70.8254 543.815 70.33 547.18 68.3032 549.969C63.9568 555.991 55.8044 555.681 50.1068 551.851C47.0215 549.814 44.792 547.135 42.8327 544.058C42.1797 543.062 41.5716 542.021 40.9185 540.981C38.4413 546.604 34.7029 551.674 28.4873 549.526C24.6364 548.176 22.1141 544.058 19.8395 540.981C19.1414 540.029 17.8127 537.704 16.5066 535.623L15.1328 520.502Z" fill="#EBDBCD"/>
<path d="M1.03602 395.439C1.80171 392.561 5.22479 392.118 7.25161 393.801C11.1026 396.989 13.1069 401.35 15.2463 405.689C17.4758 410.272 20.2008 414.434 23.3761 418.375C29.8394 426.478 37.0234 433.983 41.7301 443.281C50.8734 461.28 53.1029 482.445 46.7972 501.684C46.5945 502.282 47.8106 499.249 45.8288 504.562C44.0497 509.388 37.091 506.798 37.136 501.175C37.1811 495.662 35.7172 490.548 33.24 485.677C28.3306 475.981 22.16 466.948 17.3632 457.207C12.4988 447.355 8.26502 437.215 4.81942 426.832C1.48642 416.715 -1.68893 406.021 1.03602 395.439Z" fill="#4C7378"/>
<path d="M46.0313 339.029C48.5086 334.601 55.7376 337.59 54.3188 342.46C50.0625 356.674 53.1027 371.728 55.7376 385.963C58.4175 400.487 61.5478 414.899 63.3719 429.555C66.6149 455.546 65.5564 484.77 48.8013 506.554C46.9772 508.901 43.1938 506.953 44.7026 504.163C46.3691 501.086 42.1804 480.807 40.3112 474.342C38.442 467.634 36.5278 460.97 34.8613 454.218C31.5283 441.045 28.8033 427.629 28.0827 414.058C26.5738 387.646 33.1948 362.098 46.0313 339.029Z" fill="#57848A"/>
<path d="M54.0255 483.619C56.0073 474.763 54.5209 465.376 56.4577 456.587C58.3269 447.931 60.9167 439.186 64.9929 431.282C68.8889 423.777 74.8567 418.464 81.838 413.792C88.4139 409.409 96.206 405.092 98.5255 397.099C99.8993 392.317 108.142 393.026 107.624 398.295C106.52 409.032 101.904 418.486 96.5438 427.762C90.8236 437.614 85.8241 447.045 83.0541 458.137C78.2573 477.132 74.1136 501.728 52.1113 507.551C49.4088 508.237 49.7691 502.569 54.0255 483.619Z" fill="#689399"/>
<path d="M49.3197 291.253C65.3541 299.312 81.5687 303.939 99.7201 303.584C116.7 303.23 133.253 298.758 142.801 283.792C149.13 273.852 133.14 264.708 126.834 274.605C120.371 284.744 107.467 285.497 96.4546 285.386C82.8073 285.298 70.714 281.6 58.6881 275.534C48.1036 270.243 38.6901 285.94 49.3197 291.253Z" fill="#FCB58A"/>
<path d="M296.006 275.556C283.913 281.622 271.887 285.298 258.24 285.408C246.619 285.497 236.102 284.213 229.526 273.785C223.266 263.845 207.276 272.988 213.56 282.973C217.658 289.482 223.221 295.194 230.202 298.625C238.039 302.5 246.281 303.407 254.929 303.607C273.081 303.961 289.318 299.334 305.33 291.275C315.937 285.94 306.568 270.243 296.006 275.556Z" fill="#FCB58A"/>
<path d="M352.037 349.567L345.709 383.418L318.054 360.947L352.037 349.567Z" fill="#D4BFA9"/>
<path d="M102.67 105.418C112.919 105.418 121.227 97.251 121.227 87.176C121.227 77.1009 112.919 68.9335 102.67 68.9335C92.4214 68.9335 84.1133 77.1009 84.1133 87.176C84.1133 97.251 92.4214 105.418 102.67 105.418Z" fill="#EBDBCD"/>
<path d="M120.304 123.794C120.146 123.794 120.011 123.705 119.898 123.55C119.808 123.351 119.898 123.108 120.101 122.997L122.015 122.156L121.159 120.274C121.069 120.074 121.159 119.831 121.362 119.72C121.565 119.632 121.812 119.72 121.925 119.919L123.096 122.598L120.371 123.75C120.416 123.794 120.349 123.794 120.304 123.794Z" fill="#110580"/>
<path d="M80.871 140.752C80.7133 140.752 80.5782 140.664 80.4656 140.509C80.3755 140.309 80.4656 140.066 80.6683 139.955L85.6227 137.808C85.8254 137.719 86.0731 137.808 86.1857 138.007C86.2758 138.206 86.1857 138.45 85.983 138.56L81.0286 140.708C80.961 140.752 80.916 140.752 80.871 140.752ZM90.7348 136.524C90.5772 136.524 90.4421 136.435 90.3295 136.28C90.2394 136.081 90.3295 135.837 90.5321 135.727L95.4866 133.579C95.6893 133.491 95.937 133.579 96.0496 133.778C96.1397 133.978 96.0496 134.221 95.8469 134.332L90.8925 136.479C90.8249 136.524 90.7799 136.524 90.7348 136.524ZM100.599 132.295C100.441 132.295 100.306 132.207 100.193 132.052C100.103 131.852 100.193 131.609 100.396 131.498L105.35 129.351C105.553 129.262 105.801 129.351 105.913 129.55C106.026 129.749 105.913 129.993 105.711 130.103L100.756 132.251C100.689 132.295 100.644 132.295 100.599 132.295ZM110.44 128.022C110.282 128.022 110.147 127.934 110.035 127.779C109.945 127.579 110.035 127.336 110.237 127.225L115.192 125.078C115.395 124.989 115.642 125.078 115.755 125.277C115.845 125.476 115.755 125.72 115.552 125.831L110.598 127.978C110.553 128.022 110.508 128.022 110.44 128.022Z" fill="#110580"/>
<path d="M73.3935 144.029L72.2224 141.35C72.1323 141.151 72.2224 140.907 72.4251 140.797C72.6278 140.708 72.8755 140.797 72.9881 140.996L73.8439 142.878L75.7581 142.036C75.9608 141.948 76.2085 142.036 76.3211 142.236C76.4112 142.435 76.3211 142.678 76.1184 142.789L73.3935 144.029Z" fill="#110580"/>
<path d="M70.6016 137.121C70.4439 137.121 70.3088 137.033 70.1962 136.878L68.1694 132.362C68.0793 132.162 68.1694 131.919 68.3721 131.808C68.5747 131.72 68.8225 131.808 68.9351 132.007L70.9619 136.524C71.052 136.723 70.9619 136.966 70.7592 137.077C70.7142 137.077 70.6466 137.121 70.6016 137.121ZM66.5704 128.067C66.4128 128.067 66.2777 127.978 66.1651 127.823L64.1383 123.307C64.0482 123.107 64.1383 122.864 64.3409 122.753C64.5436 122.665 64.7913 122.753 64.9039 122.952L66.9308 127.469C67.0209 127.668 66.9308 127.912 66.7281 128.022C66.7056 128.067 66.6155 128.067 66.5704 128.067ZM62.5618 119.078C62.4042 119.078 62.2691 118.99 62.1565 118.835L60.1296 114.318C60.0396 114.119 60.1296 113.875 60.3323 113.765C60.535 113.676 60.7827 113.765 60.8953 113.964L62.9222 118.48C63.0122 118.68 62.9222 118.923 62.7195 119.034C62.6744 119.078 62.6069 119.078 62.5618 119.078Z" fill="#110580"/>
<path d="M58.5754 110.09C58.4178 110.09 58.2827 110.001 58.1701 109.846L56.999 107.167L59.724 106.016C59.9267 105.928 60.1744 106.016 60.287 106.215C60.3771 106.415 60.287 106.658 60.0843 106.769L58.1701 107.61L59.0258 109.492C59.1159 109.691 59.0258 109.935 58.8232 110.045C58.6655 110.09 58.6205 110.09 58.5754 110.09Z" fill="#110580"/>
<path d="M64.7909 104.71C64.6332 104.71 64.4981 104.621 64.3855 104.466C64.2954 104.267 64.3855 104.024 64.5882 103.913L69.5426 101.765C69.7453 101.677 69.9931 101.765 70.1057 101.965C70.2183 102.164 70.1057 102.407 69.903 102.518L64.9485 104.666C64.9485 104.666 64.8359 104.71 64.7909 104.71ZM74.6548 100.437C74.4971 100.437 74.362 100.349 74.2494 100.194C74.1593 99.9943 74.2494 99.7508 74.4521 99.6401L79.4065 97.4926C79.6092 97.4041 79.8569 97.4926 79.9695 97.6919C80.0596 97.8911 79.9695 98.1347 79.7669 98.2454L74.8124 100.393C74.8124 100.437 74.6998 100.437 74.6548 100.437ZM84.5186 96.2086C84.361 96.2086 84.2259 96.12 84.1133 95.965C84.0232 95.7658 84.1133 95.5223 84.3159 95.4116L89.2704 93.2641C89.4731 93.1755 89.7208 93.2641 89.8334 93.4633C89.9235 93.6626 89.8334 93.9061 89.6307 94.0168L84.6763 96.1643C84.6538 96.2086 84.6087 96.2086 84.5186 96.2086ZM94.4275 91.98C94.2699 91.98 94.1348 91.8915 94.0222 91.7365C93.9321 91.5373 94.0222 91.2937 94.2249 91.183L99.1793 89.0355C99.382 88.947 99.6297 89.0355 99.7423 89.2348C99.8324 89.434 99.7423 89.6776 99.5397 89.7883L94.5852 91.9358C94.5176 91.9358 94.4726 91.98 94.4275 91.98Z" fill="#110580"/>
<path d="M107.625 89.0135C107.467 89.0135 107.332 88.9249 107.219 88.7699L106.364 86.8881L104.449 87.7294C104.247 87.8179 103.999 87.7294 103.886 87.5301C103.774 87.3309 103.886 87.0874 104.089 86.9767L106.814 85.8254L107.985 88.5043C108.075 88.7035 107.985 88.947 107.782 89.0577C107.715 89.0135 107.67 89.0135 107.625 89.0135Z" fill="#110580"/>
<path d="M119.605 116.045C119.448 116.045 119.313 115.957 119.2 115.802L117.173 111.285C117.083 111.086 117.173 110.842 117.376 110.732C117.579 110.643 117.826 110.732 117.939 110.931L119.966 115.447C120.056 115.647 119.966 115.89 119.763 116.001C119.74 116.001 119.65 116.045 119.605 116.045ZM115.597 107.012C115.439 107.012 115.304 106.924 115.191 106.769L113.165 102.253C113.074 102.053 113.165 101.81 113.367 101.699C113.57 101.611 113.818 101.699 113.93 101.898L115.957 106.415C116.047 106.614 115.957 106.857 115.754 106.968C115.709 107.012 115.664 107.012 115.597 107.012ZM111.611 98.0019C111.453 98.0019 111.318 97.9133 111.205 97.7583L109.178 93.242C109.088 93.0427 109.178 92.7992 109.381 92.6885C109.584 92.5999 109.832 92.6885 109.944 92.8878L111.971 97.4041C112.061 97.6034 111.971 97.8469 111.768 97.9576C111.701 98.0019 111.656 98.0019 111.611 98.0019Z" fill="#110580"/>
<path d="M326.206 393.601L323.932 392.76C323.729 392.716 323.684 392.516 323.729 392.317C323.774 392.118 323.977 392.029 324.179 392.118L325.801 392.716L326.409 391.122C326.454 390.922 326.656 390.878 326.859 390.922C327.062 390.967 327.107 391.166 327.062 391.365L326.206 393.601Z" fill="#110580"/>
<path d="M320.441 391.476C320.396 391.476 320.351 391.476 320.351 391.476L316.815 390.192C316.612 390.148 316.567 389.948 316.612 389.749C316.657 389.55 316.86 389.461 317.063 389.55L320.598 390.834C320.801 390.878 320.846 391.077 320.801 391.277C320.733 391.41 320.576 391.476 320.441 391.476ZM313.347 388.886C313.302 388.886 313.257 388.886 313.257 388.886L309.721 387.602C309.518 387.557 309.473 387.358 309.518 387.159C309.563 386.96 309.766 386.915 309.969 386.96L313.504 388.244C313.707 388.288 313.752 388.487 313.707 388.686C313.595 388.775 313.504 388.886 313.347 388.886ZM306.23 386.295C306.185 386.295 306.14 386.295 306.14 386.295L302.605 385.011C302.402 384.967 302.357 384.768 302.402 384.569C302.447 384.369 302.65 384.281 302.852 384.369L306.388 385.653C306.591 385.698 306.636 385.897 306.591 386.096C306.523 386.207 306.366 386.295 306.23 386.295ZM299.091 383.661C299.046 383.661 299.001 383.661 299.001 383.661L295.466 382.377C295.263 382.333 295.218 382.133 295.263 381.934C295.308 381.735 295.511 381.646 295.713 381.735L299.249 383.019C299.452 383.063 299.497 383.262 299.452 383.462C299.407 383.572 299.249 383.661 299.091 383.661Z" fill="#110580"/>
<path d="M292.02 381.071C291.975 381.071 291.93 381.071 291.93 381.071L289.655 380.229L290.511 377.993C290.556 377.794 290.759 377.706 290.961 377.794C291.164 377.838 291.209 378.038 291.164 378.237L290.556 379.831L292.178 380.429C292.38 380.473 292.425 380.672 292.38 380.871C292.268 380.982 292.178 381.071 292.02 381.071Z" fill="#110580"/>
<path d="M292.109 374.916C292.064 374.916 292.019 374.916 292.019 374.916C291.817 374.872 291.772 374.673 291.817 374.473L293.123 370.998C293.168 370.798 293.371 370.71 293.573 370.798C293.776 370.843 293.821 371.042 293.776 371.241L292.47 374.717C292.357 374.805 292.222 374.916 292.109 374.916ZM294.744 367.964C294.699 367.964 294.654 367.964 294.654 367.964C294.452 367.92 294.407 367.721 294.452 367.522L295.758 364.046C295.803 363.847 296.006 363.758 296.208 363.847C296.411 363.891 296.456 364.09 296.411 364.289L295.105 367.765C295.037 367.854 294.902 367.964 294.744 367.964ZM297.379 360.946C297.334 360.946 297.289 360.946 297.289 360.946C297.086 360.902 297.041 360.703 297.086 360.504L298.393 357.028C298.438 356.829 298.64 356.74 298.843 356.829C299.046 356.873 299.091 357.072 299.046 357.271L297.74 360.747C297.672 360.858 297.514 360.946 297.379 360.946ZM300.059 353.951C300.014 353.951 299.969 353.951 299.969 353.951C299.766 353.906 299.721 353.707 299.766 353.508L301.073 350.032C301.118 349.833 301.32 349.744 301.523 349.833C301.726 349.877 301.771 350.076 301.726 350.275L300.419 353.751C300.307 353.884 300.194 353.951 300.059 353.951Z" fill="#110580"/>
<path d="M302.694 346.977C302.649 346.977 302.604 346.977 302.604 346.977C302.402 346.932 302.357 346.733 302.402 346.534L303.257 344.298L305.532 345.139C305.735 345.183 305.78 345.383 305.735 345.582C305.69 345.781 305.487 345.825 305.284 345.781L303.663 345.183L303.055 346.777C302.987 346.888 302.83 346.977 302.694 346.977Z" fill="#110580"/>
<path d="M333.84 356.187C333.795 356.187 333.75 356.187 333.75 356.187L330.214 354.903C330.012 354.858 329.967 354.659 330.012 354.46C330.057 354.261 330.259 354.172 330.462 354.261L333.998 355.545C334.2 355.589 334.245 355.788 334.2 355.987C334.133 356.076 333.975 356.187 333.84 356.187ZM326.701 353.596C326.656 353.596 326.611 353.596 326.611 353.596L323.075 352.312C322.873 352.268 322.828 352.069 322.873 351.87C322.918 351.67 323.12 351.626 323.323 351.67L326.859 352.954C327.062 352.999 327.107 353.198 327.062 353.397C326.994 353.486 326.859 353.596 326.701 353.596ZM319.63 350.962C319.585 350.962 319.54 350.962 319.54 350.962L316.004 349.678C315.801 349.633 315.756 349.434 315.801 349.235C315.846 349.036 316.049 348.947 316.252 349.036L319.787 350.32C319.99 350.364 320.035 350.563 319.99 350.763C319.878 350.851 319.765 350.962 319.63 350.962ZM312.491 348.372C312.446 348.372 312.401 348.372 312.401 348.372L308.865 347.087C308.662 347.043 308.617 346.844 308.662 346.645C308.707 346.445 308.91 346.357 309.113 346.445L312.649 347.73C312.851 347.774 312.896 347.973 312.851 348.172C312.806 348.283 312.649 348.372 312.491 348.372Z" fill="#110580"/>
<path d="M338.637 360.105C338.592 360.105 338.547 360.105 338.547 360.105C338.344 360.061 338.299 359.862 338.344 359.662L338.952 358.068L337.331 357.471C337.128 357.426 337.083 357.227 337.128 357.028C337.173 356.829 337.376 356.74 337.579 356.829L339.853 357.67L338.997 359.906C338.885 360.061 338.795 360.105 338.637 360.105Z" fill="#110580"/>
<path d="M328.007 388.089C327.962 388.089 327.917 388.089 327.917 388.089C327.714 388.045 327.669 387.845 327.714 387.646L329.02 384.17C329.065 383.971 329.268 383.883 329.471 383.971C329.673 384.015 329.719 384.215 329.673 384.414L328.367 387.89C328.322 387.978 328.165 388.089 328.007 388.089ZM330.642 381.071C330.597 381.071 330.552 381.071 330.552 381.071C330.349 381.027 330.304 380.827 330.349 380.628L331.655 377.152C331.7 376.953 331.903 376.864 332.106 376.953C332.308 376.997 332.353 377.197 332.308 377.396L331.002 380.872C330.957 381.027 330.799 381.071 330.642 381.071ZM333.322 374.119C333.277 374.119 333.232 374.119 333.232 374.119C333.029 374.075 332.984 373.876 333.029 373.676L334.335 370.201C334.38 370.001 334.583 369.913 334.786 370.001C334.988 370.046 335.033 370.245 334.988 370.444L333.682 373.92C333.569 374.031 333.479 374.119 333.322 374.119ZM335.957 367.101C335.912 367.101 335.867 367.101 335.867 367.101C335.664 367.057 335.619 366.858 335.664 366.658L336.97 363.183C337.015 362.983 337.218 362.895 337.42 362.983C337.623 363.028 337.668 363.227 337.623 363.426L336.317 366.902C336.249 367.013 336.114 367.101 335.957 367.101Z" fill="#110580"/>
<path d="M229.526 227.692C229.526 227.692 220.585 199.708 217.59 187.886C212.929 169.644 200.295 158.663 182.459 158.663C164.352 158.663 151.606 169.843 146.606 187.997C141.494 206.682 134.783 226.231 134.783 226.231C133.973 228.71 135.234 231.345 137.666 232.341C143.431 234.577 155.457 238.562 182.414 238.252C206.488 237.964 218.919 234.621 225.18 233.979C228.31 233.603 230.337 230.614 229.526 227.692Z" fill="#110580"/>
<path d="M192.706 218.836H172.122V253.285C172.122 256.163 174.509 258.509 177.437 258.509H187.391C190.318 258.509 192.706 256.163 192.706 253.285V218.836V218.836Z" fill="#FCB58A"/>
<path d="M182.144 155.962C189.234 155.962 194.981 150.312 194.981 143.343C194.981 136.373 189.234 130.723 182.144 130.723C175.055 130.723 169.308 136.373 169.308 143.343C169.308 150.312 175.055 155.962 182.144 155.962Z" fill="#110580"/>
<path d="M151.899 222.91C148.566 222.91 148.453 211.885 148.453 210.623C148.453 209.361 148.543 198.336 151.899 198.336C155.232 198.336 155.344 209.361 155.344 210.623C155.299 211.885 155.187 222.91 151.899 222.91ZM151.899 200.24C151.291 201.037 150.322 204.557 150.322 210.579C150.322 216.6 151.291 220.12 151.899 220.917C152.507 220.12 153.475 216.6 153.475 210.579C153.475 204.579 152.507 201.103 151.899 200.24Z" fill="white"/>
<path d="M212.321 222.91C208.988 222.91 208.875 211.885 208.875 210.623C208.875 209.361 208.965 198.336 212.321 198.336C215.654 198.336 215.766 209.361 215.766 210.623C215.721 211.885 215.609 222.91 212.321 222.91ZM212.321 200.24C211.713 201.037 210.744 204.557 210.744 210.579C210.744 216.6 211.713 220.12 212.321 220.917C212.929 220.12 213.897 216.6 213.897 210.579C213.897 204.579 212.929 201.103 212.321 200.24Z" fill="white"/>
<path d="M182.436 226.341C201.23 226.341 216.464 211.365 216.464 192.889C216.464 174.414 201.23 159.438 182.436 159.438C163.643 159.438 148.408 174.414 148.408 192.889C148.408 211.365 163.643 226.341 182.436 226.341Z" fill="#FCB58A"/>
<path d="M147.71 195.325C147.755 195.878 147.8 196.41 147.868 196.919C147.868 196.963 147.868 197.074 147.868 197.118C147.913 197.716 148.026 198.269 148.116 198.867V198.911C148.206 199.509 148.363 200.107 148.476 200.749C150.751 191.495 159.196 184.698 169.307 184.698C170.568 184.698 171.784 184.787 173.001 184.986C173.901 185.185 174.825 185.274 175.771 185.274C182.099 185.274 187.346 180.558 187.999 174.492C187.999 174.492 188.044 174.492 188.044 174.448C187.954 175.09 187.886 175.732 187.886 176.396C187.886 183.503 193.742 189.259 200.971 189.259H201.016C208.087 190.654 213.762 195.812 215.834 202.52C216.285 201.037 216.6 199.487 216.848 197.937C216.848 197.893 216.848 197.849 216.848 197.738C216.938 197.096 217.005 196.454 217.05 195.746C217.05 195.591 217.095 195.391 217.095 195.259C217.14 194.506 217.185 193.775 217.185 193.022C217.185 192.38 217.185 191.783 217.14 191.185C217.14 190.986 217.095 190.831 217.095 190.631C217.05 190.189 217.05 189.746 217.005 189.347C217.005 189.148 216.96 188.949 216.915 188.75C216.87 188.351 216.825 187.908 216.757 187.51C216.712 187.311 216.712 187.111 216.667 186.912C216.577 186.514 216.51 186.071 216.42 185.672C216.375 185.473 216.33 185.318 216.33 185.119C216.24 184.676 216.127 184.278 215.969 183.835C215.924 183.68 215.879 183.547 215.812 183.392C215.654 182.949 215.519 182.506 215.361 182.042C215.316 181.953 215.271 181.798 215.271 181.687C215.114 181.2 214.911 180.691 214.708 180.248C214.663 180.204 214.663 180.093 214.618 180.049C214.415 179.496 214.168 178.964 213.92 178.411C210.947 172.145 206.038 166.876 199.957 163.401C198.043 162.316 196.016 161.364 193.899 160.677C193.854 160.677 193.742 160.633 193.697 160.633C193.089 160.434 192.481 160.235 191.828 160.08C191.737 160.035 191.625 160.035 191.535 159.991C190.161 159.637 188.765 159.349 187.346 159.15C187.143 159.106 186.986 159.106 186.783 159.106C186.22 159.061 185.725 159.017 185.162 158.951C184.959 158.951 184.756 158.906 184.553 158.906C183.855 158.862 183.135 158.862 182.369 158.862C163.159 158.862 147.575 174.182 147.575 193.067C147.575 193.709 147.575 194.307 147.62 194.949C147.71 195.126 147.71 195.236 147.71 195.325Z" fill="#110580"/>
<path d="M215.608 248.525C206.961 243.455 197.052 241.706 192.705 241.064C191.332 246.621 188.449 249.72 182.098 249.72C175.635 249.72 173.405 246.532 172.189 240.82C170.883 240.865 166.875 241.662 165.974 241.861C154.241 244.097 149.489 247.086 143.566 251.403C134.513 258.067 125.663 271.881 123.748 275.003C123.501 275.401 123.501 275.888 123.748 276.287C124.807 277.881 127.734 281.999 131.946 284.678C137.801 288.508 144.782 290.589 144.782 290.589C144.782 290.589 147.62 285.519 148.431 283.571C149.534 281.025 152.484 272.479 152.484 272.479C152.484 272.479 149.804 278.191 149.602 284.102C149.444 289.526 151.313 295.636 151.178 299.223C150.773 307.414 148.295 314.477 147.44 317.665C147.237 318.417 147.687 319.214 148.498 319.347C153.002 320.343 166.447 323.332 180.094 323.266C197.84 323.266 210.023 321.384 214.325 320.72C215.136 320.565 215.631 319.834 215.428 319.037C214.73 316.248 213.514 311.488 212.298 300.839C211.33 292.493 212.343 290.899 212.298 285.032C212.298 280.715 210.474 272.058 210.474 272.058L212.185 288.552C212.185 288.552 218.401 288.84 227.296 285.032C230.382 283.681 234.278 280.25 235.899 278.722C236.35 278.279 236.507 277.571 236.192 277.04C233.963 272.523 224.121 253.484 215.608 248.525Z" fill="white"/>
<path d="M182.436 226.341C178.856 226.341 175.41 225.788 172.167 224.792V231.057C175.41 232.053 178.946 232.098 182.594 231.743C187.391 231.301 189.463 230.393 192.705 229.02V224.792C189.485 225.788 186.039 226.341 182.436 226.341Z" fill="#E3996D"/>
<path d="M153.228 320.499C153.228 320.499 170.005 323.288 181.738 323.288C194.17 323.288 209.551 321.539 209.551 321.539C209.551 321.539 210.925 330.24 211.465 332.121C212.028 334.003 201.309 337.789 182.189 337.391C157.169 336.948 151.201 333.406 151.201 332.409C151.156 331.723 153.228 320.499 153.228 320.499Z" fill="#FCB58A"/>
<path d="M217.591 337.833C233.107 368.164 240.404 387.181 244.548 427.851C248.038 462.055 243.647 507.728 242.926 533.83C242.926 534.627 242.723 535.424 242.273 536.11C241.012 538.103 232.927 539.741 230.698 539.896C219.483 540.649 209.056 539.055 208.042 535.18C202.277 512.222 197.773 488.002 194.598 464.004C191.963 444.123 188.832 421.962 187.053 405.601C186.896 404.25 184.869 404.206 184.734 405.601C184.441 408.324 184.081 423.6 183.675 428.116C182.572 440.935 180.387 453.576 178.27 466.284C174.937 486.475 166.988 514.945 160.975 534.14C160.569 535.424 159.196 537.217 157.687 537.461C155.007 537.859 148.589 538.413 145.188 538.147C140.189 537.748 129.672 536.309 129.109 533.874C121.519 502.813 121.272 442.905 132.239 380.628C134.874 365.817 140.932 349.257 146.494 339.317C146.494 339.317 164.443 342.793 180.928 342.748C200.791 342.66 217.591 337.833 217.591 337.833Z" fill="#FFADB2"/>
<path d="M79.294 153.682L56.9989 146.619C55.6927 146.176 54.927 144.782 55.3324 143.431L60.0391 129.107C60.4895 127.823 61.9083 127.07 63.282 127.469L85.5771 134.531C86.8833 134.974 87.649 136.369 87.2436 137.719L82.5369 152.043C82.0865 153.372 80.6227 154.124 79.294 153.682Z" fill="#AAACE3"/>
<path d="M89.6763 141.704C88.7754 141.704 87.9647 142.302 87.6945 143.143L86.8837 145.534L86.073 147.925C85.8253 148.767 86.073 149.719 86.8387 150.206L92.8516 154.678C94.0227 155.563 95.7342 155.032 96.1396 153.637L97.716 148.922L99.2924 144.206C99.7428 142.811 98.6844 141.417 97.2206 141.483L89.6763 141.704Z" fill="#AAACE3"/>
<path d="M151.156 332.476C151.156 332.476 149.174 332.919 148.025 334.911C146.877 336.904 146.562 339.295 146.562 339.295C146.562 339.295 159.556 343.08 184.125 343.722C207.929 344.32 217.59 337.856 217.59 337.856C217.59 337.856 216.735 335.221 214.708 334.07C212.681 332.919 211.375 332.122 211.375 332.122C211.375 332.122 203.943 338.63 181.243 337.036C158.587 335.398 151.156 332.476 151.156 332.476Z" fill="#FFADB2"/>
<path d="M47.7485 188.747L39.9775 189.305L43.4111 235.561L51.1821 235.003L47.7485 188.747Z" fill="#DADAED"/>
<path d="M43.077 195.312L40.4043 195.504L40.4453 196.056L43.1179 195.864L43.077 195.312Z" fill="#989BD7"/>
<path d="M43.4832 200.492L40.8105 200.684L40.8515 201.236L43.5242 201.044L43.4832 200.492Z" fill="#989BD7"/>
<path d="M43.8875 205.65L41.2148 205.842L41.2558 206.394L43.9285 206.202L43.8875 205.65Z" fill="#989BD7"/>
<path d="M44.2264 210.831L41.5537 211.023L41.5947 211.575L44.2674 211.383L44.2264 210.831Z" fill="#989BD7"/>
<path d="M44.6326 216.056L41.96 216.248L42.0009 216.8L44.6736 216.608L44.6326 216.056Z" fill="#989BD7"/>
<path d="M44.992 221.214L42.3193 221.406L42.3603 221.957L45.033 221.766L44.992 221.214Z" fill="#989BD7"/>
<path d="M45.3983 226.394L42.7256 226.586L42.7666 227.138L45.4392 226.946L45.3983 226.394Z" fill="#989BD7"/>
<path d="M39.8132 204.672L34.8887 205.519L41.3919 242.046L46.3164 241.199L39.8132 204.672Z" fill="#FFADB2"/>
<path d="M39.8158 204.668L34.8613 205.509L35.6721 198.557L36.6855 198.358L39.8158 204.668Z" fill="#EBDBCD"/>
<path d="M35.9646 201.745L36.6853 201.302L37.2257 201.347L37.9914 200.992L36.6853 198.358L35.6718 198.557L35.3115 201.347L35.9646 201.745Z" fill="#FF7A82"/>
<path d="M51.301 234.4C50.4452 234.245 49.8822 233.448 49.9948 232.607L53.8232 208.21C53.8683 208.011 53.9133 207.811 53.9809 207.612L56.2104 201.458C56.5031 200.771 57.2688 200.306 58.0345 200.461L58.3948 200.506C59.1605 200.661 59.701 201.347 59.701 202.1L59.2056 208.608C59.2056 208.808 59.1605 209.007 59.1155 209.25L53.1927 233.205C52.9674 234.046 52.1567 234.6 51.301 234.4Z" fill="#2B31BA"/>
<path d="M80.3524 251.093H48.1484V261.675H80.3524V251.093Z" fill="#F8D7BC"/>
<path d="M81.726 250.363V251.16H48.1033V261.742H81.726V262.539H12.6113V250.363H81.726Z" fill="#FF7A82"/>
<path d="M38.0364 280.671H85.6217V263.58H38.0364C35.6492 263.58 33.7801 265.461 33.7801 267.764V276.464C33.735 278.789 35.6718 280.671 38.0364 280.671Z" fill="#F8ECE2"/>
<path d="M9.88618 262.539H87.7613C88.054 262.539 88.3243 262.783 88.3243 263.093C88.3243 263.38 88.0766 263.646 87.7613 263.646H78.2127H42.4955C37.6987 263.646 33.8027 267.476 33.8027 272.192C33.8027 276.907 37.6987 280.737 42.4955 280.737H86.5902H87.7613C88.054 280.737 88.3243 280.981 88.3243 281.291C88.3243 281.579 88.0766 281.844 87.7613 281.844H9.88618C5.08937 281.844 1.19336 278.014 1.19336 273.299V271.151C1.19336 266.369 5.06685 262.539 9.88618 262.539Z" fill="#2B31BA"/>
<path d="M85.6219 266.369H40.4688V266.967H85.6219V266.369Z" fill="#EBD0BE"/>
<path d="M85.6217 273.365H37.2256V273.963H85.6217V273.365Z" fill="#EBD0BE"/>
<path d="M85.6217 277.04H43.1484V277.638H85.6217V277.04Z" fill="#EBD0BE"/>
<path d="M85.6667 270.088H38.6895V270.686H85.6667V270.088Z" fill="#EBD0BE"/>
<path d="M48.7109 249.898H19.0742V243.787H48.7109C49.5667 243.787 50.2198 244.429 50.2198 245.271V248.348C50.2198 249.211 49.5667 249.898 48.7109 249.898Z" fill="#F8E7D8"/>
<path d="M67.1099 243.344H17.813C17.723 243.344 17.6104 243.433 17.6104 243.544C17.6104 243.632 17.7004 243.743 17.813 243.743H47.0443C48.7559 243.743 50.1296 245.138 50.1296 246.776C50.1296 248.459 48.7108 249.809 47.0443 249.809H17.813C17.723 249.809 17.6104 249.898 17.6104 250.008C17.6104 250.097 17.7004 250.208 17.813 250.208H67.1099C68.8214 250.208 70.1952 248.813 70.1952 247.175V246.289C70.2402 244.695 68.844 243.344 67.1099 243.344Z" fill="#FF5856"/>
<path d="M36.3699 217.752H58.0119C58.5749 217.752 59.0253 218.239 58.9127 218.792L55.7824 243.344H38.4418L35.4015 218.792C35.3565 218.239 35.8069 217.752 36.3699 217.752Z" fill="#AAACE3"/>
<path d="M58.4173 200.351L58.0569 200.306C57.2462 200.151 56.4805 200.55 56.1878 201.303L53.9132 207.568C53.8682 207.656 53.8682 207.723 53.8682 207.811C54.5663 208.409 55.4896 208.852 56.5481 209.007C57.5165 209.162 58.4173 209.095 59.1829 208.852C59.1829 208.763 59.228 208.697 59.228 208.608L59.7234 201.989C59.791 201.192 59.228 200.55 58.4173 200.351Z" fill="#D7D7E6"/>
<path d="M58.53 190.897C58.7327 190.499 59.3408 190.499 59.5434 190.897C59.9038 191.584 60.3542 192.447 60.7145 193.045C61.3225 194.085 61.6153 196.521 61.3225 197.672C60.9622 199.067 59.9488 200.506 59.656 200.948C59.611 201.037 59.4984 201.103 59.4083 201.148C59.1155 201.236 58.5525 201.347 57.7869 201.192C56.7284 200.948 56.6158 200.24 56.6158 200.24C56.6158 200.24 56.0078 197.96 56.1204 196.565C56.2104 195.17 56.9761 193.377 57.3365 193.089C57.4491 192.845 58.0571 191.761 58.53 190.897Z" fill="#C7645D"/>
<path d="M142.305 546.36C149.377 546.449 153.993 544.279 153.993 544.279C153.993 544.279 156.876 550.301 157.439 553.423C158.002 556.544 159.668 567.149 157.191 569.119C154.511 571.311 155.007 570.713 151.584 572.152C146.787 574.145 144.715 573.193 138.184 576.469C135.752 577.709 125.235 587.295 114.628 588.203C105.687 588.956 103.3 584.727 102.242 582.381C101.183 580.034 103.098 575.517 109.426 570.89C117.105 565.267 124.807 557.231 126.361 555.194C131.113 548.929 133.23 543.172 133.23 543.172C133.23 543.172 135.031 546.205 142.305 546.36Z" fill="#C7645D"/>
<path d="M227.094 547.047C220.022 547.135 215.766 544.855 215.766 544.855C215.766 544.855 212.591 549.438 211.465 555.282C210.902 558.404 209.753 567.813 212.23 569.85C214.91 572.042 214.415 571.444 217.838 572.883C222.635 574.875 224.707 573.923 231.238 577.2C233.67 578.44 244.142 588.137 254.794 588.934C261.257 589.421 266.121 585.458 267.18 583.111C268.238 580.764 268.351 576.004 260.356 570.78C252.362 565.555 242.971 557.253 241.755 554.972C239.885 551.497 236.147 543.792 236.147 543.792C236.147 543.792 234.368 546.892 227.094 547.047Z" fill="#C7645D"/>
<path d="M318.91 205.509C313.843 206.859 308.641 203.915 307.289 199L304.857 190.255C303.483 185.274 306.479 180.16 311.478 178.831C316.545 177.481 321.747 180.425 323.099 185.34L325.531 194.085C326.905 199 323.977 204.136 318.91 205.509Z" fill="#AAACE3"/>
<path d="M320.374 210.888C312.086 213.124 303.529 208.298 301.254 200.151L300.961 199.066C300.714 198.114 301.254 197.118 302.222 196.874C303.191 196.631 304.204 197.162 304.452 198.114L304.745 199.199C306.456 205.42 313.032 209.139 319.405 207.39C325.734 205.708 329.517 199.243 327.738 192.978L327.445 191.893C327.197 190.941 327.738 189.945 328.706 189.701C329.675 189.458 330.688 189.989 330.936 190.941L331.228 192.026C333.571 200.24 328.684 208.652 320.374 210.888Z" fill="#AAACE3"/>
<path d="M331.251 213.213C332.152 212.97 332.467 211.929 331.859 211.221C328.887 207.9 324.112 206.306 319.518 207.546C314.857 208.785 311.636 212.527 310.78 216.888C310.623 217.774 311.434 218.527 312.357 218.327L331.251 213.213Z" fill="#AAACE3"/>
<path d="M272.945 257.558C274.769 253.772 279.769 250.539 283.552 250.849C287.336 251.137 286.142 251.248 287.336 251.137C288.552 251.049 290.421 249.787 292.943 250.539C295.781 251.381 301.749 254.458 301.839 261.321C301.929 267.188 297.582 273.896 289.7 275.446C281.818 276.996 276.503 274.095 274.116 270.775C271.436 266.944 271.189 261.188 272.945 257.558Z" fill="#FF5856"/>
<path d="M285.241 255.72C285.241 255.72 284.633 246.931 288.281 243.189C292.335 239.071 297.627 235.197 297.222 237.721C297.132 238.319 297.988 246.82 295.555 250.008C291.862 254.879 285.241 255.72 285.241 255.72Z" fill="#4C7378"/>
<path d="M284.272 255.366C284.272 255.366 283.574 251.58 282.899 249.455C281.48 245.071 280.579 242.99 280.579 242.99L284.52 242.149C284.52 242.149 285.984 247.307 286.232 249.3C286.727 252.82 286.434 255.166 286.434 255.166C286.434 255.166 285.939 255.963 285.218 255.853C284.43 255.875 284.272 255.366 284.272 255.366Z" fill="#6B4D3A"/>
<path d="M282.731 243.532C283.834 243.343 284.654 242.77 284.562 242.253C284.47 241.735 283.502 241.468 282.399 241.656C281.296 241.845 280.477 242.418 280.568 242.936C280.66 243.454 281.629 243.721 282.731 243.532Z" fill="#8A634B"/>
<path d="M358.905 281.711H266.888C266.077 281.711 265.424 281.069 265.424 280.272V276.686C265.424 275.889 266.077 275.247 266.888 275.247H358.86C359.671 275.247 360.324 275.889 360.324 276.686V280.272C360.324 281.069 359.671 281.711 358.905 281.711Z" fill="#C5C6E3"/>
<path d="M312.198 274.206H292.064V267.254H312.198C312.761 267.254 313.166 267.697 313.166 268.206V273.232C313.211 273.763 312.738 274.206 312.198 274.206Z" fill="#F8D0B3"/>
<path d="M348.433 266.169H308.482H290.961H290.398C290.105 266.169 289.835 266.413 289.835 266.723C289.835 267.011 290.083 267.276 290.398 267.276H292.064H311.184C312.288 267.276 313.166 268.162 313.166 269.225V272.302C313.166 273.387 312.265 274.25 311.184 274.25H306.838H290.556C290.263 274.25 289.993 274.494 289.993 274.804C289.993 275.091 290.24 275.357 290.556 275.357H290.961H308.617H348.455C349.559 275.357 350.437 274.472 350.437 273.409V268.184C350.414 267.011 349.559 266.169 348.433 266.169Z" fill="#FF7A82"/>
<path d="M321.994 265.66H289.475V258.952H321.994C322.962 258.952 323.705 259.705 323.705 260.635V263.956C323.705 264.908 322.962 265.66 321.994 265.66Z" fill="#F8E7D8"/>
<path d="M342.33 258.465H288.079C287.921 258.465 287.831 258.554 287.831 258.709C287.831 258.864 287.921 258.952 288.079 258.952H320.238C322.107 258.952 323.683 260.435 323.683 262.339C323.683 264.177 322.174 265.727 320.238 265.727H288.079C287.921 265.727 287.831 265.815 287.831 265.97C287.831 266.125 287.921 266.214 288.079 266.214H342.285C344.154 266.214 345.731 264.73 345.731 262.826V261.83C345.708 259.948 344.199 258.465 342.33 258.465Z" fill="#4E53BA"/>
<path d="M314.202 263.668H289.43V263.38H314.202C314.292 263.38 314.36 263.424 314.36 263.535C314.405 263.623 314.315 263.668 314.202 263.668Z" fill="#DEBCA7"/>
<path d="M319.922 261.476H289.475V261.188H319.922C320.012 261.188 320.08 261.233 320.08 261.343C320.08 261.387 320.035 261.476 319.922 261.476Z" fill="#DEBCA7"/>
<path d="M275.219 159.814C276.241 157.856 272.863 154.146 267.673 151.527C262.483 148.909 257.447 148.374 256.425 150.332C255.403 152.29 258.781 156 263.971 158.618C269.161 161.237 274.197 161.772 275.219 159.814Z" fill="#D4BFA9"/>
<path d="M258.285 147.106C260.199 143.675 261.821 140.155 262.587 136.325C264.253 128.067 261.978 118.48 267.338 111.972C271.189 107.256 278.058 105.817 284.116 106.658C291.548 107.699 298.619 111.972 302.02 118.547C305.398 125.1 304.542 133.867 299.182 138.981C294.678 143.298 287.967 144.693 283.26 148.767C280.625 151.047 278.756 154.08 276.797 156.958L276.144 157.844C261.776 156.316 258.285 147.106 258.285 147.106Z" fill="#EBDBCD"/>
<path d="M283.665 134.332C283.057 132.14 281.143 132.251 279.409 132.982C279.004 131.786 278.351 130.258 277.089 129.749C275.671 129.196 274.049 130.148 272.946 130.989C270.513 132.827 268.644 135.505 267.541 138.295C266.437 141.084 265.874 144.051 264.861 146.885C264.456 148.036 266.325 148.523 266.73 147.372C267.991 143.785 268.509 139.867 270.513 136.59C271.617 134.753 273.238 132.605 275.31 131.764C275.963 131.476 276.414 131.41 276.887 132.052C277.247 132.539 277.495 133.136 277.652 133.69C277.652 133.734 277.697 133.779 277.697 133.845C277.45 134 277.247 134.133 277.044 134.288C275.063 135.727 272.45 138.317 272.495 140.952C272.495 142.147 273.261 143.143 274.522 143.232C275.896 143.32 277.247 142.28 278.103 141.284C279.724 139.446 280.22 137.055 279.882 134.731C280.332 134.487 280.738 134.332 281.143 134.288C282.359 134.199 281.796 136.125 281.638 136.767C281.03 138.915 279.769 140.797 278.553 142.634C277.652 144.029 276.842 145.512 275.716 146.752C274.5 148.147 272.878 149.099 271.369 150.073C270.311 150.715 271.279 152.353 272.338 151.711C274.162 150.56 276.031 149.431 277.405 147.793C278.869 146.044 280.085 144.073 281.256 142.125C282.517 140.066 284.386 136.878 283.665 134.332ZM277.9 137.564C277.652 138.561 277.202 139.513 276.481 140.243C276.076 140.686 274.207 142.191 274.364 140.797C274.455 139.955 275.13 139.048 275.626 138.361C276.279 137.476 277.134 136.679 278.058 135.97C278.058 136.479 278.058 137.033 277.9 137.564Z" fill="#BFA990"/>
<path d="M263.96 158.641C259.254 156.294 256.078 153.017 256.213 150.98L253.826 159.238C253.016 160.832 255.741 163.821 259.952 165.946C264.141 168.094 268.239 168.537 269.05 166.943C269.095 166.854 269.095 166.788 269.14 166.699L274.748 160.39C273.216 161.674 268.667 161.032 263.96 158.641Z" fill="#BFA990"/>
<path d="M211.713 95.2788C211.668 95.2788 211.623 95.2788 211.555 95.2346C211.352 95.146 211.262 94.8803 211.352 94.6811C211.713 93.8841 212.118 93.1314 212.658 92.4451C212.816 92.2458 213.064 92.2015 213.267 92.3565C213.469 92.5115 213.514 92.755 213.357 92.9542C212.861 93.5963 212.456 94.3047 212.141 95.0353C212.073 95.1681 211.915 95.2788 211.713 95.2788Z" fill="#110580"/>
<path d="M280.039 120.871C279.994 120.871 279.949 120.871 279.881 120.827L279.273 120.628C277.899 120.141 276.503 119.587 274.972 118.99C274.769 118.901 274.679 118.635 274.724 118.436C274.814 118.237 275.084 118.148 275.287 118.193C276.751 118.79 278.17 119.344 279.543 119.831L280.151 120.03C280.354 120.119 280.512 120.384 280.399 120.584C280.377 120.761 280.241 120.871 280.039 120.871ZM270.423 116.886C270.378 116.886 270.265 116.886 270.22 116.842C268.553 116.001 267.09 115.093 265.671 114.163C265.468 114.008 265.423 113.765 265.581 113.566C265.738 113.366 265.986 113.322 266.189 113.477C267.563 114.429 268.959 115.27 270.648 116.067C270.85 116.156 270.941 116.422 270.85 116.621C270.738 116.798 270.58 116.886 270.423 116.886ZM261.932 110.975C261.842 110.975 261.73 110.931 261.64 110.82C260.379 109.581 259.253 108.186 258.307 106.747C258.149 106.548 258.262 106.304 258.464 106.149C258.667 105.994 258.915 106.105 259.072 106.304C259.973 107.699 261.054 108.983 262.315 110.223C262.473 110.378 262.473 110.665 262.315 110.82C262.135 110.931 262.023 110.975 261.932 110.975ZM256.325 102.385C256.167 102.385 255.965 102.297 255.92 102.098C255.311 100.459 254.861 98.7768 254.613 97.0278C254.568 96.7843 254.771 96.585 254.974 96.5407C255.221 96.4965 255.424 96.6957 255.469 96.895C255.717 98.5333 256.122 100.172 256.73 101.766C256.82 101.965 256.685 102.208 256.483 102.319C256.415 102.385 256.37 102.385 256.325 102.385ZM259.14 96.9614C258.172 96.9614 257.226 96.9171 256.257 96.7621C256.01 96.7179 255.852 96.5186 255.897 96.2751C255.942 96.0315 256.145 95.8766 256.392 95.9209C257.293 96.0758 258.262 96.1201 259.162 96.1201C259.973 96.1201 260.739 96.0758 261.482 95.9651C261.73 95.9209 261.932 96.1201 261.978 96.3194C262.023 96.5186 261.82 96.7621 261.617 96.8064C260.761 96.9171 259.951 96.9614 259.14 96.9614ZM251.258 95.4781C251.213 95.4781 251.168 95.4781 251.1 95.4781C249.636 94.991 248.173 94.3268 246.236 93.4856C246.033 93.397 245.943 93.1313 246.033 92.9321C246.123 92.7328 246.393 92.6443 246.596 92.7328C248.465 93.5741 249.929 94.2162 251.393 94.7253C251.596 94.8139 251.753 95.0132 251.641 95.2788C251.618 95.3674 251.415 95.4781 251.258 95.4781ZM266.482 95.2788C266.324 95.2788 266.189 95.1903 266.121 95.0796C266.031 94.8803 266.076 94.6368 266.279 94.4818C267.09 94.039 267.788 93.5298 268.463 92.9321C269.026 92.445 269.522 91.8473 269.927 91.1388C270.017 90.9396 270.333 90.8953 270.535 90.9839C270.738 91.0724 270.783 91.3824 270.693 91.5816C270.242 92.3343 269.679 92.9764 269.071 93.5298C268.373 94.1719 267.608 94.7253 266.752 95.1681C266.639 95.2788 266.527 95.2788 266.482 95.2788ZM254.951 92.2901C254.658 92.2458 254.501 92.0465 254.546 91.8473C254.748 90.0097 255.244 88.3272 256.01 86.7775C256.1 86.5782 256.37 86.4897 256.573 86.5782C256.775 86.6668 256.865 86.9324 256.775 87.1317C256.077 88.5707 255.559 90.1647 255.357 91.9137C255.357 92.1351 255.154 92.2901 254.951 92.2901ZM241.709 91.2938C241.664 91.2938 241.619 91.2938 241.507 91.2495C240.944 91.006 240.403 90.7625 239.84 90.4968C238.737 90.0097 237.723 89.6112 236.755 89.2127C236.552 89.1242 236.394 88.8585 236.507 88.6593C236.597 88.46 236.867 88.305 237.07 88.4157C238.083 88.8142 239.097 89.2127 240.2 89.6998C240.763 89.9433 241.304 90.1869 241.867 90.4525C242.07 90.5411 242.16 90.8067 242.07 91.006C242.002 91.2053 241.867 91.2938 241.709 91.2938ZM216.779 89.6555C216.622 89.6555 216.487 89.6112 216.419 89.4563C216.261 89.257 216.374 89.0135 216.577 88.8585C218.04 87.9065 219.707 87.2202 221.486 86.7775C221.734 86.7332 221.936 86.866 221.981 87.0653C222.027 87.3088 221.891 87.508 221.689 87.5523C220.022 87.9951 218.446 88.6371 217.027 89.5448C216.982 89.6555 216.869 89.6555 216.779 89.6555ZM231.958 87.7073C231.913 87.7073 231.913 87.7073 231.868 87.7073C230.089 87.3088 228.377 87.1095 226.756 87.0653C226.508 87.0653 226.35 86.866 226.35 86.6225C226.35 86.379 226.553 86.224 226.756 86.224C228.422 86.2683 230.201 86.4675 232.003 86.866C232.251 86.9103 232.363 87.1538 232.296 87.3531C232.296 87.6187 232.138 87.7073 231.958 87.7073ZM271.594 86.9103C271.346 86.9103 271.188 86.711 271.188 86.5118C271.143 85.0728 270.58 83.833 269.724 82.9253C269.522 82.726 269.319 82.5268 269.116 82.3718C268.914 82.2168 268.914 81.9733 269.026 81.774C269.184 81.5748 269.432 81.5748 269.634 81.6855C269.882 81.8847 270.13 82.084 270.333 82.3275C271.391 83.4123 271.999 84.8071 272.044 86.4454C272.044 86.711 271.841 86.9103 271.594 86.9103C271.594 86.9103 271.639 86.9103 271.594 86.9103ZM259.613 83.3902C259.455 83.3902 259.365 83.3459 259.253 83.2352C259.095 83.036 259.162 82.7924 259.343 82.6375C260.806 81.5527 262.586 80.7999 264.297 80.5564C264.545 80.5121 264.747 80.7114 264.793 80.9106C264.838 81.1542 264.635 81.3534 264.432 81.3977C262.811 81.5969 261.189 82.2832 259.883 83.3459C259.816 83.3902 259.703 83.3902 259.613 83.3902Z" fill="#110580"/>
<path d="M287.02 124.192C286.93 124.192 286.817 124.148 286.727 124.104C286.277 123.705 285.624 123.263 284.7 122.82C284.498 122.731 284.408 122.466 284.498 122.266C284.588 122.067 284.858 121.978 285.061 122.067C286.029 122.554 286.727 123.019 287.29 123.462C287.448 123.617 287.493 123.905 287.335 124.06C287.268 124.148 287.11 124.192 287.02 124.192Z" fill="#110580"/>
<path d="M283.215 70.7712C286.052 80.2245 285.805 88.9694 285.534 98.6663C285.489 101.345 294.385 100.504 294.993 98.1792C297.38 88.8366 295.691 78.7412 292.673 69.7528C291.705 66.7861 282.449 68.2252 283.215 70.7712Z" fill="#F3E9E1"/>
<path d="M321.184 89.3456C316.883 96.9614 311.478 103.271 305.96 109.935C303.528 112.857 312.018 112.37 313.595 110.975C320.373 105.109 325.621 97.2049 329.674 89.3456C330.89 87.0653 322.445 87.0653 321.184 89.3456Z" fill="#F3E9E1"/>
<path d="M319.675 128.974C325.733 129.129 331.814 129.417 337.827 129.771C340.011 129.926 343.389 129.085 344.042 126.694C344.695 124.303 341.813 123.019 339.899 122.908C333.841 122.554 327.805 122.311 321.747 122.111C319.563 122.067 316.23 122.753 315.532 125.189C314.879 127.58 317.694 128.93 319.675 128.974Z" fill="#F3E9E1"/>
<path d="M210.812 271.926C210.812 271.926 212.119 279.276 212.231 282.862C212.276 285.054 212.231 288.53 212.231 288.53C212.231 288.53 213.898 288.53 214.754 288.441C215.609 288.397 216.623 288.198 216.623 288.198C216.623 288.198 215.609 284.921 214.551 281.645C213.537 278.745 210.812 271.926 210.812 271.926Z" fill="#E0E0E0"/>
<path d="M152.71 271.527C152.71 271.527 150.886 276.641 150.075 279.918C149.467 282.397 149.715 284.589 149.58 285.187C149.377 286.227 148.319 289.105 147.801 290.456C147.643 290.854 147.193 291.098 146.787 291.009C146.089 290.854 145.008 290.611 144.197 290.367C142.891 289.969 141.968 289.57 142.171 289.681C142.171 289.681 145.008 285.696 147.035 282.331C148.769 279.431 152.71 271.527 152.71 271.527Z" fill="#E0E0E0"/>
<path d="M211.871 339.073C223.356 361.433 230.382 385.786 234.166 410.493C238.219 436.64 238.557 463.228 237.296 489.618C236.598 504.872 235.269 520.081 233.805 535.291C233.648 537.04 236.395 536.973 236.53 535.291C239.165 507.994 241.237 480.608 240.517 453.222C239.863 427.629 236.778 401.97 229.752 377.329C225.856 363.714 220.699 350.386 214.235 337.723C213.447 336.195 211.06 337.546 211.871 339.073Z" fill="white"/>
<path d="M149.287 339.627C139.265 362.341 133.703 386.605 130.685 411.113C127.555 436.307 126.789 461.856 127.104 487.205C127.307 502.259 128.073 517.27 129.829 532.236C130.032 533.918 132.757 533.985 132.554 532.236C129.469 506.09 129.311 479.7 130.28 453.399C131.136 428.891 133.253 404.295 138.815 380.274C141.9 366.858 146.089 353.574 151.652 340.955C152.305 339.427 149.985 338.033 149.287 339.627Z" fill="white"/>
<path d="M87.6941 280.671H86.5231H82.7397C82.492 281.069 82.1767 281.423 81.8389 281.711H87.6491C87.9419 281.711 88.2121 281.468 88.2121 281.158C88.2571 280.914 88.0094 280.671 87.6941 280.671Z" fill="#2B31BA"/>
<path d="M87.694 263.579C87.9867 263.579 88.257 263.336 88.257 263.026C88.257 262.738 88.0093 262.472 87.694 262.472H83.7529V263.513L87.694 263.579Z" fill="#2B31BA"/>
<path d="M80.5544 283.615C78.2349 283.128 75.8927 282.464 73.6182 281.733H23.9385V281.888C23.9385 283.04 24.3438 284.08 25.042 285.076H77.6718C78.7528 285.054 79.6987 284.545 80.5544 283.615Z" fill="#E3996D"/>
<path d="M274.274 283.549C275.13 284.501 276.144 285.032 277.202 285.032H332.309C332.557 284.39 332.714 283.748 332.669 282.995V281.711H280.985C278.778 282.42 276.549 283.062 274.274 283.549Z" fill="#E3996D"/>
<path d="M181.739 323.266C170.006 323.266 153.228 320.477 153.228 320.477C153.228 320.477 152.98 321.761 152.665 323.51C160.254 325.856 170.524 327.03 181.784 326.631C192.391 326.233 202.007 324.395 209.281 321.761C209.371 321.716 209.439 321.672 209.529 321.606C209.529 321.561 209.529 321.517 209.529 321.517C209.529 321.517 194.125 323.31 181.739 323.266Z" fill="#F0A173"/>
</g>
<defs>
<clipPath id="clip0_309_182">
<rect width="360.324" height="520.908" fill="white" transform="translate(0 68.0922)"/>
</clipPath>
</defs>
</svg>
