<svg width="87" height="93" viewBox="0 0 87 93" fill="none" xmlns="http://www.w3.org/2000/svg">
<g clip-path="url(#clip0_40_4695)">
<path d="M59.0599 72.261L24.093 82.3236C23.1346 82.6026 22.132 82.0028 21.8714 80.9844L9.16457 32.0571C8.89957 31.0481 9.46932 29.9925 10.4366 29.7182L45.4035 19.6556C46.362 19.3766 47.3645 19.9764 47.6251 20.9948L60.3275 69.9174C60.5837 70.9357 60.0184 71.982 59.0599 72.261Z" fill="#D6D7F0"/>
<path d="M58.6801 76.3949L25.9613 92.814C25.0558 93.2697 23.9782 92.8652 23.5542 91.9119L2.81779 46.1373C2.38496 45.1841 2.76921 44.0495 3.67463 43.6031L36.3935 27.1839C37.2989 26.7282 38.3766 27.1328 38.8006 28.086L59.5325 73.8606C59.961 74.7999 59.5767 75.9392 58.6801 76.3949Z" fill="#E8E8F7"/>
<path d="M45.5095 2.19945C48.0138 4.9104 49.4139 7.9236 50.9818 11.2669C51.4235 12.2016 54.1088 10.3323 53.9012 9.4395C53.0753 5.84505 50.8316 2.71095 48.3362 0.185995C47.5235 -0.637055 44.847 1.48335 45.5095 2.19945Z" fill="#F3E9E1"/>
<path d="M60.7074 1.86466C60.6279 5.18941 59.9786 8.29096 59.3647 11.5413C59.0909 12.9642 61.7011 11.2949 61.9706 10.5555C63.1321 7.37956 63.459 3.76651 63.4281 0.381311C63.4104 -0.618439 60.7295 0.860261 60.7074 1.86466Z" fill="#F3E9E1"/>
<path d="M66.9438 15.6054C68.8959 14.6057 70.8614 13.6245 72.8401 12.6852C73.5511 12.3504 74.4786 11.4716 74.2799 10.5462C74.0811 9.61155 72.9593 9.69525 72.3189 9.9975C70.3358 10.9415 68.3748 11.9087 66.4226 12.9177C65.7203 13.2804 64.7752 14.1128 64.9828 15.0567C65.1859 15.9681 66.321 15.9263 66.9438 15.6054Z" fill="#F3E9E1"/>
<path d="M53.8075 34.5684C54.1496 33.807 52.8932 32.4258 51.0012 31.4837C49.1092 30.5415 47.2981 30.395 46.956 31.1564C46.6139 31.9179 47.8703 33.299 49.7623 34.2412C51.6543 35.1834 53.4653 35.3299 53.8075 34.5684Z" fill="#D4BFA9"/>
<path d="M47.603 29.8856C48.2523 28.5464 48.7955 27.1653 49.0252 25.6913C49.5199 22.506 48.6012 18.8558 50.443 16.2843C51.7724 14.4336 54.2016 13.7919 56.3834 14.043C59.0467 14.3546 61.6393 15.9123 62.9422 18.3815C64.2363 20.8553 64.0287 24.2172 62.1737 26.2539C60.6146 27.9651 58.2208 28.5789 56.5822 30.2018C55.6635 31.1132 55.0407 32.2896 54.3606 33.4196L54.1353 33.7637C48.9501 33.3824 47.603 29.8856 47.603 29.8856Z" fill="#EBDBCD"/>
<path d="M56.5291 24.6729C56.2818 23.8313 55.6016 23.9057 54.9877 24.2079C54.8199 23.7615 54.5725 23.171 54.1088 23.0036C53.5964 22.8176 53.0223 23.1989 52.6469 23.5244C51.8077 24.2591 51.1673 25.3193 50.8007 26.3981C50.4341 27.4769 50.2795 28.6301 49.9438 29.7228C49.8069 30.1692 50.4783 30.3366 50.6152 29.8902C51.0304 28.4999 51.1584 26.984 51.8474 25.7052C52.2317 24.9984 52.7838 24.1568 53.5037 23.7848C53.7422 23.6685 53.9056 23.6406 54.0735 23.8871C54.2015 24.0824 54.2987 24.3009 54.3694 24.5102C54.3782 24.5288 54.3782 24.552 54.387 24.5706C54.2987 24.6311 54.2192 24.6962 54.153 24.7566C53.4639 25.3286 52.5629 26.3562 52.5939 27.3606C52.6115 27.8163 52.8986 28.193 53.3447 28.2116C53.8394 28.2302 54.312 27.8163 54.6079 27.4304C55.16 26.705 55.3278 25.7796 55.1688 24.8868C55.319 24.7938 55.4824 24.7287 55.6237 24.7101C56.0477 24.659 55.8887 25.4076 55.8225 25.6634C55.6237 26.4864 55.2085 27.2304 54.789 27.9465C54.4754 28.4859 54.1971 29.0672 53.8129 29.5554C53.3889 30.0948 52.8279 30.4901 52.2847 30.876C51.9181 31.1364 52.2847 31.7502 52.6513 31.4898C53.2829 31.0341 53.941 30.5645 54.4091 29.9135C54.9038 29.2299 55.319 28.4394 55.7297 27.6908C56.1846 26.8817 56.8162 25.6494 56.5291 24.6729ZM54.5151 25.9796C54.4445 26.3562 54.281 26.7282 54.0425 27.0258C53.9056 27.1932 53.2608 27.807 53.2917 27.2537C53.3094 26.9189 53.539 26.5701 53.7157 26.3004C53.9498 25.947 54.228 25.6262 54.546 25.3565C54.5549 25.5657 54.546 25.7796 54.5151 25.9796Z" fill="#BFA990"/>
<path d="M49.7583 34.2473C48.0535 33.3963 46.8698 32.2013 46.9051 31.4108H46.8963L46.1455 34.6007C45.8672 35.2145 46.8875 36.3351 48.4156 37.0931C49.9438 37.8603 51.4058 37.9766 51.6884 37.3628C51.7061 37.3302 51.7105 37.3023 51.7193 37.2698L53.6627 34.7774H53.6539C53.0973 35.2935 51.4676 35.0889 49.7583 34.2473Z" fill="#BFA990"/>
<path d="M40.3596 52.0475C39.5028 50.4897 38.3589 49.2761 36.6231 48.9413C35.1612 48.653 33.5977 49.2296 32.3124 49.941C32.2153 49.9922 32.1269 50.0526 32.0386 50.0991C31.9414 49.1459 31.7648 48.2112 31.4865 47.3184C31.0713 45.9885 30.4088 44.4447 29.0485 43.9751C27.7765 43.538 26.3631 44.1843 25.2192 44.7842C22.9093 45.9978 20.9792 48.2531 20.0694 50.7873C19.6233 52.0335 19.6144 53.6238 20.0605 54.87C20.1709 55.1816 20.3388 55.5164 20.5464 55.7442C20.5949 55.8279 20.6347 55.9116 20.6921 55.9953C22.1894 58.4645 23.6601 60.9615 25.0028 63.533C25.1795 64.0305 25.4268 64.6025 25.7404 64.9652C25.7492 64.9838 25.7581 64.9884 25.7625 65.007C26.2483 65.9835 26.7209 66.9693 27.1802 67.9644C26.4382 68.7642 26.2925 70.3406 26.2616 71.3078C26.2306 72.2192 26.2792 73.1957 26.5398 74.0699C26.7386 74.7348 27.0212 75.702 27.6661 76.0322C30.2896 77.39 33.7699 75.4184 35.7663 73.6002C38.4075 71.2101 40.2227 68.0574 41.2121 64.5653C42.303 60.6965 42.3339 55.6466 40.3596 52.0475ZM38.3015 58.8969C38.3015 58.9016 38.3015 58.9016 38.3015 58.8969C38.3015 58.9016 38.3015 58.9016 38.3015 58.8969ZM25.2104 52.4613C26.0098 52.0242 26.8666 51.6848 27.7632 51.5871C28.121 51.5453 28.4346 51.5453 28.7482 51.722C28.7261 51.8568 28.6996 52.0335 28.6907 52.0847C28.6687 52.1777 28.651 52.2614 28.6422 52.2846C28.6245 52.359 28.6201 52.4195 28.6112 52.452C28.5538 52.6287 28.5008 52.7961 28.4346 52.9728C28.4257 52.9961 28.4125 53.024 28.4037 53.0472C27.4541 54.0749 26.6061 55.2095 25.8906 56.3999C25.2501 55.3536 24.5788 54.3353 23.8765 53.3448C24.2917 53.0286 24.7246 52.731 25.2104 52.4613ZM37.6964 60.8081C37.3784 61.5893 36.2256 63.3191 35.3909 64.2119C34.4854 65.1791 33.2223 66.123 31.9679 66.7229C31.7913 66.8066 31.6102 66.8763 31.4335 66.9321C30.8108 65.3418 30.0511 63.7934 29.2517 62.2821C29.5652 61.8032 29.8523 61.3149 30.1085 60.7988C31.0183 59.8734 32.0518 59.0643 33.1958 58.3994C34.3397 57.7344 35.8679 57.1625 37.1399 57.767C37.29 57.8414 37.4446 57.9344 37.5815 58.0274C37.798 58.2227 37.8465 58.2459 37.7273 58.1018C37.798 58.1669 38.1425 58.6598 38.1822 58.683C38.2131 58.7667 38.2529 58.8597 38.2926 58.9434C38.2926 58.9527 38.2926 58.962 38.2926 58.976C38.2926 58.9853 38.2926 58.9853 38.2926 58.9946C38.2529 59.1899 38.2131 59.3805 38.1557 59.5758C38.1469 59.5944 38.1469 59.5991 38.138 59.6177C38.0055 60.0222 37.8554 60.4128 37.6964 60.8081Z" fill="#D6D7F0"/>
<path d="M0.238441 63.8213C0.216357 63.8306 0.189857 63.8399 0.167773 63.8399C0.0706063 63.8399 -0.00889419 63.7469 -6.08086e-05 63.6446C0.017606 63.2679 0.0617729 62.8866 0.15894 62.5146C0.181024 62.4123 0.278191 62.3565 0.375358 62.3798C0.472525 62.403 0.525526 62.5053 0.503442 62.6076C0.415108 62.9517 0.366525 63.3051 0.357691 63.6585C0.353275 63.7283 0.304691 63.798 0.238441 63.8213Z" fill="#110580"/>
<path d="M30.5766 63.5283C30.559 63.5376 30.5369 63.5469 30.5148 63.5469H30.2498C29.6403 63.5562 29.0087 63.5655 28.3374 63.5562C28.2402 63.5562 28.1607 63.4725 28.1607 63.3609C28.1607 63.2586 28.2402 63.1749 28.3462 63.1749C29.0087 63.1842 29.6403 63.1749 30.2498 63.1656H30.5148C30.612 63.1656 30.6915 63.2493 30.7003 63.3516C30.6871 63.426 30.6429 63.5004 30.5766 63.5283ZM26.235 63.4074C26.213 63.4167 26.1776 63.426 26.1555 63.4167C25.3782 63.333 24.6671 63.2075 23.9958 63.0401C23.8986 63.0168 23.8456 62.9145 23.8677 62.8122C23.8898 62.7099 23.9869 62.6541 24.0841 62.6774C24.7466 62.8448 25.4356 62.9657 26.1953 63.0494C26.2924 63.0587 26.3631 63.1517 26.3543 63.2493C26.3455 63.3237 26.2969 63.3842 26.235 63.4074ZM22.0436 62.3147C22.0038 62.3333 21.9553 62.3333 21.9067 62.3147C21.2265 61.9938 20.5773 61.6172 19.9942 61.1708C19.9147 61.1103 19.8971 60.9941 19.9545 60.9104C20.0119 60.8267 20.1223 60.8081 20.2018 60.8685C20.7716 61.2963 21.3855 61.6683 22.048 61.9799C22.1363 62.0217 22.1761 62.1333 22.1363 62.2263C22.1231 62.2635 22.0922 62.2961 22.0436 62.3147ZM18.5544 59.6595C18.4926 59.6828 18.4087 59.6688 18.3557 59.6084C17.861 59.0271 17.4282 58.3947 17.066 57.7205C17.0174 57.6275 17.0483 57.5205 17.1367 57.4694C17.225 57.4182 17.3266 57.4508 17.3752 57.5438C17.7197 58.1855 18.1348 58.7993 18.6162 59.3619C18.6781 59.4363 18.6737 59.5572 18.5986 59.6223C18.5942 59.6456 18.5809 59.6549 18.5544 59.6595ZM18.8194 56.9579C18.4528 57.1113 18.0686 57.2369 17.6667 57.3345C17.5695 57.3578 17.4767 57.2927 17.4502 57.1904C17.4282 57.0881 17.4812 56.9904 17.5872 56.9625C17.9714 56.8695 18.338 56.744 18.6913 56.5998C18.9961 56.4743 19.292 56.3301 19.5614 56.172C19.6497 56.1209 19.7513 56.1534 19.7999 56.2464C19.8485 56.3394 19.8176 56.4464 19.7292 56.4975C19.4422 56.6742 19.1418 56.823 18.8194 56.9579ZM15.5422 57.6089C15.5246 57.6182 15.5025 57.6182 15.4848 57.6275C14.8444 57.6507 14.173 57.6368 13.303 57.5763C13.2058 57.567 13.1263 57.4833 13.1351 57.3764C13.144 57.2741 13.2235 57.1904 13.325 57.1997C14.1907 57.2601 14.8532 57.2741 15.476 57.2508C15.5731 57.2508 15.6615 57.3252 15.6615 57.4368C15.6526 57.5159 15.6129 57.581 15.5422 57.6089ZM21.3855 55.0886C21.3281 55.1118 21.2574 55.1072 21.2088 55.056C21.1382 54.9909 21.1205 54.87 21.1868 54.7956C21.4253 54.4934 21.6284 54.1632 21.7874 53.8191C21.9243 53.5262 22.0259 53.196 22.0833 52.8519C22.101 52.7496 22.1938 52.6845 22.2909 52.6985C22.3881 52.7171 22.4499 52.8147 22.4367 52.917C22.3748 53.2937 22.26 53.6564 22.1098 53.9865C21.942 54.3585 21.7168 54.7119 21.4606 55.0374C21.4341 55.0653 21.412 55.0793 21.3855 55.0886ZM16.4786 55.7024C16.4697 55.7024 16.4609 55.7117 16.4565 55.7117C16.3593 55.7349 16.2666 55.6791 16.2401 55.5768C16.0413 54.7863 15.9751 54.0005 16.0413 53.2518C16.0501 53.1495 16.1385 53.0751 16.2312 53.0844C16.324 53.0937 16.3991 53.1867 16.3902 53.2844C16.3328 53.9912 16.3991 54.7305 16.5801 55.4838C16.6022 55.5675 16.5581 55.6698 16.4786 55.7024ZM11.2139 57.3903C11.1918 57.3996 11.1653 57.4089 11.1344 57.3996C10.8782 57.381 10.6309 57.3671 10.3747 57.3485C9.88002 57.3252 9.4251 57.3159 8.98344 57.3159C8.88627 57.3159 8.80677 57.2322 8.79793 57.1299C8.79793 57.0276 8.87743 56.9439 8.9746 56.9346C9.42069 56.9253 9.88444 56.9439 10.3924 56.9672C10.6485 56.9858 10.9047 56.9997 11.1609 57.0183C11.258 57.0276 11.3375 57.1206 11.3287 57.2183C11.3154 57.302 11.2713 57.3624 11.2139 57.3903ZM1.32931 60.6872C1.27189 60.7104 1.21006 60.7058 1.16147 60.6639C1.08197 60.6035 1.06431 60.4872 1.12172 60.4035C1.55456 59.7897 2.08015 59.2317 2.69848 58.7621C2.77798 58.7016 2.8884 58.7202 2.94582 58.8039C3.00323 58.8876 2.98557 59.0039 2.90607 59.0643C2.32306 59.5107 1.81956 60.0315 1.40881 60.6221C1.39114 60.6546 1.36023 60.6732 1.32931 60.6872ZM6.87667 57.474C6.85901 57.4833 6.85459 57.4833 6.83692 57.4833C6.09492 57.5996 5.40591 57.7856 4.77433 58.032C4.67716 58.0646 4.58441 58.0134 4.54024 57.9204C4.50933 57.8274 4.55791 57.7205 4.64624 57.6833C5.29991 57.4322 6.01542 57.2462 6.78392 57.1206C6.88109 57.102 6.97384 57.1811 6.98267 57.2787C7.00476 57.3624 6.96059 57.4461 6.87667 57.474ZM22.0833 50.8199C21.995 50.8524 21.8934 50.8106 21.8581 50.7176C21.6108 50.1363 21.2265 49.7085 20.7318 49.4714C20.6258 49.4202 20.5243 49.3784 20.4138 49.3458C20.3167 49.3226 20.2637 49.211 20.2946 49.1087C20.3167 49.0064 20.4227 48.9506 20.5198 48.9831C20.6479 49.0157 20.7672 49.0668 20.8864 49.1273C21.4606 49.4063 21.9111 49.9038 22.1893 50.5595C22.2291 50.6664 22.1849 50.778 22.0833 50.8199C22.0922 50.8199 22.0922 50.8199 22.0833 50.8199ZM16.907 51.2756C16.8584 51.2942 16.801 51.2942 16.748 51.257C16.6596 51.2058 16.6376 51.0896 16.6861 50.9966C17.0792 50.3084 17.6446 49.7271 18.2762 49.3458C18.3645 49.2947 18.4661 49.3272 18.5147 49.4109C18.5632 49.5039 18.5323 49.6109 18.4528 49.662C17.8698 50.0061 17.3487 50.5455 16.9909 51.1779C16.9732 51.2337 16.9467 51.257 16.907 51.2756Z" fill="#110580"/>
<path d="M33.7832 63.798C33.7435 63.8166 33.6949 63.8166 33.6551 63.798C33.4078 63.6957 33.0854 63.6306 32.679 63.5888C32.5819 63.5795 32.5112 63.4865 32.52 63.3888C32.5289 63.2912 32.6172 63.2121 32.7099 63.2214C33.1516 63.2633 33.5005 63.3377 33.7832 63.4586C33.8715 63.4911 33.9201 63.6027 33.8892 63.705C33.8627 63.7376 33.8318 63.7701 33.7832 63.798Z" fill="#110580"/>
<path d="M59.3294 90.2193L60.4512 88.9824C60.8355 88.5593 60.8178 87.8943 60.4115 87.4898L41.3535 68.4341L38.858 71.2055L57.9161 90.2612C58.3136 90.6564 58.954 90.6425 59.3294 90.2193Z" fill="#FF5856"/>
<path d="M38.8624 71.1915L41.3579 68.4201L36.7733 65.9184L36.2566 66.4903L38.8624 71.1915Z" fill="#EBDBCD"/>
<path d="M38.6239 67.4947L38.0454 67.7365L37.8554 68.1504L37.3343 68.4433L36.2566 66.4903L36.7733 65.9184L38.6239 66.9274V67.4947Z" fill="#FF5856"/>
<path d="M81.5049 51.3124C82.2452 46.6908 79.3257 42.3192 74.984 41.5483C70.6423 40.7775 66.5225 43.8992 65.7822 48.5208C65.0419 53.1425 67.9614 57.514 72.3031 58.2849C76.6448 59.0558 80.7645 55.9341 81.5049 51.3124Z" fill="#FF5856"/>
<path d="M85.0654 53.7168L76.338 52.1684C75.4414 52.0103 74.8275 51.1082 74.9777 50.1549V50.1363C75.1279 49.1924 75.9847 48.546 76.8901 48.7041L85.6175 50.2526C86.5141 50.4107 87.128 51.3128 86.9778 52.266V52.2846C86.8277 53.2379 85.9708 53.8749 85.0654 53.7168Z" fill="#FF5856"/>
<path d="M79.5102 50.9583C80.0635 47.504 77.8855 44.2375 74.6454 43.6622C71.4054 43.0869 68.3303 45.4208 67.777 48.875C67.2237 52.3292 69.4017 55.5958 72.6417 56.1711C75.8818 56.7464 78.9569 54.4125 79.5102 50.9583Z" fill="#D4BFA9"/>
<path d="M70.2076 50.4479C70.1016 50.0619 70.1193 49.6248 70.424 49.3365C70.7376 49.0435 71.0954 49.1273 71.431 49.3272C72.0936 49.7225 72.8135 50.3967 73.6217 49.9689C74.3505 49.5829 74.4388 48.6716 74.4786 47.9136C74.5007 47.537 74.5183 47.0812 74.7922 46.7836C75.0792 46.4814 75.5121 46.6581 75.7903 46.8766C76.1569 47.1649 76.5191 46.5139 76.1481 46.2303C75.4061 45.6491 74.4035 45.7932 73.9883 46.6953C73.7542 47.1928 73.7807 47.7415 73.7321 48.2763C73.7012 48.6622 73.5952 49.2342 73.1712 49.3365C72.7251 49.4388 72.2658 48.9831 71.9257 48.7552C71.5194 48.4855 71.0468 48.2903 70.5654 48.4205C69.629 48.6716 69.2845 49.7504 69.5275 50.6525C69.6467 51.1128 70.3357 50.9222 70.2076 50.4479Z" fill="#EBDBCD"/>
<path d="M71.4311 53.289C71.3516 52.3962 72.5926 52.6241 73.0696 52.7171C73.7189 52.8426 74.5581 53.1728 75.1897 52.8287C75.7594 52.5171 75.9493 51.8196 76.0377 51.2058C76.1481 50.4711 76.3424 49.8155 77.1021 49.6155C77.5482 49.4993 77.3583 48.7739 76.9122 48.8901C76.2143 49.0668 75.6711 49.6248 75.4723 50.3456C75.3133 50.9361 75.3928 52.2242 74.5625 52.2242C74.1562 52.2242 73.7233 52.08 73.3302 52.0056C72.9283 51.9312 72.5131 51.8289 72.1068 51.8615C71.4046 51.9219 70.6493 52.466 70.7332 53.2937C70.7597 53.768 71.4796 53.7773 71.4311 53.289Z" fill="#EBDBCD"/>
</g>
<defs>
<clipPath id="clip0_40_4695">
<rect width="87" height="93" fill="white"/>
</clipPath>
</defs>
</svg>
