<svg width="77" height="66" viewBox="0 0 77 66" fill="none" xmlns="http://www.w3.org/2000/svg">
<g clip-path="url(#clip0_40_4499)">
<path d="M27.1275 21.021H14.5308V34.8249H27.1275V21.021Z" fill="#F8D7BC"/>
<path d="M13.2588 19.9221V21.021H27.0822V34.8216H13.2588V35.8512H66.4301V19.9221H13.2588Z" fill="#4E53BA"/>
<path d="M2.31262 37.2933H40.7174C44.8211 37.2933 48.1721 42.1707 48.1721 48.1437V48.8994C48.1721 54.8724 44.8687 59.7498 40.765 59.7498H2.31262V37.2933Z" fill="#F8ECE2"/>
<path d="M69.3095 35.8512H0.471586C0.188181 35.8512 0 36.1251 0 36.5376C0 36.9501 0.188181 37.224 0.471586 37.224H40.4816C44.7281 37.224 48.172 42.2367 48.172 48.4176C48.172 54.5985 44.7757 59.6112 40.5292 59.6805C40.5292 59.6805 40.5292 59.6805 40.4816 59.6805H0.471586C0.188181 59.6805 0 59.9544 0 60.3669C0 60.7794 0.188181 61.0533 0.471586 61.0533H69.3095C73.5561 61.0533 77 56.0406 77 49.8597V47.1141C77 40.9332 73.5561 35.9205 69.3095 35.8512C69.3095 35.9205 69.3095 35.9205 69.3095 35.8512Z" fill="#FF5856"/>
<path d="M41.944 42.1014H2.31262V41.3457H41.944C42.0845 41.3457 42.2274 41.5503 42.2274 41.7582C42.2274 41.9661 42.0845 42.1014 41.944 42.1014Z" fill="#EBD0BE"/>
<path d="M23.6383 31.5249H14.5308V30.7692H23.6836C23.8242 30.7692 23.967 30.9738 23.967 31.1817C23.9217 31.3896 23.7788 31.5249 23.6383 31.5249Z" fill="#E0C1A6"/>
<path d="M21.4685 27.1986H14.5308V26.4429H21.5139C21.6544 26.4429 21.7973 26.5815 21.7973 26.8554C21.7497 26.994 21.6567 27.1986 21.4685 27.1986Z" fill="#E0C1A6"/>
<path d="M44.8211 50.8233H2.31262V50.0676H44.8234C44.9639 50.0676 45.1068 50.2722 45.1068 50.4801C45.1045 50.6847 44.9639 50.8233 44.8211 50.8233Z" fill="#EBD0BE"/>
<path d="M39.586 55.7007H2.31262V54.8757H39.586C39.7266 54.8757 39.8694 55.0143 39.8694 55.2189C39.8672 55.4928 39.7266 55.6314 39.586 55.7007Z" fill="#EBD0BE"/>
<path d="M43.5492 46.5663H2.31262V45.8106H43.5492C43.6898 45.8106 43.8326 46.0152 43.8326 46.2231C43.785 46.3584 43.6898 46.5663 43.5492 46.5663Z" fill="#EBD0BE"/>
<path d="M38.1168 18.678H22.6882V10.3686H38.1168C39.0124 10.3686 39.722 11.3982 39.722 12.705V16.4142C39.722 17.6484 39.0146 18.678 38.1168 18.678Z" fill="#F8D0B3"/>
<path d="M68.1804 9.1344H21.3755C21.1397 9.1344 20.9515 9.4083 20.9515 9.7515C20.9515 10.0947 21.1397 10.3686 21.3755 10.3686H38.1259C39.0214 10.3686 39.7311 11.3982 39.7311 12.705V16.3449C39.7311 17.6484 39.0237 18.6813 38.1259 18.6813H21.4707C21.2349 18.7506 21.0468 19.0245 21.0944 19.3677C21.0944 19.6416 21.2826 19.9155 21.4707 19.9155H68.1804C69.076 19.9155 69.7856 18.8859 69.7856 17.5791V11.3982C69.7834 10.2993 69.0284 9.1344 68.1804 9.1344Z" fill="#FF7A82"/>
<path d="M20.1965 0.547791H45.3448C46.8071 0.547791 48.0337 2.26379 48.0337 4.46159V4.73549C48.0337 6.86399 46.8547 8.64929 45.3448 8.64929H20.1965V0.547791Z" fill="#F8E7D8"/>
<path d="M63.1789 0H19.1105C19.0153 0 18.9224 0.1386 18.9224 0.2739C18.9224 0.4125 19.0176 0.5478 19.1105 0.5478H45.2496C46.7595 0.5478 48.0337 2.3331 48.0337 4.6002C48.0337 6.798 46.8071 8.6526 45.2496 8.6526H19.1105C19.0153 8.6526 18.9224 8.7912 18.9224 8.9265C18.9224 9.0651 19.0176 9.2004 19.1105 9.2004H63.1766C64.6866 9.2004 65.9608 7.4151 65.9608 5.148V4.0491C65.9631 1.7853 64.6889 0 63.1789 0Z" fill="#2B31BA"/>
<path d="M42.4654 2.81491H20.1965V2.47171H42.4654C42.5606 2.47171 42.6059 2.54101 42.6059 2.67631C42.6082 2.74561 42.5606 2.81491 42.4654 2.81491Z" fill="#DEBCA7"/>
<path d="M40.3432 6.798H20.1965V6.4548H40.3432C40.4385 6.4548 40.4838 6.5241 40.4838 6.6594C40.4838 6.7287 40.4362 6.798 40.3432 6.798Z" fill="#DEBCA7"/>
<path d="M44.9661 4.8081H20.1965V4.3956H44.9661C45.0137 4.3956 45.1067 4.4649 45.1067 4.6002C45.109 4.6695 45.0614 4.8081 44.9661 4.8081Z" fill="#DEBCA7"/>
<path d="M35.056 50.0676H28.8755C28.8755 50.0676 27.8847 50.5494 27.0345 52.8825C25.9961 55.7667 26.3271 58.5123 25.6674 60.6441C25.2434 62.0862 24.536 63.2544 23.6382 64.0761C24.3456 64.2147 25.1006 64.2807 25.8555 64.1454C26.47 63.9408 27.0345 63.5976 27.5061 63.0465C27.6467 63.5283 27.6943 64.0068 27.7419 64.4886C27.7895 64.9704 27.7895 65.5182 27.7419 66C27.7419 66 30.0069 65.2443 30.9024 63.3204C32.1766 60.7101 31.0906 57.4827 32.7888 53.4303C33.4032 52.1961 34.1582 51.0279 35.056 50.0676Z" fill="#BFA990"/>
</g>
<defs>
<clipPath id="clip0_40_4499">
<rect width="77" height="66" fill="white"/>
</clipPath>
</defs>
</svg>
