<svg width="89" height="83" viewBox="0 0 89 83" fill="none" xmlns="http://www.w3.org/2000/svg">
<g clip-path="url(#clip0_40_4524)">
<path d="M67.8578 76.8456L30.5038 73.6584C29.4783 73.5712 28.7157 72.7122 28.8077 71.7328L33.2781 24.734C33.3701 23.7629 34.2773 23.0408 35.3117 23.1279L72.6656 26.311C73.6912 26.3981 74.4538 27.2572 74.3617 28.2366L69.8914 75.2354C69.8037 76.2106 68.8921 76.9286 67.8578 76.8456Z" fill="#CCCDEB"/>
<path d="M58.3867 73.2226L22.3081 82.9294C21.3132 83.195 20.2789 82.6472 19.9984 81.7052L6.36812 36.3125C6.08762 35.3704 6.66614 34.391 7.66102 34.1254L43.7396 24.4227C44.7345 24.1571 45.7688 24.7049 46.0493 25.647L59.6796 71.0397C59.9557 71.9693 59.3772 72.9487 58.3867 73.2226Z" fill="#D6D7F0"/>
<path d="M78.8545 50.7615C83.1001 49.1979 85.1883 44.6349 83.5185 40.5699C81.8488 36.5048 77.0534 34.477 72.8078 36.0407C68.5621 37.6043 66.474 42.1673 68.1437 46.2323C69.8135 50.2974 74.6089 52.3252 78.8545 50.7615Z" fill="#FF5856"/>
<path d="M87.9087 40.699L79.3756 43.8489C78.499 44.1684 77.4954 43.7534 77.1579 42.9234L77.1491 42.9068C76.8117 42.0768 77.2499 41.1265 78.1265 40.8069L86.6596 37.6654C87.5362 37.3458 88.5398 37.7608 88.8773 38.5908L88.8861 38.6074C89.2279 39.4374 88.7853 40.3753 87.9087 40.699Z" fill="#FF5856"/>
<path d="M78.0901 48.9011C81.2597 47.7338 82.8177 44.325 81.57 41.2875C80.3222 38.2499 76.7413 36.7338 73.5718 37.9011C70.4022 39.0684 68.8442 42.4772 70.0919 45.5148C71.3397 48.5523 74.9206 50.0685 78.0901 48.9011Z" fill="#D4BFA9"/>
<path d="M73.0556 45.5504C72.7752 45.2931 72.5604 44.9321 72.6831 44.5544C72.8058 44.1643 73.1784 44.0523 73.5684 44.044C74.3529 44.0274 75.339 44.21 75.8343 43.4547C76.2813 42.7824 75.9 42.0146 75.5626 41.388C75.3873 41.0726 75.1725 40.6991 75.2733 40.3297C75.3741 39.9438 75.8431 39.8691 76.2068 39.8981C76.6802 39.9438 76.6714 39.2383 76.1981 39.1926C75.247 39.1055 74.4274 39.7197 74.5107 40.6493C74.5589 41.168 74.8482 41.5913 75.0805 42.0354C75.247 42.3549 75.4442 42.8737 75.1155 43.1642C74.7693 43.4713 74.1382 43.3385 73.7087 43.3302C73.2134 43.3219 72.7006 43.4007 72.3369 43.7452C71.6356 44.4092 71.8635 45.455 72.5341 46.0484C72.8891 46.3638 73.4019 45.8617 73.0556 45.5504Z" fill="#EBDBCD"/>
<path d="M75.5713 47.2021C75.0498 46.5298 76.2682 46.0899 76.7371 45.9239C77.3726 45.704 78.2842 45.538 78.6743 44.9528C79.0205 44.4216 78.8408 43.7618 78.6085 43.2306C78.3368 42.5873 78.179 41.969 78.7488 41.4295C79.0863 41.1141 78.5516 40.6244 78.2097 40.9439C77.6794 41.4378 77.4822 42.1516 77.6619 42.8322C77.8109 43.38 78.5384 44.3677 77.7934 44.791C77.4296 44.9943 76.9826 45.0981 76.5837 45.2392C76.1849 45.3803 75.7729 45.5048 75.4267 45.7413C74.8219 46.1397 74.4406 46.9573 74.9227 47.5756C75.2163 47.9242 75.8518 47.5715 75.5713 47.2021Z" fill="#EBDBCD"/>
<path d="M64.7504 67.0183L27.5805 71.7742C26.555 71.907 25.6127 71.2264 25.4768 70.2553L18.8063 23.4931C18.6661 22.522 19.3848 21.6298 20.4104 21.5011L57.5715 16.7452C58.5971 16.6124 59.5394 17.293 59.6752 18.2641L66.3457 65.0263C66.486 66.0016 65.776 66.8938 64.7504 67.0183Z" fill="#E8E8F7"/>
<path d="M30.4381 37.3625C32.5221 37.3625 34.2116 35.7627 34.2116 33.7893C34.2116 31.8159 32.5221 30.2162 30.4381 30.2162C28.354 30.2162 26.6646 31.8159 26.6646 33.7893C26.6646 35.7627 28.354 37.3625 30.4381 37.3625Z" fill="white"/>
<path d="M32.1211 49.1692C34.2051 49.1692 35.8946 47.5694 35.8946 45.596C35.8946 43.6226 34.2051 42.0229 32.1211 42.0229C30.037 42.0229 28.3475 43.6226 28.3475 45.596C28.3475 47.5694 30.037 49.1692 32.1211 49.1692Z" fill="white"/>
<path d="M33.8084 60.976C35.8925 60.976 37.582 59.3762 37.582 57.4028C37.582 55.4294 35.8925 53.8297 33.8084 53.8297C31.7244 53.8297 30.0349 55.4294 30.0349 57.4028C30.0349 59.3762 31.7244 60.976 33.8084 60.976Z" fill="white"/>
<path d="M54.0391 30.0958L38.7302 32.0546C38.2087 32.1168 37.731 31.7724 37.6565 31.2785C37.5907 30.7847 37.9545 30.3323 38.476 30.2618L53.7849 28.303C54.3064 28.2407 54.7842 28.5852 54.8587 29.079C54.9332 29.5729 54.5606 30.0335 54.0391 30.0958Z" fill="#D6D7F0"/>
<path d="M49.1742 33.8806L39.1685 35.1588C38.6469 35.2211 38.1692 34.8766 38.0947 34.3828C38.029 33.8889 38.3927 33.4366 38.9143 33.366L48.92 32.0878C49.4416 32.0256 49.9193 32.37 49.9938 32.8639C50.0683 33.3577 49.6958 33.8101 49.1742 33.8806Z" fill="#D6D7F0"/>
<path d="M57.4181 53.7218L42.1093 55.6806C41.5877 55.7428 41.11 55.3984 41.0355 54.9045C40.9698 54.4107 41.3335 53.9583 41.8551 53.8878L57.1639 51.929C57.6855 51.8667 58.1632 52.2112 58.2377 52.705C58.3034 53.1947 57.9397 53.6512 57.4181 53.7218Z" fill="#D6D7F0"/>
<path d="M52.5489 57.4982L42.5431 58.7764C42.0216 58.8387 41.5438 58.4942 41.4693 58.0004C41.4036 57.5065 41.7674 57.0542 42.2889 56.9836L52.2947 55.7054C52.8162 55.6432 53.2939 55.9876 53.3684 56.4815C53.4342 56.9712 53.0704 57.436 52.5489 57.4982Z" fill="#D6D7F0"/>
<path d="M55.7264 41.9067L40.4175 43.8655C39.896 43.9277 39.4182 43.5833 39.3437 43.0894C39.278 42.5956 39.6418 42.1432 40.1633 42.0727L55.4722 40.1139C55.9937 40.0516 56.4714 40.3961 56.5459 40.8899C56.6161 41.3879 56.2479 41.8444 55.7264 41.9067Z" fill="#D6D7F0"/>
<path d="M50.8616 45.6915L40.8559 46.9697C40.3343 47.0319 39.8566 46.6875 39.7821 46.1936C39.7163 45.6998 40.0801 45.2474 40.6017 45.1769L50.6074 43.8987C51.129 43.8364 51.6067 44.1809 51.6812 44.6747C51.7469 45.1644 51.3832 45.6209 50.8616 45.6915Z" fill="#D6D7F0"/>
<path d="M32.4322 26.3525C31.6039 27.9834 30.8763 29.6517 30.2409 31.3532C29.7281 30.7266 29.0838 30.2659 28.2818 30.2327C27.8698 30.2161 27.3483 30.3116 27.1247 30.6892C27.0853 30.7515 27.0415 30.822 27.002 30.8843C26.7434 31.2993 26.6689 31.9674 27.1992 32.2538C27.6112 32.482 27.9925 32.6065 28.3168 32.951C28.7814 33.4531 29.1101 34.0798 29.3994 34.6732C29.9121 35.7149 31.468 35.4742 31.6915 34.3827C32.2131 31.8346 32.8924 29.3197 33.6944 26.8463C33.9486 26.062 32.8223 25.593 32.4322 26.3525Z" fill="#4E53BA"/>
<path d="M57.9614 1.31534L56.7123 0.248786C56.2916 -0.112264 55.6298 -0.0790636 55.2485 0.319336L37.0514 19.4467L39.8388 21.8205L58.0446 2.69729C58.4259 2.29474 58.3909 1.67639 57.9614 1.31534Z" fill="#2B31BA"/>
<path d="M39.8258 21.8207L37.034 19.4386L34.7024 23.9911L35.2809 24.485L39.8258 21.8207Z" fill="#EBDBCD"/>
<path d="M36.2013 22.1444L36.4555 22.7088L36.8631 22.879L37.1655 23.3811L35.2809 24.485L34.7024 23.9912L35.6447 22.161L36.2013 22.1444Z" fill="#2B31BA"/>
<path d="M33.3437 63.524C33.37 63.524 33.3919 63.5241 33.4182 63.5324C33.519 63.5656 33.5673 63.6651 33.5322 63.7523C33.4095 64.0801 33.2517 64.4122 33.0501 64.7151C33.0019 64.8023 32.8835 64.823 32.7915 64.769C32.6995 64.7234 32.6776 64.6114 32.7345 64.5242C32.9186 64.242 33.0676 63.9349 33.1816 63.632C33.2122 63.5697 33.278 63.524 33.3437 63.524Z" fill="#110580"/>
<path d="M3.26507 55.0456C3.29136 55.0456 3.30451 55.0456 3.33081 55.0539L3.59377 55.1245C4.19859 55.2988 4.82532 55.4689 5.48711 55.6723C5.58791 55.7055 5.63612 55.7968 5.60106 55.8922C5.566 55.9877 5.46958 56.0333 5.36878 56.0001C4.71575 55.7968 4.0934 55.6225 3.48859 55.4606L3.22562 55.3901C3.12482 55.3652 3.06785 55.2656 3.10291 55.1701C3.12482 55.0996 3.19056 55.0539 3.26507 55.0456ZM7.51631 56.4027C7.54261 56.4027 7.57329 56.4027 7.59958 56.4193C8.34465 56.7181 9.00644 57.0293 9.62879 57.3821C9.72082 57.4277 9.74274 57.5398 9.69453 57.6269C9.64632 57.7141 9.52798 57.7348 9.43595 57.6892C8.83113 57.353 8.1781 57.0376 7.45057 56.7471C7.35853 56.7098 7.31032 56.606 7.34977 56.5189C7.3936 56.4483 7.45057 56.411 7.51631 56.4027ZM11.3512 58.5814C11.3994 58.5814 11.452 58.5897 11.4827 58.6188C12.07 59.096 12.5915 59.6231 13.0385 60.1958C13.0955 60.2746 13.078 60.3825 13.0035 60.4406C12.9202 60.4946 12.8063 60.478 12.7449 60.4074C12.3066 59.8596 11.8026 59.3492 11.2372 58.8885C11.1627 58.8263 11.154 58.7142 11.2197 58.6437C11.2592 58.6022 11.2986 58.5856 11.3512 58.5814ZM14.029 61.9471C14.1035 61.9388 14.1781 61.9803 14.2131 62.0508C14.5374 62.7107 14.7829 63.3996 14.9406 64.0968C14.9669 64.1922 14.9012 64.2835 14.8004 64.3084C14.6996 64.3333 14.6032 64.2711 14.5769 64.1756C14.4191 63.5033 14.1868 62.8435 13.8756 62.2002C13.8362 62.1131 13.8756 62.0135 13.9677 61.9637C13.9896 61.9471 14.0071 61.9471 14.029 61.9471ZM12.9947 64.2752C13.4023 64.242 13.8231 64.242 14.2438 64.2669C14.3446 64.2752 14.4279 64.3541 14.4191 64.4537C14.4103 64.5574 14.3271 64.6197 14.2219 64.6197C13.8143 64.5948 13.4111 64.5948 13.021 64.628C12.6835 64.6529 12.3505 64.6985 12.0349 64.7608C11.9341 64.7774 11.8377 64.7234 11.8201 64.628C11.7939 64.5325 11.8596 64.4412 11.9604 64.4246C12.2935 64.3458 12.6397 64.3001 12.9947 64.2752ZM16.422 64.6363C16.4395 64.6363 16.4615 64.6363 16.4878 64.6446C17.1232 64.8106 17.785 65.0139 18.6309 65.3169C18.7317 65.3501 18.7712 65.4497 18.7405 65.5451C18.7054 65.6406 18.6002 65.6779 18.4994 65.6489C17.6623 65.3501 17.0093 65.1384 16.3913 64.9849C16.2905 64.96 16.2336 64.8687 16.2598 64.7732C16.2818 64.6902 16.3475 64.6446 16.422 64.6363ZM9.90928 65.1924C9.97502 65.1841 10.0408 65.2173 10.0758 65.2712C10.1328 65.3501 10.1109 65.458 10.0188 65.5161C9.69453 65.7194 9.3965 65.9477 9.1423 66.2133C8.91878 66.4415 8.73033 66.6988 8.57255 66.9893C8.52434 67.0765 8.41477 67.1055 8.32273 67.0682C8.2307 67.0225 8.20002 66.9188 8.23946 66.8316C8.41477 66.5121 8.62076 66.2299 8.86619 65.9767C9.13792 65.6945 9.46224 65.4455 9.80848 65.2256C9.8523 65.209 9.88298 65.2007 9.90928 65.1924ZM14.9494 66.0639C14.9582 66.0639 14.9669 66.0639 14.9757 66.0639C15.0765 66.0722 15.1598 66.151 15.151 66.2423C15.116 67.0101 14.9626 67.7239 14.6777 68.3671C14.6382 68.4543 14.5287 68.4999 14.4366 68.4626C14.3446 68.4252 14.2964 68.3215 14.3358 68.2343C14.5988 67.6243 14.7478 66.9478 14.7829 66.2216C14.7741 66.1427 14.8486 66.0722 14.9494 66.0639ZM20.6426 66.0846C20.6689 66.0846 20.6996 66.0846 20.7258 66.0929C20.9757 66.1801 21.2123 66.2714 21.4621 66.3502C21.9442 66.5162 22.3869 66.6573 22.8296 66.7818C22.9304 66.815 22.9873 66.9063 22.9523 67.0018C22.926 67.0972 22.8208 67.1512 22.72 67.118C22.2729 66.9935 21.8171 66.8524 21.3307 66.6781C21.0808 66.5909 20.8354 66.5038 20.5856 66.4125C20.4936 66.3793 20.4454 66.2797 20.476 66.1842C20.5111 66.1344 20.5681 66.0846 20.6426 66.0846ZM31.3671 66.0016C31.4241 65.9933 31.4898 66.0265 31.5336 66.0722C31.5906 66.151 31.5731 66.2589 31.4942 66.317C30.8894 66.7403 30.2013 67.0765 29.4606 67.3213C29.3598 67.3545 29.2634 67.3047 29.2283 67.2134C29.1933 67.1221 29.2459 67.0267 29.3423 66.9935C30.0523 66.7652 30.7009 66.4457 31.2707 66.039C31.2926 66.0058 31.3233 66.0016 31.3671 66.0016ZM24.9464 67.2549C24.9639 67.2549 24.9727 67.2549 24.9859 67.2549C25.7572 67.3628 26.4935 67.4043 27.186 67.3628C27.2868 67.3545 27.3744 67.4334 27.3744 67.5288C27.3832 67.6243 27.2999 67.7073 27.1991 67.7073C26.4804 67.7446 25.7178 67.7073 24.9245 67.5911C24.8237 67.5745 24.7492 67.4873 24.7667 67.396C24.7886 67.3172 24.8631 67.2632 24.9464 67.2549ZM7.98965 68.7904C8.09045 68.7821 8.17372 68.8527 8.18687 68.9481C8.26138 69.5374 8.52434 70.0313 8.9407 70.384C9.03273 70.4546 9.12477 70.5251 9.22119 70.5874C9.30446 70.6413 9.33076 70.7451 9.27817 70.8322C9.22119 70.9111 9.11162 70.936 9.01959 70.8862C8.90564 70.8156 8.79607 70.7368 8.69527 70.6496C8.20878 70.2346 7.91076 69.6702 7.81872 68.9979C7.80995 68.9025 7.8757 68.8195 7.9765 68.8029C7.98088 68.7904 7.98965 68.7904 7.98965 68.7904ZM13.2358 69.8777C13.2927 69.8694 13.3453 69.8943 13.3848 69.9317C13.4505 70.0022 13.4418 70.1101 13.3673 70.1765C12.78 70.6787 12.0524 71.0397 11.3161 71.1891C11.2153 71.214 11.1189 71.1518 11.0926 71.0563C11.0663 70.9609 11.1321 70.8696 11.2329 70.8447C11.9122 70.7036 12.5827 70.3757 13.1174 69.9109C13.1613 69.8943 13.2007 69.886 13.2358 69.8777Z" fill="#110580"/>
<path d="M0.170872 53.8878C0.210316 53.8878 0.262909 53.8961 0.293588 53.9251C0.508342 54.0828 0.806367 54.2405 1.20519 54.3941C1.29723 54.4314 1.34544 54.5352 1.306 54.6223C1.26655 54.7095 1.15698 54.7551 1.06495 54.7178C0.644206 54.5518 0.311119 54.3816 0.070069 54.199C-0.0132027 54.1368 -0.0219682 54.0247 0.0350072 53.9542C0.070069 53.9085 0.118279 53.8878 0.170872 53.8878Z" fill="#110580"/>
</g>
<defs>
<clipPath id="clip0_40_4524">
<rect width="89" height="83" fill="white"/>
</clipPath>
</defs>
</svg>
