<svg width="74" height="68" viewBox="0 0 74 68" fill="none" xmlns="http://www.w3.org/2000/svg">
<g clip-path="url(#clip0_40_4730)">
<path d="M26.3098 58.4766C26.2763 58.4698 26.2461 58.4562 26.2159 58.4358C26.1052 58.3576 26.0784 58.2012 26.1589 58.089C26.1589 58.089 26.1589 58.089 26.1589 58.0856C26.4506 57.6708 26.786 57.29 27.1615 56.95C27.2554 56.8514 27.413 56.8446 27.5103 56.9432C27.6075 57.0384 27.6142 57.1982 27.517 57.2968C27.5103 57.307 27.5002 57.3138 27.4901 57.3206C27.1414 57.6368 26.8295 57.9938 26.5579 58.378C26.5043 58.4596 26.407 58.497 26.3098 58.4766Z" fill="#110580"/>
<path d="M43.6362 59.8434C43.5993 59.8366 43.5658 59.8196 43.5389 59.7992C43.2539 59.5816 42.9722 59.364 42.6973 59.1464C42.144 58.735 41.6242 58.3678 41.1145 58.0278C40.9938 57.9632 40.9468 57.8102 41.0139 57.6878C41.0776 57.5654 41.2285 57.5178 41.3492 57.5858C41.3626 57.5926 41.3727 57.5994 41.3861 57.6096C41.9092 57.953 42.4357 58.3236 42.9957 58.7452C43.2807 58.9628 43.5624 59.1804 43.8441 59.398C43.948 59.4864 43.9614 59.6462 43.8743 59.7516C43.8139 59.823 43.72 59.857 43.6295 59.8332L43.6362 59.8434ZM29.8375 55.8416C29.7033 55.8076 29.6195 55.6716 29.653 55.5356C29.6731 55.454 29.7301 55.3894 29.8039 55.3588C30.7697 55.0052 31.7857 54.8012 32.8118 54.7604C32.9493 54.7536 33.0633 54.8624 33.07 55.0018C33.0767 55.1412 32.9694 55.2568 32.8319 55.2636C31.8561 55.301 30.8904 55.4914 29.9716 55.8314C29.9313 55.845 29.8844 55.8518 29.8442 55.8416H29.8375ZM38.5761 56.5828C38.5593 56.5794 38.5425 56.5726 38.5258 56.5624C37.6372 56.1408 36.7083 55.811 35.756 55.5764C35.6252 55.5458 35.5414 55.4132 35.5716 55.2772V55.2738C35.6017 55.1412 35.7325 55.0562 35.8633 55.0868C36.8525 55.3316 37.8149 55.675 38.737 56.117C38.8611 56.1748 38.9181 56.321 38.8611 56.4468C38.8142 56.5556 38.6934 56.6168 38.5794 56.5896L38.5761 56.5828Z" fill="#110580"/>
<path d="M62.2 9.15281C61.8848 9.04401 61.536 9.19361 61.3918 9.49621L55.7449 20.5734C55.973 20.6924 56.2446 20.706 56.4827 20.6074L73.4636 13.3688C73.7017 13.2668 73.8828 13.0594 73.9566 12.8078L62.2 9.15281Z" fill="#D5D5ED"/>
<path d="M69.0105 1.07136C68.9904 1.06101 68.9669 1.05411 68.9434 1.04721C68.9669 1.05411 68.987 1.06101 69.0105 1.07136Z" fill="white"/>
<path d="M62.4179 11.9612C62.7264 12.0292 63.045 11.8966 63.216 11.6246L68.997 1.07099C68.9769 1.07099 68.9568 1.05059 68.9333 1.04719H68.9199H68.9032C68.8495 1.03359 68.7925 1.02339 68.7355 1.01999L68.8126 1.03019C68.6584 1.00979 68.5041 1.03019 68.3599 1.08799L51.379 8.32999C51.1744 8.41839 51.0101 8.58159 50.9196 8.78899L62.4179 11.9612Z" fill="white"/>
<path d="M60.4596 11.4172L50.9296 8.77539C50.9162 8.80599 50.8995 8.83319 50.8894 8.86719C50.819 9.08479 50.8257 9.31939 50.9162 9.53359L55.2855 20.0702C55.3761 20.2878 55.5404 20.468 55.7483 20.5734L60.4596 11.4172Z" fill="#E8E8F7"/>
<path d="M73.8892 12.9642L73.8727 12.9953L73.8892 12.9642Z" fill="#E8E8F7"/>
<path d="M73.8727 12.9948C73.8459 13.0458 73.8123 13.0934 73.7755 13.1376C73.809 13.0934 73.8425 13.0458 73.8727 12.9948Z" fill="#E8E8F7"/>
<path d="M68.9971 1.07101L64.2053 9.82261L73.9566 12.8078C73.9398 12.8622 73.9163 12.9166 73.8895 12.9676C74.0236 12.7058 74.0371 12.3964 73.923 12.121L69.5537 1.58441C69.4498 1.33961 69.2486 1.15261 68.9971 1.07101Z" fill="#E8E8F7"/>
<path d="M69.101 1.1021C69.0709 1.0883 69.0373 1.0814 69.0071 1.0676C69.0407 1.09175 69.0709 1.09175 69.101 1.1021Z" fill="#E8E8F7"/>
<path d="M15.5055 55.0562C15.2272 54.7026 14.7343 54.6142 14.3554 54.8522L0.177734 63.1142C0.348751 63.4168 0.643839 63.6276 0.98252 63.6888L25.116 67.983C25.4547 68.0408 25.8034 67.9422 26.065 67.7144L15.5055 55.0562Z" fill="#D5D5ED"/>
<path d="M28.8583 50.9796C28.8382 50.9558 28.8247 50.9286 28.8013 50.9048C28.8247 50.9286 28.8415 50.9558 28.8583 50.9796Z" fill="white"/>
<path d="M13.7585 58.3542C14.057 58.6568 14.5096 58.7384 14.8919 58.5582L28.865 50.9796C28.8449 50.9558 28.8315 50.9286 28.8114 50.9048L28.7979 50.8844C28.7912 50.881 28.7845 50.8742 28.7812 50.8708C28.7275 50.8164 28.6739 50.7654 28.6102 50.7212C28.637 50.7416 28.6605 50.7654 28.6873 50.7892C28.5297 50.6532 28.3419 50.5614 28.1407 50.524L4.00385 46.2332C3.71211 46.1822 3.41367 46.2468 3.16888 46.41L13.7585 58.3542Z" fill="white"/>
<path d="M11.9511 56.3142L3.1655 46.4066C3.12862 46.427 3.09173 46.4542 3.05484 46.478C2.82011 46.6684 2.66251 46.937 2.60886 47.2396L0.0201326 62.2132C-0.0335197 62.5226 0.0234859 62.8422 0.177736 63.1142L11.9511 56.3142Z" fill="#E8E8F7"/>
<path d="M25.8739 67.847L25.8336 67.8677L25.8739 67.847Z" fill="#E8E8F7"/>
<path d="M25.8336 67.8674C25.7632 67.9014 25.6928 67.932 25.619 67.9558C25.6928 67.932 25.7666 67.9048 25.8336 67.8674Z" fill="#E8E8F7"/>
<path d="M28.8583 50.9796L17.2761 57.2594L26.065 67.7212C26.0046 67.7688 25.9409 67.813 25.8772 67.8504C26.2192 67.6566 26.4573 67.32 26.521 66.929L29.0997 51.9554C29.1601 51.612 29.0729 51.255 28.8583 50.9796Z" fill="#E8E8F7"/>
<path d="M28.9388 51.085C28.9153 51.0476 28.8885 51.0102 28.8583 50.9796C28.8885 51.0102 28.9153 51.0476 28.9388 51.085Z" fill="#E8E8F7"/>
<path d="M14.238 45.254C14.2179 45.2812 14.1944 45.305 14.1676 45.3254C14.0536 45.4002 13.8993 45.3696 13.8256 45.254C13.5506 44.829 13.3192 44.3734 13.1415 43.8974C13.0811 43.7716 13.1348 43.622 13.2555 43.5642C13.3796 43.503 13.5271 43.5574 13.5841 43.6798C13.5908 43.6934 13.5942 43.707 13.5975 43.7206C13.7686 44.1626 13.9832 44.5876 14.2414 44.982C14.2984 45.0636 14.295 45.1724 14.238 45.254Z" fill="#110580"/>
<path d="M48.2771 20.3014C48.2603 20.3286 48.2402 20.349 48.2167 20.366L47.9216 20.5836C47.2376 21.0902 46.53 21.6104 45.7722 22.1408C45.6615 22.219 45.5106 22.1918 45.4335 22.0796C45.4335 22.0796 45.4301 22.0762 45.4301 22.0728C45.353 21.9572 45.3832 21.8042 45.4939 21.726C46.2517 21.2024 46.9592 20.6788 47.6433 20.1756L47.9384 19.958C48.049 19.8764 48.2033 19.9002 48.2838 20.0124C48.3441 20.1042 48.3374 20.2164 48.2771 20.3014ZM43.2908 23.6946C43.2706 23.7286 43.2405 23.7558 43.2036 23.7762C42.325 24.2862 41.4129 24.735 40.474 25.1192C40.3499 25.177 40.2024 25.1226 40.1454 24.9968C40.0884 24.871 40.142 24.7214 40.2661 24.6636C40.2728 24.6602 40.2829 24.6568 40.2896 24.6534C41.2084 24.2794 42.1003 23.8408 42.9621 23.3444C43.0795 23.2764 43.2304 23.3172 43.2975 23.4396C43.341 23.5212 43.3411 23.6198 43.2908 23.6946ZM37.721 25.908C37.6841 25.9658 37.6271 26.0032 37.5634 26.0168C36.5641 26.2242 35.548 26.3262 34.532 26.3228C34.3979 26.3194 34.2872 26.2072 34.2906 26.0712C34.2906 25.9352 34.4012 25.823 34.5354 25.823C34.5354 25.823 34.5354 25.823 34.5387 25.823C35.5212 25.8298 36.5037 25.7312 37.4695 25.5272C37.6003 25.4966 37.731 25.5816 37.7612 25.7176C37.7713 25.7822 37.7579 25.8502 37.721 25.908ZM31.7656 25.8536C31.7086 25.942 31.6046 25.9828 31.504 25.959C30.5081 25.7312 29.5423 25.3946 28.6202 24.9526C28.4961 24.8914 28.4458 24.7418 28.5028 24.616C28.5632 24.4902 28.7107 24.4392 28.8348 24.497C29.7234 24.9254 30.659 25.2484 31.618 25.4694C31.7521 25.5 31.836 25.6326 31.8058 25.7686C31.7957 25.8026 31.7823 25.8298 31.7656 25.8536ZM30.0017 22.7052C29.6966 23.1778 29.3579 23.6266 28.989 24.0516C28.8985 24.157 28.7409 24.1672 28.6403 24.0754C28.5364 23.9836 28.5263 23.8238 28.6168 23.7218C28.9723 23.3172 29.2942 22.8854 29.5893 22.4332C29.8341 22.0558 30.052 21.6648 30.2465 21.2602C30.3035 21.1344 30.4477 21.0766 30.5718 21.1344C30.6959 21.1922 30.7529 21.3384 30.6959 21.4642C30.6925 21.4676 30.6925 21.4744 30.6892 21.4778C30.488 21.8994 30.2566 22.3108 30.0017 22.7052ZM26.796 26.0746C26.7826 26.0984 26.7625 26.1188 26.739 26.1358C25.9309 26.7512 25.0959 27.3224 24.2308 27.8528C24.1134 27.9242 23.9591 27.8868 23.8854 27.7678C23.8149 27.6488 23.8518 27.4924 23.9692 27.4176C24.9886 26.7818 25.7498 26.2616 26.4406 25.7312C26.5445 25.6462 26.6988 25.6632 26.7859 25.7686C26.853 25.8536 26.8597 25.976 26.796 26.0678V26.0746ZM31.4839 18.5844C31.4135 18.7 31.2592 18.7374 31.1452 18.6626C31.0647 18.6116 31.0211 18.5198 31.0312 18.428C31.0714 17.9112 31.0513 17.391 30.9675 16.8776C30.8937 16.4288 30.7562 15.997 30.5617 15.589C30.5014 15.4632 30.555 15.3136 30.6791 15.2524C30.8032 15.1912 30.9507 15.2456 31.0111 15.3714C31.2223 15.8236 31.3732 16.303 31.4571 16.796C31.5442 17.3468 31.5677 17.9112 31.5275 18.4688C31.5208 18.5096 31.5074 18.5504 31.4839 18.5844ZM26.4037 23.2356C26.397 23.2424 26.3936 23.2526 26.3869 23.2594C26.2997 23.3648 26.1421 23.3784 26.0382 23.29C25.2434 22.6236 24.5661 21.8212 24.0396 20.9202C23.9692 20.8012 24.0128 20.6448 24.1302 20.5768C24.2475 20.5054 24.4018 20.5496 24.4688 20.6686C24.9685 21.5186 25.6089 22.2734 26.3601 22.9058C26.4573 22.9874 26.4741 23.1302 26.4037 23.2356ZM21.7326 29.3386C21.7124 29.3692 21.6856 29.3964 21.6554 29.4134C21.357 29.6004 21.0586 29.7874 20.7601 29.9744C20.18 30.3484 19.6569 30.7054 19.1606 31.0658C19.0533 31.1508 18.8991 31.1338 18.8119 31.025C18.728 30.9162 18.7448 30.7598 18.8521 30.6714C18.8555 30.668 18.8622 30.6646 18.8689 30.6612C19.3752 30.2906 19.905 29.9268 20.4952 29.546C20.7937 29.3556 21.0954 29.1652 21.3972 28.9782C21.5113 28.9034 21.6621 28.9374 21.7359 29.053C21.7896 29.138 21.7862 29.2468 21.7292 29.3284L21.7326 29.3386ZM13.0845 40.9564C13.0375 41.0312 12.9571 41.072 12.8699 41.0686C12.7324 41.0652 12.6251 40.953 12.6284 40.8136C12.6486 39.7698 12.8296 38.7396 13.1616 37.7502C13.2052 37.6176 13.346 37.5496 13.4768 37.5938C13.6076 37.638 13.6747 37.7808 13.6311 37.9134C13.3159 38.8518 13.1448 39.831 13.1247 40.8238C13.1214 40.8714 13.108 40.919 13.0845 40.9564ZM16.9139 32.9562C16.9039 32.9732 16.8938 32.9868 16.8804 33.0004C16.1661 33.6906 15.5257 34.4488 14.9623 35.2682C14.8818 35.3804 14.7276 35.4076 14.6169 35.3294C14.5096 35.2512 14.4794 35.105 14.5499 34.9894C15.1333 34.1428 15.7973 33.3574 16.535 32.6434C16.6322 32.5448 16.7865 32.5448 16.8837 32.6434C16.9642 32.7284 16.9776 32.8576 16.9139 32.9562ZM29.0192 13.3756C28.9455 13.4878 28.8013 13.5218 28.6873 13.4538C28.0233 13.0356 27.2319 12.8792 26.464 13.0186C26.3098 13.0492 26.1589 13.09 26.0113 13.1444C25.8839 13.192 25.7397 13.124 25.6961 12.9914C25.6525 12.8588 25.7163 12.716 25.847 12.6718C26.018 12.6106 26.1958 12.563 26.3768 12.529C27.2621 12.3692 28.1776 12.5494 28.9421 13.0288C29.0595 13.1002 29.0997 13.2532 29.0293 13.3722L29.0192 13.3756ZM23.5232 18.071C23.4494 18.1866 23.2952 18.2206 23.1812 18.1424C23.1175 18.0982 23.0772 18.0302 23.0705 17.952C22.99 16.8912 23.1778 15.827 23.6138 14.858C23.6741 14.7322 23.8183 14.6812 23.9424 14.739C24.0664 14.7968 24.1201 14.9464 24.0597 15.0722C23.6607 15.9596 23.4863 16.932 23.5601 17.9044C23.5668 17.9622 23.5534 18.02 23.5232 18.071Z" fill="#110580"/>
<path d="M52.1066 17.986C52.0731 18.037 52.0228 18.0744 51.9624 18.0914C51.5198 18.224 51.0939 18.4144 50.6983 18.6592C50.5809 18.7272 50.43 18.6864 50.3596 18.5674C50.2925 18.4484 50.3328 18.2954 50.4535 18.224C50.886 17.9554 51.3521 17.748 51.8384 17.6052C51.9691 17.5712 52.1033 17.6528 52.1402 17.7854C52.1569 17.8534 52.1469 17.9282 52.1066 17.986Z" fill="#110580"/>
<path d="M9.11757 48.8784C10.438 48.8784 11.5084 47.793 11.5084 46.4542C11.5084 45.1154 10.438 44.03 9.11757 44.03C7.79712 44.03 6.72668 45.1154 6.72668 46.4542C6.72668 47.793 7.79712 48.8784 9.11757 48.8784Z" fill="#FF5856"/>
<path d="M56.0852 6.9142C56.3116 5.942 55.7179 4.96778 54.759 4.73821C53.8002 4.50865 52.8394 5.11068 52.613 6.08288C52.3865 7.05508 52.9803 8.0293 53.9391 8.25886C54.898 8.48843 55.8588 7.8864 56.0852 6.9142Z" fill="#FF5856"/>
<path d="M46.4931 37.4544C46.3523 36.3324 45.5575 35.4042 44.6756 34.7072C42.1841 32.7454 38.8141 32.0926 35.6922 32.6026C34.5286 32.793 33.365 33.1432 32.3926 33.8198C30.394 35.2172 29.5255 38.0256 30.3069 40.358C30.4242 40.613 30.5952 40.8442 30.8031 41.0312C29.8307 42.9012 29.2606 44.285 28.4391 46.2128C30.3706 44.727 32.4462 43.4452 34.6326 42.3878L34.9042 42.534C37.513 44.1456 40.9636 43.3636 43.5892 41.7826C45.1652 40.8408 46.7245 39.2904 46.4931 37.4544Z" fill="#FCFAF8"/>
<path d="M34.6594 38.777C35.1854 38.777 35.6118 38.3645 35.6118 37.8556C35.6118 37.3467 35.1854 36.9342 34.6594 36.9342C34.1335 36.9342 33.7071 37.3467 33.7071 37.8556C33.7071 38.3645 34.1335 38.777 34.6594 38.777Z" fill="#D6D7F0"/>
<path d="M37.9793 38.777C38.5053 38.777 38.9316 38.3645 38.9316 37.8556C38.9316 37.3467 38.5053 36.9342 37.9793 36.9342C37.4534 36.9342 37.027 37.3467 37.027 37.8556C37.027 38.3645 37.4534 38.777 37.9793 38.777Z" fill="#D6D7F0"/>
<path d="M41.071 38.777C41.597 38.777 42.0234 38.3645 42.0234 37.8556C42.0234 37.3467 41.597 36.9342 41.071 36.9342C40.5451 36.9342 40.1187 37.3467 40.1187 37.8556C40.1187 38.3645 40.5451 38.777 41.071 38.777Z" fill="#D6D7F0"/>
<path d="M41.5807 41.6636C42.2882 39.5216 44.4947 38.2874 46.6207 37.6108C51.5433 36.057 56.8582 36.363 61.5763 38.471C63.7592 39.4536 65.8752 40.936 66.8308 43.1562C67.6591 45.0908 67.4747 47.3926 66.529 49.2592C65.5801 51.1258 63.9169 52.5878 62.029 53.4684C62.6862 55.1752 63.6855 57.2662 64.3427 58.973L60.3322 56.576C59.6615 56.1408 58.9439 55.7838 58.1928 55.5152C57.1533 55.1922 56.0434 55.216 54.967 55.1514C51.9289 54.9712 48.8942 54.06 46.4128 52.2648C43.9313 50.4696 42.0435 47.7802 41.4835 44.7474C41.2957 43.724 41.2588 42.6496 41.5807 41.6636Z" fill="white"/>
<path d="M61.5461 42.7822H47.1505C46.8218 42.7822 46.5536 42.5102 46.5536 42.177C46.5536 41.8438 46.8218 41.5718 47.1505 41.5718H61.5461C61.8747 41.5718 62.1429 41.8438 62.1429 42.177C62.1429 42.5136 61.8747 42.7822 61.5461 42.7822Z" fill="#D6D7F0"/>
<path d="M56.8314 45.6722H47.1472C46.8186 45.6722 46.5503 45.4002 46.5503 45.067C46.5503 44.7338 46.8186 44.4618 47.1472 44.4618H56.8314C57.16 44.4618 57.4283 44.7338 57.4283 45.067C57.4317 45.4036 57.1634 45.6722 56.8314 45.6722Z" fill="#D6D7F0"/>
<path d="M53.4747 48.5622H47.1505C46.8218 48.5622 46.5536 48.2902 46.5536 47.957C46.5536 47.6238 46.8218 47.3518 47.1505 47.3518H53.4747C53.8034 47.3518 54.0716 47.6238 54.0716 47.957C54.0716 48.2936 53.8034 48.5622 53.4747 48.5622Z" fill="#D6D7F0"/>
<path d="M56.4022 47.3518H60.3725C60.7011 47.3518 60.9693 47.6238 60.9693 47.957C60.9693 48.2902 60.7011 48.5622 60.3725 48.5622H56.4022C56.0736 48.5622 55.8053 48.2902 55.8053 47.957C55.8053 47.6238 56.0736 47.3518 56.4022 47.3518Z" fill="#D6D7F0"/>
<path d="M32.6474 10.8358C32.6474 10.8358 33.0565 8.55779 32.9425 8.52039L17.5376 3.47479L32.6474 10.8358Z" fill="#4E53BA"/>
<path d="M36.1885 5.6746L21.5984 3.6142L34.4146 2.9478L32.4932 0L17.5376 3.4748L39.4177 10.6386L36.1885 5.6746Z" fill="#868AE0"/>
<path d="M33.4187 5.28361L34.4147 2.94781L21.5984 3.61422L33.4187 5.28361Z" fill="#4E53BA"/>
<path d="M48.2135 58.667C48.1397 58.6568 45.8863 60.2242 45.8863 60.2242L51.1442 65.0896L44.7999 61.2408L42.3855 63.8554L54.7993 67.5614L48.2135 58.667Z" fill="#868AE0"/>
<path d="M45.7253 61.8086L45.8863 60.2242L51.1442 65.093L45.7253 61.8086Z" fill="#4E53BA"/>
<path d="M70.8246 31.603C70.8346 31.3548 70.8346 30.2362 70.3786 30.294C69.4967 30.3994 68.5745 30.855 67.7597 31.4466C68.5242 27.7508 68.5008 23.9326 67.6926 20.2504C67.5685 19.6826 67.1393 19.5568 66.804 20.0158C66.405 20.5564 66.2608 21.5424 66.3848 22.1952C67.0085 25.2348 66.9314 28.3798 66.1568 31.382C65.409 29.8146 64.222 27.9786 63.4641 29.308C63.1858 29.8486 63.102 30.4742 63.2261 31.0726C63.2965 31.3922 63.4407 31.705 63.7257 31.6098C64.1549 31.739 64.6076 32.8406 64.7987 33.1976C65.1341 33.847 65.409 34.527 65.6236 35.2274C65.6438 35.292 65.6706 35.3532 65.7008 35.411C65.8181 35.8292 66.083 36.2474 66.5123 35.836C67.0488 35.292 67.6222 34.7922 68.2325 34.34C68.8763 33.8878 69.5939 33.5716 70.2378 33.1364C70.6804 32.8304 70.8011 32.1164 70.8246 31.603Z" fill="#EBDBCD"/>
<path d="M12.2797 19.0978C11.6359 17.7242 12.1858 16.8436 12.6016 15.453C12.776 14.8614 12.833 14.2392 12.7626 13.6272C12.7995 12.9268 12.6821 12.2876 12.2261 12.3488L12.0785 12.376C11.9544 12.3522 11.827 12.3862 11.7298 12.4678C10.9283 12.7228 10.1269 13.277 9.36571 13.6C8.30272 14.0522 7.20285 14.3548 6.11639 14.7492C5.25795 15.062 5.21436 18.5878 6.1298 18.4552C6.89099 18.3294 7.63542 18.1322 8.35973 17.8636C5.86154 22.0116 3.90994 26.4962 3.22922 31.3514C3.16551 31.8104 3.04814 32.9868 3.57461 33.252C4.10107 33.5172 4.35257 32.5754 4.40287 32.2252C5.13388 27.3632 7.70919 23.137 10.2342 18.9992C10.3247 20.196 10.7976 21.3316 11.5789 22.2326C12.0081 22.712 12.4172 21.4574 12.4574 21.2772C12.6452 20.5496 12.5815 19.7812 12.2797 19.0978Z" fill="#EBDBCD"/>
</g>
<defs>
<clipPath id="clip0_40_4730">
<rect width="74" height="68" fill="white"/>
</clipPath>
</defs>
</svg>
