<svg width="81" height="87" viewBox="0 0 81 87" fill="none" xmlns="http://www.w3.org/2000/svg">
<g clip-path="url(#clip0_40_4614)">
<path d="M8.9184 21.7631L50.4326 2.84926L60.2217 37.1186L13.0788 35.5439L8.9184 21.7631Z" fill="#EBDBCD"/>
<path d="M38.0551 12.2452L36.4502 23.2725C36.4314 23.4117 36.5114 23.5552 36.6526 23.6118C37.1185 23.7988 38.2057 24.1947 39.4246 24.2513C40.4082 24.2991 42.1543 24.0555 43.1614 23.7727C43.345 23.7162 43.4673 23.5292 43.3967 23.3595L38.7234 12.1626C38.601 11.8494 38.1021 11.9059 38.0551 12.2452Z" fill="#110580"/>
<path d="M43.425 21.8109C47.2952 21.8109 50.4326 18.911 50.4326 15.3338C50.4326 11.7565 47.2952 8.85661 43.425 8.85661C39.5547 8.85661 36.4173 11.7565 36.4173 15.3338C36.4173 18.911 39.5547 21.8109 43.425 21.8109Z" fill="#FCB58A"/>
<path d="M32.9252 65.1935H23.3385V71.8968H32.9252V65.1935Z" fill="#F8D7BC"/>
<path d="M22.3925 64.6802V65.1935H32.9346V71.8968H22.3925V72.4058H62.9325V64.6802H22.3925Z" fill="#4E53BA"/>
<path d="M18.3733 60.7173C18.6087 62.0876 18.9005 63.4491 19.2581 64.802C19.8794 67.1858 23.8468 66.1722 23.2302 63.7884C22.8726 62.4356 22.5902 61.074 22.3455 59.7038C22.1713 58.6902 20.8018 58.1247 19.8182 58.3727C18.6369 58.6815 18.1992 59.7038 18.3733 60.7173Z" fill="#E3996D"/>
<path d="M81 46.7973L73.8511 50.6253L73.7194 42.8083L81 46.7973Z" fill="#2B31BA"/>
<path d="M42.1637 40.5246C42.1213 40.5072 42.0837 40.4854 42.0413 40.4854C41.3589 40.381 36.1208 39.5458 30.6756 38.5801C28.2472 38.1495 21.1783 36.3007 17.4839 37.6318C13.7894 38.9629 13.0553 40.9639 12.7305 42.3733C12.4481 43.6392 12.9423 47.95 14.1518 52.3218C15.2296 56.2368 17.8604 61.1914 18.4063 62.1963C18.4675 62.3181 18.5993 62.392 18.7405 62.4007C19.0746 62.4181 19.757 62.4094 20.6277 62.1658C21.3995 61.9483 22.2231 61.5481 22.5996 61.3567C22.722 61.2915 22.802 61.1697 22.802 61.0392C22.8208 59.9517 22.9149 54.8622 22.7737 51.2865C22.6326 47.8152 21.343 46.6668 21.343 46.6668C21.343 46.6668 25.7905 51.2299 30.3321 52.4784C33.9277 53.4658 41.4624 55.6495 44.578 55.5669C48.1924 55.4712 50.8044 54.0661 51.9716 52.3653C54.1365 49.2202 52.7952 44.5657 52.4469 43.5435C52.4046 43.413 52.2963 43.3173 52.1504 43.2912C50.9644 43.0302 45.3169 41.7817 43.8532 41.2162C42.6625 40.7508 42.286 40.5811 42.1637 40.5246Z" fill="#FF8A91"/>
<path d="M52.2822 39.063C52.2822 39.063 52.2022 39.9286 52.2916 41.1553C52.3811 42.3951 52.5881 43.3434 52.5881 43.3434C52.5881 43.3434 47.1759 42.5343 45.124 41.8035C42.5355 40.8726 42.1166 40.4985 42.1166 40.4985C42.1166 40.4985 42.6061 39.4936 42.7755 38.7715C42.9073 38.2365 42.9779 36.7618 42.9779 36.7618C42.9779 36.7618 45.7828 37.9929 47.7407 38.4235C49.7032 38.8542 52.2822 39.063 52.2822 39.063Z" fill="#FCB58A"/>
<path d="M5.21928 11.2491C8.10181 11.2491 10.4386 9.08925 10.4386 6.42495C10.4386 3.76064 8.10181 1.6008 5.21928 1.6008C2.33675 1.6008 0 3.76064 0 6.42495C0 9.08925 2.33675 11.2491 5.21928 11.2491Z" fill="#4E53BA"/>
<path d="M46.0982 83.9115H14.0248V73.08H46.084C47.6795 73.08 48.9784 74.2719 48.9784 75.7553V81.245C48.9925 82.7109 47.6889 83.9115 46.0982 83.9115Z" fill="#F8ECE2"/>
<path d="M65.0974 72.4058H12.6317C12.4293 72.4058 12.2646 72.558 12.2646 72.7451C12.2646 72.9321 12.4293 73.0844 12.6317 73.0844H19.0699H43.119C46.357 73.0844 48.9784 75.5073 48.9784 78.5001C48.9784 81.4929 46.357 83.9159 43.119 83.9159H13.4176H12.627C12.4246 83.9159 12.2599 84.0681 12.2599 84.2552C12.2599 84.4422 12.4246 84.5945 12.627 84.5945H65.1021C68.3401 84.5945 70.9615 82.1715 70.9615 79.1787V77.8346C70.9568 74.8244 68.3354 72.4058 65.0974 72.4058Z" fill="#FF5856"/>
<path d="M44.2486 75.4247H14.0248V75.0506H44.2486C44.3615 75.0506 44.451 75.1332 44.451 75.2376C44.451 75.342 44.3615 75.4247 44.2486 75.4247Z" fill="#EBD0BE"/>
<path d="M30.3038 70.3004H23.3385V69.9263H30.3038C30.4168 69.9263 30.5062 70.0089 30.5062 70.1133C30.5062 70.2177 30.4168 70.3004 30.3038 70.3004Z" fill="#E0C1A6"/>
<path d="M28.6613 68.1906H23.3385V67.8165H28.6519C28.7649 67.8165 28.8543 67.8992 28.8543 68.0036C28.8637 68.1036 28.7696 68.1906 28.6613 68.1906Z" fill="#E0C1A6"/>
<path d="M46.4417 79.6398H14.0248V79.2657H46.4417C46.5547 79.2657 46.6441 79.3484 46.6441 79.4528C46.6441 79.5572 46.5547 79.6398 46.4417 79.6398Z" fill="#EBD0BE"/>
<path d="M42.4508 81.9801H14.0248V81.606H42.4508C42.5637 81.606 42.6532 81.6887 42.6532 81.7931C42.6532 81.8931 42.5637 81.9801 42.4508 81.9801Z" fill="#EBD0BE"/>
<path d="M45.4675 77.5779H14.0248V77.2038H45.4675C45.5805 77.2038 45.6699 77.2864 45.6699 77.3908C45.6699 77.4909 45.5899 77.5779 45.4675 77.5779Z" fill="#EBD0BE"/>
<path d="M42.0225 64.0581H29.6967V60.0387H42.0272C42.3613 60.0387 42.6343 60.291 42.6343 60.5998V63.4926C42.6343 63.8145 42.3566 64.0581 42.0225 64.0581Z" fill="#F8D0B3"/>
<path d="M64.2456 59.4297H39.7494H29.0049H28.6802C28.4966 59.4297 28.346 59.5689 28.346 59.7385C28.346 59.9082 28.4966 60.0474 28.6802 60.0474H29.6967H41.4154C42.0837 60.0474 42.6343 60.5563 42.6343 61.174V62.9314C42.6343 63.5491 42.0837 64.0581 41.4154 64.0581H38.7328H28.7508C28.5672 64.0581 28.4166 64.1973 28.4166 64.3669C28.4166 64.5366 28.5672 64.6758 28.7508 64.6758H29.0049H39.8294H64.2456C64.9139 64.6758 65.4645 64.1668 65.4645 63.5491V60.5433C65.4645 59.9299 64.9139 59.4297 64.2456 59.4297Z" fill="#FF7A82"/>
<path d="M21.8043 34.8305C25.4422 33.321 29.645 35.3481 33.2688 35.918C36.822 36.4791 40.7142 36.0398 43.1802 33.3558C43.7403 32.7468 43.8297 31.8551 43.1802 31.2548C42.6014 30.7197 41.4625 30.6371 40.9071 31.2548C38.5822 33.7778 34.9772 33.321 31.8569 32.5859C27.946 31.655 24.068 30.6501 20.19 32.2553C19.3994 32.5859 19.2064 33.656 19.6111 34.2911C20.0771 35.0523 21.0136 35.1567 21.8043 34.8305Z" fill="#F0A173"/>
<path d="M22.9714 35.757C26.92 34.5651 30.8215 36.9228 34.516 37.9233C38.0504 38.8803 41.9802 38.7324 44.7428 36.2529C46.2347 34.9218 43.9521 32.8077 42.4696 34.1519C39.98 36.3878 36.3373 35.4482 33.4712 34.4607C29.8238 33.2123 26.0352 31.7028 22.1196 32.8817C20.1571 33.4776 20.9995 36.3573 22.9714 35.757Z" fill="#FCB58A"/>
<path d="M47.8348 24.5123C48.1783 24.608 51.2562 25.752 52.414 29.5626C53.3788 32.7077 54.1788 37.3709 54.433 38.9021C54.4847 39.1935 54.2683 39.4763 53.9576 39.5328C53.0352 39.7025 51.0445 39.9635 48.536 39.759C45.0439 39.4676 42.8178 38.5932 42.8178 38.5932L42.9073 37.8624L42.5919 37.9929C42.3472 38.0973 42.0554 38.0321 41.9001 37.832L39.627 35.0349C39.4764 34.8479 39.547 34.5825 39.7588 34.4825L39.787 34.4651L37.9468 32.4206C37.7727 32.2248 37.7821 31.9421 37.9892 31.7637C38.6387 31.1808 40.0506 29.8671 41.0577 28.6013C41.7872 27.6834 42.752 26.0087 43.3544 25.3649C44.5545 24.0512 46.9312 24.2687 47.8348 24.5123Z" fill="white"/>
<path d="M47.943 25.7042L45.6981 20.3841L41.4342 20.3537L43.6697 25.6781L47.943 25.7042Z" fill="#FCB58A"/>
<path d="M44.0368 26.8699C44.6769 27.0091 45.5381 26.448 46.2629 26.1478C47.0347 25.8303 47.9383 25.6954 47.9383 25.6954L43.6744 25.6693C43.6697 25.678 43.3638 26.7264 44.0368 26.8699Z" fill="#FCB58A"/>
<path d="M42.5402 31.1765C42.5402 31.1765 42.1119 32.2379 41.6884 32.8295C41.2601 33.4211 39.787 34.4607 39.787 34.4607L39.2364 33.8517C39.2364 33.8517 40.2624 33.3732 40.9824 32.7251C41.5142 32.264 42.5402 31.1765 42.5402 31.1765Z" fill="#E0E0E0"/>
<path d="M42.9073 37.8624C42.9073 37.8624 44.2297 37.1403 44.818 36.5487C45.4063 35.9571 46.2299 34.7739 46.2299 34.7739C46.2299 34.7739 45.3263 36.5835 44.8792 37.3665C44.258 38.4366 43.7826 38.9151 43.7826 38.9151L42.8273 38.6062C42.8273 38.6062 42.8367 38.4279 42.8696 38.2582C42.8885 38.0755 42.9073 37.8624 42.9073 37.8624Z" fill="#E0E0E0"/>
<path d="M18.6558 34.4259C19.5782 33.8909 20.543 33.4689 21.5784 33.1688C22.4396 32.9252 22.0772 31.6463 21.2019 31.8942C20.0535 32.2248 18.957 32.6816 17.9404 33.2819C17.1827 33.7299 17.8839 34.874 18.6558 34.4259Z" fill="#F0A173"/>
<path d="M53.2932 8.97682C53.7543 7.69819 53.0066 6.31618 51.6233 5.89002C50.2399 5.46385 48.7447 6.15492 48.2836 7.43354C47.8226 8.71217 48.5702 10.0942 49.9536 10.5203C51.3369 10.9465 52.8321 10.2554 53.2932 8.97682Z" fill="#110580"/>
<path d="M43.265 17.2739C43.9944 17.5262 44.3192 17.5175 44.3192 17.5175C44.2298 17.0651 44.1356 16.5866 44.1356 16.5518C44.1356 16.5518 42.9167 16.1777 42.1025 15.4251C40.8836 14.2985 41.4954 13.1718 40.4788 12.2322C39.6364 11.4536 38.5681 11.1056 38.2151 11.0099C38.2057 11.0186 38.1963 11.0186 38.1963 11.0273C38.2151 11.036 39.5046 11.5232 40.3612 12.5846C41.2224 13.646 40.4412 14.6856 41.4766 15.9645C42.1072 16.7519 42.6249 17.0607 43.265 17.2739Z" fill="#E3996D"/>
<path d="M46.0981 21.3194C45.2745 21.6369 44.3709 21.8066 43.425 21.8066C42.9355 21.8066 42.4508 21.7587 41.9943 21.6674L42.592 23.0855C42.7661 23.0681 42.9261 23.0376 43.1002 23.0028C44.2862 22.7505 45.3357 22.2155 46.1782 21.4934L46.0981 21.3194Z" fill="#E3996D"/>
<path d="M45.1004 22.3068C43.7073 22.3068 42.5731 21.2541 42.5731 19.9709C42.5731 18.6833 43.712 17.6349 45.1004 17.6349C46.4888 17.6349 47.6277 18.6876 47.6277 19.9709C47.6277 21.2541 46.4935 22.3068 45.1004 22.3068ZM45.1004 18.0177C43.9332 18.0177 42.9873 18.8921 42.9873 19.9709C42.9873 21.0497 43.9332 21.924 45.1004 21.924C46.2676 21.924 47.2135 21.0497 47.2135 19.9709C47.2135 18.8921 46.2676 18.0177 45.1004 18.0177Z" fill="white"/>
<path d="M53.2752 23.5944C53.5576 23.4987 53.7223 23.2203 53.6188 22.9463L50.2585 13.5503C49.4161 10.788 46.677 8.76091 43.4155 8.76091C41.293 8.76091 39.3917 9.62656 38.0833 10.9751C38.1021 10.9751 39.4528 11.2926 40.46 12.2322C41.4765 13.1718 40.8647 14.2985 42.0837 15.4251C42.8979 16.1777 44.1168 16.5518 44.1168 16.5518C44.1168 16.6649 44.7145 19.5011 45.1945 21.6978C45.2981 22.1763 45.3969 22.7418 45.4769 23.1725C45.5193 23.3769 45.6699 23.5466 45.8816 23.6336C47.11 24.0947 48.5313 24.3296 50.0467 24.2643C51.1433 24.2121 52.5363 23.8163 53.2752 23.5944Z" fill="#110580"/>
<path d="M52.5222 42.7127C52.5222 42.7127 53.0117 44.5527 52.8564 44.5527C52.7058 44.544 46.8229 43.4739 45.3028 43.1651C41.9425 42.4995 41.4248 40.3854 41.4248 40.3854C41.4248 40.3854 41.6884 40.3767 41.9754 40.181C42.2578 39.9852 42.3614 39.9069 42.3614 39.9069C42.3614 39.9069 42.8367 40.9944 45.764 41.7861C49.8114 42.8736 52.5222 42.7127 52.5222 42.7127Z" fill="#FFADB2"/>
<path d="M18.9899 63.7493C18.9899 63.7493 20.3312 63.7406 21.0089 63.6275C21.6866 63.5144 22.9997 62.9141 22.9997 62.9141C22.9997 62.9141 23.7715 64.4931 23.9927 64.902C24.2139 65.3153 25.1693 66.3549 25.2916 67.0335C25.414 67.7078 25.4422 69.2303 22.6091 69.4652C21.3007 69.5696 20.0582 72.036 18.6275 72.2144C17.9169 72.3101 14.5566 72.645 13.6012 72.1665C12.6552 71.688 12.9517 70.3917 15.2578 69.687C17.5639 68.9823 17.1262 68.2776 17.6769 67.3685C18.2181 66.4637 18.9899 63.7493 18.9899 63.7493Z" fill="#AB534D"/>
<path d="M11.1398 61.3263C10.9374 62.8575 10.7444 64.3757 10.5421 65.9069C10.4103 66.9291 11.5869 67.8122 12.6034 67.8122C13.8224 67.8122 14.5236 66.9291 14.6648 65.9069C14.8672 64.3757 15.0601 62.8575 15.2625 61.3263C15.3943 60.3041 14.2177 59.421 13.2011 59.421C11.9728 59.4297 11.2715 60.3041 11.1398 61.3263Z" fill="#FCB58A"/>
<path d="M43.5991 55.5191C46.5735 55.7931 49.3266 55.0232 51.4209 53.1527C53.5011 51.2865 53.3787 48.1415 53.2611 46.8713C53.1717 45.8664 52.8046 44.2439 52.6634 43.6044C52.621 43.4435 52.4893 43.3217 52.3198 43.2956C51.2515 43.1172 47.5382 42.4995 46.4276 42.1776C45.5239 41.9166 44.7192 41.6339 44.3238 41.4816C44.1732 41.4251 43.9991 41.4555 43.8767 41.5556C43.5426 41.8383 42.7284 42.3516 41.4201 42.2298C39.6317 42.0602 31.7722 39.8156 28.6754 38.9369C25.5787 38.0582 20.3782 35.9223 15.5637 37.397C12.4952 38.3366 10.1891 41.0466 10.1326 46.7451C10.0903 51.1647 10.0809 56.8284 10.1609 58.9556C10.222 60.6347 10.1515 62.4095 10.1185 63.0837C10.1091 63.2621 10.222 63.4143 10.3915 63.4796C10.7068 63.5927 11.2668 63.7623 12.0669 63.9189C13.0599 64.1147 14.293 64.0407 14.8389 63.9842C15.0131 63.9668 15.1542 63.8624 15.206 63.7101C15.5025 62.901 16.4673 60.2171 17.338 57.9638C19.5217 52.3218 19.7052 49.2899 19.6017 47.9196C19.5735 47.5803 19.9782 47.3672 20.2841 47.5629C21.7242 48.4808 24.8257 50.3687 28.2989 51.8042C33.057 53.8008 39.8905 55.1711 43.5991 55.5191Z" fill="#FFADB2"/>
<path d="M47.783 42.6865C47.8018 44.6658 47.1335 46.6929 45.5804 48.111C44.8792 48.7505 44.018 49.2551 43.072 49.5204C41.9331 49.838 40.7377 49.7814 39.5799 49.6161C35.2454 48.9766 31.2733 47.1279 27.353 45.4009C25.381 44.5266 23.4044 43.674 21.343 42.9867C20.8253 42.8171 20.3077 42.6474 19.79 42.5082C19.2111 42.3473 18.6134 42.1993 18.011 42.2646C17.0368 42.3603 16.2838 42.978 15.7755 43.7088C15.239 44.4874 14.9754 45.4271 14.7589 46.3275C14.5142 47.3237 14.3636 48.3372 14.2601 49.3507C14.1095 50.8167 14.0671 52.2783 13.9259 53.7443C13.6294 56.6544 13.2765 59.582 12.7164 62.466C12.674 62.7009 12.627 62.9271 12.5752 63.1533C12.5046 63.4709 13.0317 63.6144 13.1023 63.2838C13.3753 62.0832 13.5588 60.8608 13.733 59.6429C13.9683 58.0638 14.1706 56.4804 14.3542 54.8927C14.5048 53.5616 14.6083 52.2348 14.6883 50.895C14.8013 48.9158 15.0319 46.8756 15.7331 44.9833C16.0296 44.1742 16.5332 43.339 17.3898 42.9388C18.4063 42.4603 19.6347 42.9563 20.6183 43.2782C22.6984 43.935 24.7127 44.7789 26.6894 45.6619C30.6191 47.3889 34.5724 49.2768 38.8975 50.0163C40.0741 50.2121 41.2742 50.3556 42.4602 50.1772C43.4344 50.025 44.3803 49.6422 45.171 49.0984C46.8888 47.9326 47.9242 46.123 48.2395 44.1873C48.3195 43.6914 48.3619 43.1824 48.3524 42.6778C48.3289 42.3559 47.783 42.3559 47.783 42.6865Z" fill="white"/>
<path d="M18.4204 35.4482C19.3335 34.6304 20.5336 34.3389 21.7525 34.1258C22.6137 33.9648 22.3125 32.7251 21.4372 32.886C19.997 33.147 18.571 33.5516 17.4886 34.5173C16.8579 35.0828 17.7804 36.0224 18.4204 35.4482Z" fill="#FCB58A"/>
<path d="M23.4091 35.8222L20.4442 36.4965C20.0065 36.6009 19.5594 36.3442 19.4605 35.944L18.9946 34.2084C18.8817 33.8039 19.1593 33.3906 19.5923 33.2992L22.5573 32.625C22.995 32.5206 23.4421 32.7772 23.5409 33.1774L24.0068 34.9131C24.1104 35.3176 23.8468 35.7309 23.4091 35.8222Z" fill="#FCB58A"/>
<path d="M48.0465 59.1513H28.0919V55.2928H48.0465C48.616 55.2928 49.0725 55.7148 49.0725 56.2411V58.1943C49.0725 58.7163 48.616 59.1513 48.0465 59.1513Z" fill="#F8E7D8"/>
<path d="M60.4759 54.9927H27.2353C27.1553 54.9927 27.0847 55.058 27.0847 55.1319C27.0847 55.2059 27.1553 55.2711 27.2353 55.2711H46.9453C48.103 55.2711 49.0396 56.1368 49.0396 57.2069C49.0396 58.277 48.103 59.1426 46.9453 59.1426H27.2353C27.1553 59.1426 27.0847 59.2079 27.0847 59.2818C27.0847 59.3558 27.1553 59.421 27.2353 59.421H60.4759C61.6336 59.421 62.5702 58.5554 62.5702 57.4853V56.9241C62.5702 55.854 61.6336 54.9927 60.4759 54.9927Z" fill="#2B31BA"/>
<path d="M3.70855 74.9288C4.20742 75.8597 6.70646 76.2729 9.28551 74.5634C13.187 71.9838 15.5213 72.7712 15.5213 70.6136C15.5213 69.6479 15.3096 68.7561 15.0319 67.7339C14.7778 66.803 14.7872 65.0499 14.7872 65.0499C14.7872 65.0499 12.9282 65.237 11.9822 65.076C11.2527 64.9542 10.7209 64.6932 10.7209 64.6932C10.7209 64.6932 10.448 66.0809 9.582 67.5468C8.97489 68.5778 8.52779 69.2085 7.4877 70.0916C6.85706 70.6223 2.87554 73.3889 3.70855 74.9288Z" fill="#C7645D"/>
<path d="M43.2649 58.2943H28.0919V58.116H43.2649C43.3167 58.116 43.3685 58.1551 43.3685 58.2117C43.3638 58.2465 43.3214 58.2943 43.2649 58.2943Z" fill="#DEBCA7"/>
<path d="M44.9169 56.3978H28.0919V56.2194H44.9074C44.9592 56.2194 45.011 56.2586 45.011 56.3151C45.011 56.3543 44.9686 56.3978 44.9169 56.3978Z" fill="#DEBCA7"/>
<path d="M46.7664 57.3113H28.0919V57.1329H46.7664C46.8182 57.1329 46.87 57.1721 46.87 57.2286C46.87 57.2634 46.8182 57.3113 46.7664 57.3113Z" fill="#DEBCA7"/>
<path d="M63.6055 1.07445C64.9845 2.39685 65.7704 3.8541 66.6317 5.48535C66.8764 5.93775 68.3589 5.03295 68.2459 4.5936C67.7894 2.84925 66.5517 1.32675 65.168 0.0869993C64.7209 -0.304501 63.2384 0.726449 63.6055 1.07445Z" fill="#F3E9E1"/>
<path d="M72.0251 0.913495C71.9827 2.52735 71.6203 4.04115 71.2815 5.61585C71.1309 6.31185 72.571 5.49404 72.7216 5.13734C73.3616 3.59745 73.5452 1.83135 73.5217 0.191395C73.517 -0.295805 72.0345 0.426295 72.0251 0.913495Z" fill="#F3E9E1"/>
<path d="M75.4748 7.5864C76.5526 7.0992 77.6491 6.6207 78.7457 6.1683C79.141 6.00735 79.6587 5.5767 79.5458 5.1243C79.4328 4.6719 78.8163 4.71105 78.4586 4.85025C77.362 5.31135 76.2749 5.78115 75.1877 6.26835C74.8018 6.4467 74.2747 6.85125 74.3877 7.31235C74.5006 7.76475 75.1313 7.74735 75.4748 7.5864Z" fill="#F3E9E1"/>
<path d="M38.9964 79.2657H34.2854C34.2854 79.2657 33.5229 79.5006 32.8735 80.6186C32.0734 82.0062 32.3558 83.3504 31.8381 84.3813C31.2404 85.5732 30.3038 86.0343 30.3038 86.0343C30.3038 86.0343 31.3486 86.1648 31.9793 86.0822C32.5487 86.0082 33.25 85.5645 33.25 85.5645C33.25 85.5645 33.3817 85.8168 33.4147 86.2605C33.457 86.739 33.4053 87 33.4053 87C33.4053 87 35.1325 86.6259 35.8337 85.7037C36.8079 84.4292 35.9984 82.8588 37.255 80.9274C37.8104 80.0705 38.9964 79.2657 38.9964 79.2657Z" fill="#BFA990"/>
<path d="M68.2101 16.814C68.3991 16.4448 67.7008 15.7733 66.6505 15.3141C65.6002 14.8549 64.5956 14.7819 64.4066 15.1511C64.2177 15.5203 64.916 16.1919 65.9663 16.6511C67.0166 17.1103 68.0212 17.1832 68.2101 16.814Z" fill="#D4BFA9"/>
<path d="M64.7633 14.5334C65.121 13.8852 65.4222 13.211 65.5445 12.4976C65.8175 10.949 65.3092 9.17415 66.3258 7.9257C67.0553 7.02525 68.406 6.7164 69.6155 6.8382C71.0886 6.99045 72.5287 7.74735 73.2535 8.9523C73.9782 10.1573 73.8512 11.7885 72.8252 12.7803C71.9639 13.6155 70.6415 13.907 69.7284 14.6943C69.2202 15.1337 68.8766 15.7079 68.5001 16.2603L68.3777 16.43C65.5116 16.2342 64.7633 14.5334 64.7633 14.5334Z" fill="#EBDBCD"/>
<path d="M69.7096 12.0017C69.5778 11.5971 69.2013 11.6363 68.8577 11.7755C68.7683 11.558 68.6224 11.2665 68.3683 11.1839C68.0859 11.0882 67.7706 11.2796 67.5541 11.4362C67.0882 11.7929 66.7305 12.3105 66.5281 12.8369C66.3258 13.3632 66.2316 13.9244 66.0528 14.4507C65.9822 14.6682 66.3493 14.7509 66.4199 14.5334C66.6552 13.8591 66.7258 13.1153 67.1023 12.4976C67.3141 12.1496 67.62 11.745 68.0153 11.5667C68.1471 11.5101 68.2365 11.4927 68.3306 11.6145C68.4012 11.7102 68.453 11.8103 68.4954 11.9147C68.4954 11.9234 68.5048 11.9321 68.5048 11.9408C68.453 11.9669 68.4154 11.9973 68.373 12.0234C67.9871 12.3062 67.4882 12.8021 67.5117 13.2893C67.5212 13.5068 67.6859 13.6938 67.9259 13.7025C68.1989 13.7112 68.4624 13.5068 68.6271 13.3197C68.933 12.9717 69.0225 12.5106 68.9425 12.08C69.0225 12.0321 69.1166 12.006 69.1966 11.9973C69.4319 11.9799 69.3378 12.3366 69.3095 12.4584C69.1966 12.863 68.966 13.2197 68.7401 13.5677C68.566 13.8287 68.4154 14.1114 68.2036 14.3463C67.9683 14.6073 67.6529 14.7987 67.3611 14.9945C67.1588 15.1163 67.3611 15.4164 67.5635 15.2946C67.9212 15.0771 68.2742 14.8422 68.5377 14.5334C68.8107 14.1941 69.046 13.82 69.2672 13.4546C69.5166 13.0718 69.8696 12.4802 69.7096 12.0017ZM68.5895 12.6368C68.5471 12.8238 68.4671 13.0022 68.3259 13.1457C68.2459 13.2284 67.8882 13.5198 67.9118 13.2588C67.9212 13.0979 68.053 12.9282 68.1471 12.7977C68.2695 12.6281 68.4295 12.4671 68.6036 12.3366C68.613 12.441 68.613 12.5367 68.5895 12.6368Z" fill="#BFA990"/>
<path d="M65.9587 16.6562C65.0127 16.2429 64.3633 15.66 64.3727 15.2772L63.9585 16.8258C63.8079 17.126 64.3633 17.6697 65.2198 18.0351C66.0622 18.4005 66.8764 18.4658 67.027 18.1656C67.0364 18.1482 67.0364 18.1395 67.0458 18.1178L68.1236 16.9085C67.8083 17.1608 66.9046 17.0694 65.9587 16.6562Z" fill="#BFA990"/>
<path d="M12.7634 36.6792C12.4293 36.7619 12.081 36.5835 11.9822 36.2747L7.55357 21.6108C7.46415 21.302 7.65711 20.9801 7.99126 20.8887C8.3254 20.8061 8.67367 20.9844 8.7725 21.2933L13.2011 35.9571C13.3047 36.2747 13.1117 36.5922 12.7634 36.6792Z" fill="#C5C6E3"/>
<path d="M11.9634 36.0876C11.9822 35.7701 12.2787 35.5134 12.6317 35.5352L29.0755 36.4269C29.419 36.4443 29.6967 36.7184 29.6732 37.0446C29.6543 37.3622 29.3578 37.6188 29.0049 37.5971L12.5611 36.7053C12.2175 36.6879 11.9446 36.4139 11.9634 36.0876Z" fill="#C5C6E3"/>
<path d="M76.5008 45.9969L75.7807 45.8186C75.7383 45.8099 75.7101 45.762 75.7195 45.7229C75.7289 45.6837 75.7807 45.6576 75.8231 45.6663L76.3831 45.8055L76.5337 45.2879C76.5431 45.2487 76.5949 45.2226 76.6373 45.2313C76.6796 45.24 76.7078 45.2879 76.6984 45.327L76.5008 45.9969Z" fill="#EBDBCD"/>
<path d="M74.5006 45.4923C74.4912 45.4923 74.4912 45.4923 74.4817 45.4923L73.1828 45.1617C73.1405 45.153 73.1122 45.1052 73.1216 45.066C73.131 45.0269 73.1828 45.0008 73.2252 45.0095L74.5241 45.3401C74.5665 45.3488 74.5947 45.3966 74.5853 45.4358C74.5712 45.4749 74.5429 45.4923 74.5006 45.4923ZM71.9027 44.8442C71.8933 44.8442 71.8933 44.8442 71.8839 44.8442L70.5849 44.5136C70.5426 44.5049 70.5143 44.457 70.5238 44.4179C70.5332 44.3787 70.5849 44.3526 70.6273 44.3613L71.9262 44.6919C71.9686 44.7006 71.9968 44.7485 71.9874 44.7876C71.9733 44.8268 71.9403 44.8442 71.9027 44.8442ZM69.3095 44.196C69.3001 44.196 69.3001 44.196 69.2907 44.196L67.9918 43.8654C67.9494 43.8567 67.9212 43.8089 67.9306 43.7697C67.94 43.7306 67.9918 43.7045 68.0341 43.7132L69.3331 44.0438C69.3754 44.0525 69.4037 44.1003 69.3942 44.1395C69.3707 44.1786 69.3425 44.196 69.3095 44.196Z" fill="#EBDBCD"/>
<path d="M66.7117 43.5479C66.7023 43.5479 66.7023 43.5479 66.6928 43.5479L65.9728 43.3695L66.1657 42.704C66.1751 42.6648 66.2269 42.6387 66.2693 42.6474C66.3116 42.6561 66.3399 42.704 66.3305 42.7431L66.1799 43.2608L66.7399 43.4C66.7823 43.4087 66.8105 43.4565 66.8011 43.4957C66.7728 43.5305 66.7446 43.5479 66.7117 43.5479Z" fill="#EBDBCD"/>
<path d="M66.5893 41.5947C66.5799 41.5947 66.5799 41.5947 66.5705 41.5947C66.5281 41.586 66.4999 41.5382 66.5093 41.499L66.8529 40.2984C66.8623 40.2593 66.9141 40.2332 66.9564 40.2419C66.9988 40.2506 67.027 40.2984 67.0176 40.3376L66.674 41.5382C66.6599 41.5773 66.6317 41.5947 66.5893 41.5947ZM67.2906 39.2022C67.2812 39.2022 67.2812 39.2022 67.2717 39.2022C67.2294 39.1935 67.2011 39.1457 67.2106 39.1065L67.5541 37.9059C67.5635 37.8668 67.6153 37.8407 67.6577 37.8494C67.7 37.8581 67.7283 37.9059 67.7188 37.9451L67.3753 39.1457C67.3612 39.1761 67.3329 39.2022 67.2906 39.2022Z" fill="#EBDBCD"/>
<path d="M67.9918 36.801C67.9824 36.801 67.9824 36.801 67.973 36.801C67.9306 36.7923 67.9024 36.7445 67.9118 36.7053L68.1047 36.0398L68.8248 36.2181C68.8672 36.2268 68.8954 36.2747 68.886 36.3138C68.8766 36.353 68.8248 36.3791 68.7825 36.3704L68.2224 36.2312L68.0718 36.7488C68.0624 36.7793 68.0341 36.801 67.9918 36.801Z" fill="#EBDBCD"/>
<path d="M76.6043 38.3105C76.5949 38.3105 76.5949 38.3105 76.5855 38.3105L75.2865 37.9799C75.2442 37.9712 75.2159 37.9233 75.2253 37.8842C75.2348 37.845 75.2865 37.8189 75.3289 37.8276L76.6278 38.1582C76.6702 38.1669 76.6984 38.2148 76.689 38.2539C76.6749 38.2931 76.6325 38.3105 76.6043 38.3105ZM74.0017 37.6623C73.9923 37.6623 73.9923 37.6623 73.9829 37.6623L72.6839 37.3317C72.6416 37.323 72.6133 37.2752 72.6228 37.236C72.6322 37.1969 72.6839 37.1708 72.7263 37.1795L74.0252 37.5101C74.0676 37.5188 74.0958 37.5666 74.0864 37.6058C74.0723 37.6449 74.0346 37.6623 74.0017 37.6623ZM71.4038 37.0142C71.3944 37.0142 71.3944 37.0142 71.385 37.0142L70.0861 36.6836C70.0437 36.6749 70.0155 36.627 70.0249 36.5879C70.0343 36.5487 70.0861 36.5226 70.1284 36.5313L71.4274 36.8619C71.4697 36.8706 71.498 36.9185 71.4885 36.9576C71.4744 36.9968 71.4462 37.0142 71.4038 37.0142Z" fill="#EBDBCD"/>
<path d="M78.3692 39.3893C78.3597 39.3893 78.3598 39.3893 78.3503 39.3893C78.308 39.3806 78.2797 39.3327 78.2892 39.2936L78.4398 38.7759L77.8797 38.6367C77.8374 38.628 77.8091 38.5802 77.8185 38.541C77.8279 38.5019 77.8797 38.4758 77.9221 38.4845L78.6421 38.6628L78.4492 39.3284C78.4398 39.3719 78.4021 39.3893 78.3692 39.3893Z" fill="#EBDBCD"/>
<path d="M76.9667 44.1873C76.9572 44.1873 76.9572 44.1873 76.9478 44.1873C76.9055 44.1786 76.8772 44.1308 76.8866 44.0916L77.2302 42.891C77.2396 42.8519 77.2914 42.8258 77.3337 42.8345C77.3761 42.8432 77.4043 42.891 77.3949 42.9302L77.0514 44.1308C77.0419 44.1699 76.9996 44.1873 76.9667 44.1873ZM77.6679 41.7948C77.6585 41.7948 77.6585 41.7948 77.6491 41.7948C77.6067 41.7861 77.5785 41.7383 77.5879 41.6991L77.9314 40.4985C77.9409 40.4594 77.9926 40.4333 78.035 40.442C78.0773 40.4507 78.1056 40.4985 78.0962 40.5377L77.7526 41.7383C77.7385 41.7644 77.7008 41.7948 77.6679 41.7948Z" fill="#EBDBCD"/>
<path d="M48.5313 39.7547C46.4887 39.585 44.8839 39.2196 43.9003 38.9369C45.331 39.7242 47.0488 40.268 48.9266 40.4594C50.0749 40.5725 51.1997 40.5551 52.2586 40.4028C52.2492 40.1505 52.2492 39.933 52.2492 39.7373C51.2562 39.8417 49.9761 39.8808 48.5313 39.7547Z" fill="#F0A173"/>
<path d="M1.54362 17.8872C1.51538 17.8872 1.49185 17.8785 1.47302 17.8611C1.34125 17.6915 1.23771 17.5044 1.14829 17.3087C1.12946 17.2695 1.14829 17.226 1.19065 17.2043C1.233 17.1825 1.28006 17.2043 1.3036 17.2434C1.3836 17.4305 1.48714 17.6088 1.60951 17.7698C1.63774 17.8089 1.62833 17.8524 1.59068 17.8742C1.57185 17.8742 1.55303 17.8872 1.54362 17.8872Z" fill="#EBDBCD"/>
<path d="M0.964773 16.1124C0.922416 16.1124 0.884766 16.0733 0.884766 16.0385V15.9993C0.884766 15.5861 0.95536 15.1728 1.08714 14.7596C1.09655 14.7204 1.14832 14.6943 1.19067 14.7117C1.23303 14.7204 1.26127 14.7683 1.24244 14.8074C1.11067 15.2033 1.04007 15.6035 1.04007 15.9993V16.0254C1.04478 16.0733 1.00713 16.1124 0.964773 16.1124ZM1.75543 13.7199C1.7366 13.7199 1.72719 13.7199 1.71307 13.7112C1.67072 13.6938 1.6613 13.646 1.69425 13.6068C1.92956 13.2675 2.22135 12.9326 2.56962 12.6107C2.59786 12.5846 2.64963 12.5846 2.68257 12.6107C2.71081 12.6368 2.71081 12.6846 2.68257 12.7151C2.34842 13.0239 2.06134 13.3545 1.83073 13.6808C1.8072 13.7069 1.78837 13.7199 1.75543 13.7199ZM3.65677 11.906C3.63795 11.906 3.605 11.8973 3.59559 11.8799C3.56735 11.8407 3.57677 11.7972 3.61442 11.7755C3.83561 11.6145 4.08034 11.4579 4.34389 11.297C4.47567 11.2143 4.61686 11.1273 4.74863 11.0534C4.79099 11.036 4.83805 11.0447 4.86158 11.0708C4.88041 11.1099 4.871 11.1534 4.84276 11.1752C4.71098 11.2578 4.56979 11.3361 4.43802 11.4188C4.17446 11.5797 3.93915 11.7363 3.71795 11.8973C3.68501 11.8973 3.6756 11.906 3.65677 11.906ZM5.93932 10.4966C5.91109 10.4966 5.88755 10.4879 5.86873 10.4574C5.8499 10.4183 5.85932 10.3748 5.88756 10.353C6.34407 10.079 6.68762 9.85711 6.99353 9.62221C7.02177 9.59611 7.08295 9.60481 7.10648 9.63091C7.13472 9.65701 7.12531 9.71356 7.09707 9.73531C6.78175 9.97021 6.43819 10.1964 5.96756 10.4748C5.97227 10.4966 5.95344 10.4966 5.93932 10.4966ZM10.6833 9.73966C10.6409 9.73966 10.6033 9.70051 10.6033 9.66571C10.6033 9.62656 10.6315 9.59176 10.6833 9.59176C11.1304 9.58306 11.5775 9.53521 12.0246 9.43081C12.0669 9.42211 12.114 9.44821 12.1281 9.48736C12.1375 9.52651 12.1093 9.57001 12.0669 9.58306C11.6057 9.67006 11.1398 9.72661 10.6833 9.73966ZM9.32315 9.62656C9.31374 9.62656 9.31374 9.62656 9.30432 9.62656C8.84781 9.54391 8.40072 9.40906 7.98186 9.24376C7.9395 9.22636 7.92067 9.17851 7.9395 9.13936C7.95832 9.10021 8.01009 9.08281 8.05245 9.10021C8.45719 9.26986 8.89488 9.39166 9.34197 9.47431C9.38433 9.48301 9.41257 9.52216 9.40316 9.57001C9.39374 9.59611 9.36551 9.62656 9.32315 9.62656ZM13.3423 9.18286C13.3141 9.18286 13.2811 9.16546 13.2717 9.13501C13.2529 9.09586 13.2717 9.05236 13.3141 9.03061C13.7094 8.86966 14.1047 8.68261 14.5236 8.44771C14.566 8.43031 14.613 8.43901 14.6366 8.47381C14.6554 8.51296 14.646 8.55646 14.6083 8.57821C14.18 8.81311 13.7847 9.00016 13.38 9.16111C13.3659 9.17416 13.3564 9.18286 13.3423 9.18286ZM8.04304 8.89141C8.02421 8.89141 8.00068 8.88271 7.99127 8.87401C7.96303 8.84791 7.94891 8.80006 7.98186 8.76961C8.28776 8.43901 8.51837 8.08231 8.70192 7.71691C8.72074 7.67776 8.77251 7.66036 8.81487 7.67776C8.85723 7.69516 8.87605 7.74301 8.85723 7.78216C8.67368 8.15626 8.41954 8.52166 8.11363 8.86966C8.08539 8.88271 8.06186 8.89141 8.04304 8.89141ZM6.84293 8.59126C6.82411 8.59126 6.80058 8.58256 6.79116 8.57386C6.40525 8.29111 6.08993 7.97356 5.85461 7.61686C5.83579 7.57771 5.8452 7.53421 5.88285 7.51246C5.92521 7.49506 5.97227 7.50376 5.9958 7.53856C6.217 7.87786 6.5229 8.18671 6.89 8.45641C6.91823 8.48251 6.93235 8.53036 6.89941 8.56081C6.88529 8.58256 6.86646 8.59126 6.84293 8.59126ZM15.7002 7.89961C15.6719 7.89961 15.6484 7.89091 15.6296 7.87351C15.6013 7.83436 15.6108 7.79086 15.6484 7.76911C15.992 7.54291 16.3073 7.31671 16.6132 7.09486L16.745 6.99916C16.7873 6.97306 16.8344 6.98176 16.8579 7.00786C16.8767 7.03396 16.8767 7.09051 16.8485 7.11226L16.7167 7.20796C16.4108 7.42546 16.0861 7.64731 15.7519 7.88221C15.7331 7.88656 15.719 7.89961 15.7002 7.89961ZM9.11137 6.60331C9.0596 6.60331 9.03136 6.56416 9.03136 6.52066C9.03136 6.47716 9.03136 6.42496 9.03136 6.36841C9.03136 6.19876 9.01253 6.02911 8.97959 5.85946C8.93723 5.67241 8.87605 5.49406 8.77722 5.31571C8.75839 5.27656 8.77722 5.23306 8.81958 5.21131C8.86193 5.19391 8.90899 5.21131 8.93253 5.25046C9.03607 5.43751 9.10666 5.63326 9.14431 5.83336C9.18667 6.00301 9.19608 6.19006 9.19608 6.36841C9.19608 6.42496 9.19608 6.47281 9.19608 6.52936C9.19137 6.56416 9.14902 6.60331 9.11137 6.60331ZM5.46399 6.47281C5.42163 6.47281 5.38398 6.44671 5.38398 6.40756C5.37457 6.32491 5.37457 6.22921 5.37457 6.14656C5.37457 5.78986 5.45458 5.44186 5.59577 5.13301C5.61459 5.09386 5.66636 5.07646 5.70872 5.09386C5.75107 5.11126 5.7699 5.15911 5.75107 5.19826C5.60988 5.48971 5.53929 5.81596 5.53929 6.15526C5.53929 6.23791 5.53929 6.32491 5.5487 6.39886C5.55341 6.43366 5.52517 6.47281 5.46399 6.47281C5.4734 6.47281 5.4734 6.47281 5.46399 6.47281ZM7.92067 4.45441C7.91126 4.45441 7.89244 4.45441 7.87832 4.44571C7.54417 4.26736 7.17708 4.21081 6.84293 4.28476C6.77234 4.30216 6.70174 4.32391 6.63115 4.34131C6.58879 4.35871 6.54173 4.34131 6.52761 4.29346C6.50879 4.25431 6.52761 4.21081 6.57938 4.19776C6.64997 4.17166 6.72998 4.14991 6.81469 4.13251C7.20061 4.05856 7.59594 4.11511 7.97244 4.31086C8.0148 4.32826 8.02421 4.37611 8.00068 4.41526C7.98186 4.44571 7.95362 4.45441 7.92067 4.45441Z" fill="#EBDBCD"/>
<path d="M17.9122 6.3858C17.8839 6.3858 17.8604 6.3771 17.8416 6.34665C17.8227 6.3075 17.8322 6.264 17.8698 6.24225C18.1051 6.11175 18.3075 6.01605 18.491 5.9682C18.5334 5.9595 18.5805 5.9769 18.5946 6.02475C18.604 6.0639 18.5852 6.1074 18.5334 6.12045C18.3687 6.1683 18.1757 6.24225 17.9545 6.37275C17.9451 6.3858 17.9357 6.3858 17.9122 6.3858Z" fill="#EBDBCD"/>
</g>
<defs>
<clipPath id="clip0_40_4614">
<rect width="81" height="87" fill="white"/>
</clipPath>
</defs>
</svg>
