<svg width="832" height="490" viewBox="0 0 832 490" fill="none" xmlns="http://www.w3.org/2000/svg">
<path d="M689.623 421.676C681.163 426.57 665.535 432.413 652.596 419.373C639.284 405.968 629.746 406.223 625.307 407.515C624.625 407.374 623.918 407.461 623.288 407.762C622.657 408.064 622.136 408.564 621.799 409.192L593.811 461.758C592.724 463.799 591.126 465.5 589.185 466.685C587.244 467.87 585.03 468.495 582.775 468.495H491.543C490.678 468.495 489.848 468.85 489.236 469.481C488.625 470.113 488.281 470.97 488.281 471.863C488.281 472.757 488.625 473.613 489.236 474.245C489.848 474.877 490.678 475.231 491.543 475.231H582.775C586.199 475.232 589.56 474.283 592.507 472.484C595.454 470.685 597.879 468.101 599.528 465.003L615.922 434.214C622.025 435.018 630.352 437.878 638.166 445.755C653.175 460.878 670.847 452.327 677.323 448.292C678.908 447.309 680.219 445.919 681.13 444.257L692.092 424.226C692.289 423.87 692.367 423.457 692.314 423.051C692.261 422.645 692.08 422.268 691.8 421.978C691.519 421.688 691.154 421.502 690.761 421.447C690.367 421.392 689.968 421.473 689.623 421.676V421.676Z" fill="#5D21D1"/>
<path d="M236.763 360.852C236.666 360.644 236.529 360.459 236.36 360.307C236.191 360.156 235.993 360.042 235.78 359.973C235.567 359.903 235.342 359.879 235.119 359.903C234.897 359.927 234.681 359.997 234.486 360.11C234.227 360.261 231.405 362.048 219.238 368.276L213.613 371.115C187.056 384.327 147.873 401.1 131.919 394.171C131.607 394.035 131.262 394.002 130.932 394.077C130.602 394.152 130.302 394.332 130.075 394.59C130.022 394.652 124.284 401.073 111.791 407.074C100.25 412.621 80.415 418.938 51.4684 417.529C51.2269 417.517 50.9858 417.561 50.7626 417.657C50.5394 417.753 50.3396 417.899 50.1778 418.084C50.016 418.27 49.8962 418.49 49.827 418.729C49.7578 418.969 49.741 419.221 49.7778 419.468C49.8448 419.859 50.0401 420.215 50.331 420.475C50.6218 420.735 50.9905 420.885 51.3752 420.897C53.9577 421.021 56.4603 421.083 58.9031 421.097L60.0745 429.222C60.1295 429.62 60.3036 429.991 60.5725 430.282C60.8413 430.573 61.1915 430.771 61.5742 430.846C61.9568 430.922 62.3528 430.872 62.7068 430.704C63.0608 430.536 63.3552 430.258 63.5489 429.909L68.5874 420.856C72.1417 420.65 75.5296 420.327 78.7444 419.914L80.5747 426.954C80.6751 427.336 80.8868 427.677 81.1812 427.931C81.4755 428.185 81.8384 428.339 82.2205 428.373C82.6026 428.407 82.9855 428.318 83.3174 428.12C83.6493 427.921 83.914 427.622 84.0758 427.263L88.0693 418.368C90.7716 417.818 93.3275 417.206 95.7369 416.553L97.2611 422.41C97.3615 422.792 97.5732 423.133 97.8676 423.387C98.1619 423.641 98.5248 423.795 98.9069 423.829C99.289 423.863 99.6719 423.774 100.004 423.576C100.336 423.377 100.6 423.078 100.762 422.719L104.862 413.638C107.891 412.518 110.593 411.363 112.962 410.201L114.027 414.285C114.127 414.667 114.338 415.009 114.632 415.264C114.926 415.518 115.289 415.673 115.671 415.708C116.053 415.742 116.436 415.655 116.769 415.457C117.101 415.259 117.366 414.96 117.528 414.601L121.668 405.417C125.255 403.214 128.603 400.619 131.652 397.677C134.98 398.887 139.154 399.265 143.826 398.997L146.601 406.118C146.743 406.478 146.986 406.785 147.299 407C147.612 407.214 147.98 407.327 148.356 407.322C148.731 407.318 149.097 407.197 149.405 406.975C149.713 406.752 149.949 406.44 150.083 406.077L153.118 397.78C156.02 397.223 159.035 396.515 162.13 395.663L163.388 401.224C163.476 401.609 163.676 401.957 163.962 402.221C164.247 402.485 164.605 402.652 164.985 402.699C165.366 402.746 165.751 402.672 166.089 402.485C166.427 402.299 166.702 402.01 166.875 401.657L171.175 392.892C174.09 391.916 177.032 390.83 179.988 389.737L181.099 394.769C181.183 395.15 181.377 395.495 181.655 395.759C181.932 396.024 182.281 396.195 182.655 396.251C183.029 396.307 183.411 396.244 183.749 396.072C184.088 395.899 184.369 395.625 184.554 395.285L189.712 385.84C192.328 384.747 194.923 383.619 197.473 382.478L198.724 387.29C198.824 387.673 199.035 388.015 199.329 388.269C199.623 388.524 199.985 388.679 200.367 388.713C200.75 388.748 201.133 388.66 201.465 388.462C201.797 388.264 202.063 387.965 202.225 387.606L206.378 378.395C209.161 377.075 211.863 375.762 214.445 374.477L215.457 378.368C215.557 378.75 215.769 379.091 216.063 379.345C216.358 379.599 216.721 379.753 217.103 379.787C217.485 379.821 217.868 379.732 218.2 379.534C218.532 379.335 218.796 379.036 218.958 378.677L222.752 370.263C233.095 364.901 234.979 363.671 235.977 363.086C236.357 362.885 236.649 362.543 236.795 362.129C236.94 361.714 236.929 361.258 236.763 360.852Z" fill="#5D21D1"/>
<path d="M316.009 336.608C315.698 336.474 315.354 336.443 315.025 336.519C314.696 336.596 314.398 336.776 314.172 337.034C314.112 337.096 308.375 343.516 295.889 349.517C284.347 355.065 264.506 361.382 235.559 359.973C235.318 359.961 235.077 360.004 234.853 360.1C234.63 360.196 234.43 360.342 234.269 360.528C234.107 360.713 233.987 360.934 233.918 361.173C233.849 361.412 233.832 361.664 233.869 361.911C233.936 362.304 234.132 362.66 234.424 362.921C234.717 363.181 235.087 363.33 235.473 363.341C238.055 363.465 240.558 363.527 243.001 363.534L244.145 371.487C244.207 371.895 244.389 372.273 244.668 372.57C244.946 372.866 245.307 373.065 245.7 373.141C246.093 373.216 246.499 373.164 246.862 372.991C247.225 372.818 247.527 372.532 247.726 372.174L252.678 363.272C256.239 363.066 259.62 362.743 262.835 362.331L264.626 369.205C264.729 369.6 264.947 369.953 265.25 370.215C265.554 370.478 265.929 370.638 266.323 370.673C266.718 370.708 267.113 370.617 267.456 370.413C267.799 370.208 268.073 369.899 268.24 369.528L272.18 360.784C274.889 360.234 277.445 359.622 279.848 358.969L281.964 365.534C282.092 365.925 282.333 366.266 282.656 366.509C282.979 366.753 283.366 366.886 283.766 366.893C284.165 366.899 284.557 366.776 284.886 366.543C285.216 366.309 285.467 365.976 285.605 365.589L288.973 356.089C292.008 354.969 294.704 353.814 297.08 352.652L298.098 356.577C298.201 356.972 298.419 357.325 298.723 357.588C299.027 357.85 299.401 358.01 299.796 358.045C300.19 358.081 300.586 357.99 300.929 357.785C301.272 357.58 301.545 357.271 301.712 356.9L305.786 347.868C309.373 345.662 312.72 343.065 315.77 340.12" fill="#5D21D1"/>
<path d="M740.076 375.069C740.002 374.853 739.886 374.656 739.735 374.488C739.585 374.321 739.403 374.186 739.2 374.094C738.998 374.001 738.779 373.952 738.558 373.95C738.337 373.947 738.117 373.991 737.913 374.079C712.274 385.125 685.331 379.578 657.842 357.643C637.169 341.145 623.97 321.038 623.837 320.839C623.596 320.468 623.222 320.211 622.798 320.125C622.373 320.038 621.933 320.13 621.574 320.379C621.215 320.627 620.966 321.013 620.882 321.452C620.799 321.89 620.887 322.345 621.128 322.716C624.465 327.615 628.065 332.317 631.911 336.801L635.199 352.934C635.278 353.326 635.47 353.683 635.749 353.96C636.028 354.237 636.382 354.421 636.763 354.487C637.145 354.553 637.538 354.498 637.889 354.331C638.24 354.163 638.534 353.889 638.733 353.546L642.021 347.841C644.79 350.625 647.785 353.463 651 356.254L654.481 368.683C654.584 369.049 654.787 369.377 655.066 369.628C655.345 369.878 655.688 370.04 656.054 370.094C656.42 370.149 656.793 370.093 657.129 369.934C657.465 369.775 657.75 369.52 657.949 369.198L661.01 364.235C663.753 366.219 666.497 368.053 669.244 369.734L674.069 383.709C674.193 384.067 674.414 384.38 674.705 384.612C674.996 384.845 675.345 384.986 675.712 385.019C676.078 385.052 676.446 384.976 676.772 384.8C677.098 384.624 677.368 384.355 677.55 384.026L681.797 376.292C684.433 377.433 687.066 378.428 689.697 379.276L695.927 390.584C696.114 390.92 696.391 391.192 696.726 391.367C697.06 391.542 697.437 391.613 697.81 391.57C698.183 391.527 698.535 391.372 698.824 391.125C699.113 390.877 699.325 390.548 699.435 390.178L701.798 382.149C705.174 382.659 708.582 382.919 711.995 382.926H712.82L719.562 391.979C719.782 392.268 720.074 392.49 720.407 392.618C720.741 392.746 721.102 392.776 721.451 392.705C721.8 392.633 722.123 392.464 722.384 392.214C722.645 391.965 722.834 391.645 722.93 391.292L725.666 381.496C730.263 380.531 734.757 379.103 739.084 377.234C739.486 377.072 739.812 376.757 739.996 376.355C740.181 375.952 740.209 375.492 740.076 375.069Z" fill="#5D21D1"/>
<path d="M51.1611 486.999V419.049" stroke="#FE7624" stroke-width="6" stroke-linecap="round" stroke-linejoin="round"/>
<path d="M131.286 395.718V485.899" stroke="#FE7624" stroke-width="6" stroke-linecap="round" stroke-linejoin="round"/>
<path d="M235.511 361.465V485.762" stroke="#FE7624" stroke-width="6" stroke-linecap="round" stroke-linejoin="round"/>
<path d="M738.726 375.371V486.999" stroke="#FE7624" stroke-width="6" stroke-linecap="round" stroke-linejoin="round"/>
<path d="M616.251 312.165L375.307 313.78C373.498 313.75 371.715 314.22 370.141 315.141C368.567 316.062 367.26 317.4 366.355 319.018L288.66 465.113L91.1257 465.25C91.1257 465.25 87.7245 485.715 116.172 486.993L542.151 486.423L625.33 325.226C628.492 319.128 623.606 312.096 616.251 312.165Z" fill="#FE7624"/>
<path d="M313.407 464.536L516.839 463.635L579.777 336.96C582.22 332.107 578.992 326.16 573.947 326.215L389.058 328.532L313.407 464.536Z" fill="white"/>
<path d="M523.087 486.422L605.474 327.432C608.615 321.327 603.73 314.316 596.375 314.371" stroke="white" stroke-width="6" stroke-linecap="round" stroke-linejoin="round"/>
<path d="M324.282 377.001L346.58 419.366C346.82 419.796 347.191 420.131 347.635 420.321C348.079 420.511 348.571 420.544 349.035 420.416C349.499 420.287 349.909 420.004 350.202 419.611C350.494 419.217 350.653 418.735 350.653 418.239L349.162 398.991C349.162 398.991 362.201 445.357 380.092 446.512C397.983 447.667 415.189 397.706 415.189 397.706L410.49 418.644C410.49 419.14 410.648 419.623 410.941 420.016C411.234 420.41 411.644 420.693 412.108 420.821C412.572 420.95 413.064 420.917 413.508 420.727C413.952 420.537 414.323 420.201 414.563 419.772L438.391 376.994" fill="#5D21D1"/>
<path d="M296.394 213.274C296.394 213.274 243.233 287.652 250.069 354.193H367.406V211.734L296.394 213.274Z" fill="#5D21D1"/>
<path d="M463.591 213.274C463.591 213.274 516.752 287.652 509.917 354.193H392.593V211.734L463.591 213.274Z" fill="#5D21D1"/>
<path d="M427.874 354.193C472.935 270.528 468.029 204.118 454.87 158.625C441.712 113.133 410.821 62.3882 381.456 62.3882C352.09 62.3882 321.206 113.105 308.041 158.625C294.875 204.145 289.304 270.528 334.365 354.193L321.765 382.211H440.553L427.907 354.2L427.874 354.193Z" fill="white" stroke="#2E186A" stroke-width="6" stroke-linecap="round" stroke-linejoin="round"/>
<path d="M381.457 234.481C400.002 234.481 415.036 216.015 415.036 193.236C415.036 170.457 400.002 151.992 381.457 151.992C362.912 151.992 347.878 170.457 347.878 193.236C347.878 216.015 362.912 234.481 381.457 234.481Z" fill="#5D21D1"/>
<path d="M381.454 253.068C384.546 253.068 387.052 249.991 387.052 246.194C387.052 242.398 384.546 239.32 381.454 239.32C378.363 239.32 375.856 242.398 375.856 246.194C375.856 249.991 378.363 253.068 381.454 253.068Z" fill="#5D21D1"/>
<path d="M402.991 253.068C406.083 253.068 408.589 249.991 408.589 246.194C408.589 242.398 406.083 239.32 402.991 239.32C399.9 239.32 397.394 242.398 397.394 246.194C397.394 249.991 399.9 253.068 402.991 253.068Z" fill="#5D21D1"/>
<path d="M358.192 253.068C361.284 253.068 363.79 249.991 363.79 246.194C363.79 242.398 361.284 239.32 358.192 239.32C355.101 239.32 352.595 242.398 352.595 246.194C352.595 249.991 355.101 253.068 358.192 253.068Z" fill="#5D21D1"/>
<path d="M381.458 220.327C395.449 220.327 406.791 206.398 406.791 189.215C406.791 172.032 395.449 158.103 381.458 158.103C367.468 158.103 356.126 172.032 356.126 189.215C356.126 206.398 367.468 220.327 381.458 220.327Z" fill="white" stroke="#2E186A" stroke-width="6" stroke-linecap="round" stroke-linejoin="round"/>
<path d="M387.38 61.1922V12.4756C387.38 12.3244 387.38 12.1732 387.38 12.0288C388.179 10.9018 388.661 9.56813 388.77 8.17584C388.88 6.78356 388.615 5.38705 388.003 4.14122C387.391 2.89539 386.457 1.84894 385.304 1.11795C384.152 0.386957 382.826 0 381.473 0C380.121 0 378.794 0.386957 377.642 1.11795C376.489 1.84894 375.555 2.89539 374.943 4.14122C374.332 5.38705 374.066 6.78356 374.176 8.17584C374.286 9.56813 374.767 10.9018 375.566 12.0288C375.566 12.1732 375.566 12.3244 375.566 12.4756V61.1166C363.253 63.7219 350.939 74.3836 339.697 88.6541C354.306 85.2471 369.311 84.0042 384.259 84.9628C397.976 85.7073 411.6 87.7273 424.966 90.9982C413.312 75.6278 400.286 64.0931 387.38 61.1922Z" fill="#5D21D1"/>
<path d="M436.119 116.37C418.626 110.098 400.32 106.574 381.813 105.915C358.657 105 341.066 110.355 326.609 116.226C320.409 128.024 315.258 140.379 311.221 153.14C328.526 144.43 349.732 135.226 382.306 135.837C413.229 136.415 434.535 143.44 450.696 150.878C446.792 138.97 441.916 127.426 436.119 116.37V116.37Z" fill="#5D21D1"/>
<path d="M426.086 353.87C428.23 349.892 430.262 345.951 432.183 342.046C421.98 337.757 407.35 334.23 381.339 334.485C355.028 334.258 340.338 337.922 330.161 342.266C332.065 346.116 334.073 350.011 336.185 353.952C336.185 353.952 359.281 349.305 381.339 349.498C403.024 349.264 426.086 353.87 426.086 353.87Z" fill="#5D21D1"/>
<path d="M548.854 463.634H444.209C444.209 463.634 429.147 449.68 436.062 438.269C442.978 426.858 461.162 424.115 467.052 435.629C467.052 435.629 469.621 413.564 491.553 415.261C513.484 416.959 511.76 440.551 511.76 440.551C511.76 440.551 539.522 420.252 538.783 451.962C538.803 451.962 540.554 463.607 548.854 463.634Z" fill="white" stroke="#2E186A" stroke-width="6" stroke-linecap="round" stroke-linejoin="round"/>
<path d="M215.739 463.813H320.377C320.377 463.813 335.446 449.866 328.524 438.448C321.602 427.03 303.431 424.294 297.534 435.808C297.534 435.808 294.971 413.75 273.04 415.441C251.109 417.132 252.826 440.73 252.826 440.73C252.826 440.73 225.071 420.438 225.81 452.148C225.81 452.148 224.033 463.786 215.739 463.813Z" fill="white" stroke="#2E186A" stroke-width="6" stroke-linecap="round" stroke-linejoin="round"/>
<path d="M3 487H829" stroke="#2E186A" stroke-width="6" stroke-linecap="round" stroke-linejoin="round"/>
</svg>
